<mxfile host="Electron" modified="2023-11-15T15:58:48.527Z" agent="Mozilla/5.0 (Windows NT 10.0; Win64; x64) AppleWebKit/537.36 (KHTML, like Gecko) draw.io/21.6.8 Chrome/114.0.5735.289 Electron/25.5.0 Safari/537.36" etag="1MNnEtsfJ_Lc4HxB3OwE" version="21.6.8" type="device">
  <diagram name="Page-1" id="4OWbag4ZJuFiK9m1Z6tg">
    <mxGraphModel dx="5225" dy="3705" grid="1" gridSize="10" guides="1" tooltips="1" connect="1" arrows="1" fold="1" page="0" pageScale="1" pageWidth="1654" pageHeight="1169" background="none" math="0" shadow="0">
      <root>
        <mxCell id="0" />
        <mxCell id="1" parent="0" />
        <mxCell id="_4IBZ-Op1HETno_acvwW-232" value="" style="edgeStyle=orthogonalEdgeStyle;rounded=0;orthogonalLoop=1;jettySize=auto;html=1;" parent="1" source="_4IBZ-Op1HETno_acvwW-1" target="_4IBZ-Op1HETno_acvwW-224" edge="1">
          <mxGeometry relative="1" as="geometry" />
        </mxCell>
        <mxCell id="_4IBZ-Op1HETno_acvwW-1" value="" style="shape=parallelogram;perimeter=parallelogramPerimeter;whiteSpace=wrap;html=1;fixedSize=1;" parent="1" vertex="1">
          <mxGeometry x="-49" y="-186" width="210" height="110" as="geometry" />
        </mxCell>
        <mxCell id="_4IBZ-Op1HETno_acvwW-81" value="Notice of new information registered" style="shape=parallelogram;perimeter=parallelogramPerimeter;whiteSpace=wrap;html=1;fixedSize=1;" parent="1" vertex="1">
          <mxGeometry x="1030" y="-230" width="180" height="100" as="geometry" />
        </mxCell>
        <mxCell id="_4IBZ-Op1HETno_acvwW-137" value="" style="edgeStyle=orthogonalEdgeStyle;rounded=0;orthogonalLoop=1;jettySize=auto;html=1;" parent="1" source="_4IBZ-Op1HETno_acvwW-118" target="_4IBZ-Op1HETno_acvwW-123" edge="1">
          <mxGeometry relative="1" as="geometry" />
        </mxCell>
        <mxCell id="M3nlvZfUeVR15v4jXuiJ-5" value="YES" style="edgeLabel;html=1;align=center;verticalAlign=middle;resizable=0;points=[];" parent="_4IBZ-Op1HETno_acvwW-137" vertex="1" connectable="0">
          <mxGeometry x="-0.1071" y="-2" relative="1" as="geometry">
            <mxPoint x="2" as="offset" />
          </mxGeometry>
        </mxCell>
        <mxCell id="_4IBZ-Op1HETno_acvwW-196" style="edgeStyle=orthogonalEdgeStyle;rounded=0;orthogonalLoop=1;jettySize=auto;html=1;entryX=0;entryY=0.5;entryDx=0;entryDy=0;" parent="1" source="_4IBZ-Op1HETno_acvwW-118" target="_4IBZ-Op1HETno_acvwW-128" edge="1">
          <mxGeometry relative="1" as="geometry">
            <Array as="points">
              <mxPoint x="870" y="204.99999999999977" />
              <mxPoint x="870" y="1505" />
            </Array>
          </mxGeometry>
        </mxCell>
        <mxCell id="_4IBZ-Op1HETno_acvwW-118" value="" style="verticalLabelPosition=middle;verticalAlign=middle;html=1;shape=trapezoid;perimeter=trapezoidPerimeter;whiteSpace=wrap;size=0.23;arcSize=10;flipV=1;labelPosition=center;align=center;" parent="1" vertex="1">
          <mxGeometry x="1020" y="160" width="200" height="90" as="geometry" />
        </mxCell>
        <mxCell id="_4IBZ-Op1HETno_acvwW-136" value="" style="edgeStyle=orthogonalEdgeStyle;rounded=0;orthogonalLoop=1;jettySize=auto;html=1;" parent="1" source="_4IBZ-Op1HETno_acvwW-121" target="_4IBZ-Op1HETno_acvwW-118" edge="1">
          <mxGeometry relative="1" as="geometry" />
        </mxCell>
        <mxCell id="M3nlvZfUeVR15v4jXuiJ-3" value="YES" style="edgeLabel;html=1;align=center;verticalAlign=middle;resizable=0;points=[];" parent="_4IBZ-Op1HETno_acvwW-136" vertex="1" connectable="0">
          <mxGeometry x="0.0509" y="-3" relative="1" as="geometry">
            <mxPoint x="3" as="offset" />
          </mxGeometry>
        </mxCell>
        <mxCell id="_4IBZ-Op1HETno_acvwW-150" value="" style="edgeStyle=orthogonalEdgeStyle;rounded=0;orthogonalLoop=1;jettySize=auto;html=1;" parent="1" source="_4IBZ-Op1HETno_acvwW-121" target="_4IBZ-Op1HETno_acvwW-148" edge="1">
          <mxGeometry relative="1" as="geometry" />
        </mxCell>
        <mxCell id="M3nlvZfUeVR15v4jXuiJ-17" value="NO" style="edgeLabel;html=1;align=center;verticalAlign=middle;resizable=0;points=[];" parent="_4IBZ-Op1HETno_acvwW-150" vertex="1" connectable="0">
          <mxGeometry x="-0.1738" y="1" relative="1" as="geometry">
            <mxPoint as="offset" />
          </mxGeometry>
        </mxCell>
        <mxCell id="_4IBZ-Op1HETno_acvwW-121" value="" style="verticalLabelPosition=bottom;verticalAlign=top;html=1;shape=hexagon;perimeter=hexagonPerimeter2;arcSize=6;size=0.27;" parent="1" vertex="1">
          <mxGeometry x="1010" y="-40" width="220" height="130" as="geometry" />
        </mxCell>
        <mxCell id="_4IBZ-Op1HETno_acvwW-138" value="" style="edgeStyle=orthogonalEdgeStyle;rounded=0;orthogonalLoop=1;jettySize=auto;html=1;" parent="1" source="_4IBZ-Op1HETno_acvwW-123" target="_4IBZ-Op1HETno_acvwW-124" edge="1">
          <mxGeometry relative="1" as="geometry" />
        </mxCell>
        <mxCell id="M3nlvZfUeVR15v4jXuiJ-7" value="YES" style="edgeLabel;html=1;align=center;verticalAlign=middle;resizable=0;points=[];" parent="_4IBZ-Op1HETno_acvwW-138" vertex="1" connectable="0">
          <mxGeometry x="-0.0806" relative="1" as="geometry">
            <mxPoint as="offset" />
          </mxGeometry>
        </mxCell>
        <mxCell id="_4IBZ-Op1HETno_acvwW-203" style="edgeStyle=orthogonalEdgeStyle;rounded=0;orthogonalLoop=1;jettySize=auto;html=1;" parent="1" source="_4IBZ-Op1HETno_acvwW-123" target="_4IBZ-Op1HETno_acvwW-199" edge="1">
          <mxGeometry relative="1" as="geometry" />
        </mxCell>
        <mxCell id="_4IBZ-Op1HETno_acvwW-123" value="" style="verticalLabelPosition=bottom;verticalAlign=top;html=1;shape=hexagon;perimeter=hexagonPerimeter2;arcSize=6;size=0.27;" parent="1" vertex="1">
          <mxGeometry x="1010" y="360" width="220" height="130" as="geometry" />
        </mxCell>
        <mxCell id="_4IBZ-Op1HETno_acvwW-139" value="" style="edgeStyle=orthogonalEdgeStyle;rounded=0;orthogonalLoop=1;jettySize=auto;html=1;" parent="1" source="_4IBZ-Op1HETno_acvwW-124" target="_4IBZ-Op1HETno_acvwW-125" edge="1">
          <mxGeometry relative="1" as="geometry" />
        </mxCell>
        <mxCell id="M3nlvZfUeVR15v4jXuiJ-9" value="YES" style="edgeLabel;html=1;align=center;verticalAlign=middle;resizable=0;points=[];" parent="_4IBZ-Op1HETno_acvwW-139" vertex="1" connectable="0">
          <mxGeometry x="-0.1232" relative="1" as="geometry">
            <mxPoint as="offset" />
          </mxGeometry>
        </mxCell>
        <mxCell id="_4IBZ-Op1HETno_acvwW-158" style="edgeStyle=orthogonalEdgeStyle;rounded=0;orthogonalLoop=1;jettySize=auto;html=1;exitX=1;exitY=0.5;exitDx=0;exitDy=0;entryX=0;entryY=0.5;entryDx=0;entryDy=0;" parent="1" source="_4IBZ-Op1HETno_acvwW-124" target="_4IBZ-Op1HETno_acvwW-153" edge="1">
          <mxGeometry relative="1" as="geometry" />
        </mxCell>
        <mxCell id="M3nlvZfUeVR15v4jXuiJ-20" value="NO" style="edgeLabel;html=1;align=center;verticalAlign=middle;resizable=0;points=[];" parent="_4IBZ-Op1HETno_acvwW-158" vertex="1" connectable="0">
          <mxGeometry x="-0.2876" y="1" relative="1" as="geometry">
            <mxPoint as="offset" />
          </mxGeometry>
        </mxCell>
        <mxCell id="_4IBZ-Op1HETno_acvwW-124" value="" style="verticalLabelPosition=middle;verticalAlign=middle;html=1;shape=trapezoid;perimeter=trapezoidPerimeter;whiteSpace=wrap;size=0.23;arcSize=10;flipV=1;labelPosition=center;align=center;" parent="1" vertex="1">
          <mxGeometry x="1025" y="600" width="190" height="90" as="geometry" />
        </mxCell>
        <mxCell id="_4IBZ-Op1HETno_acvwW-140" value="" style="edgeStyle=orthogonalEdgeStyle;rounded=0;orthogonalLoop=1;jettySize=auto;html=1;" parent="1" source="_4IBZ-Op1HETno_acvwW-125" target="_4IBZ-Op1HETno_acvwW-126" edge="1">
          <mxGeometry relative="1" as="geometry" />
        </mxCell>
        <mxCell id="_4IBZ-Op1HETno_acvwW-125" value="Prepare an AIRAC AIP Amendment" style="rounded=1;whiteSpace=wrap;html=1;absoluteArcSize=1;arcSize=14;strokeWidth=2;" parent="1" vertex="1">
          <mxGeometry x="1012.5" y="780" width="215" height="120" as="geometry" />
        </mxCell>
        <mxCell id="_4IBZ-Op1HETno_acvwW-141" value="" style="edgeStyle=orthogonalEdgeStyle;rounded=0;orthogonalLoop=1;jettySize=auto;html=1;" parent="1" source="_4IBZ-Op1HETno_acvwW-126" target="_4IBZ-Op1HETno_acvwW-127" edge="1">
          <mxGeometry relative="1" as="geometry" />
        </mxCell>
        <mxCell id="_4IBZ-Op1HETno_acvwW-126" value="Issue an AIRAC AIP Amendment" style="rounded=1;whiteSpace=wrap;html=1;absoluteArcSize=1;arcSize=14;strokeWidth=2;" parent="1" vertex="1">
          <mxGeometry x="1012.5" y="1000" width="215" height="120" as="geometry" />
        </mxCell>
        <mxCell id="_4IBZ-Op1HETno_acvwW-142" value="" style="edgeStyle=orthogonalEdgeStyle;rounded=0;orthogonalLoop=1;jettySize=auto;html=1;" parent="1" source="_4IBZ-Op1HETno_acvwW-127" target="_4IBZ-Op1HETno_acvwW-128" edge="1">
          <mxGeometry relative="1" as="geometry" />
        </mxCell>
        <mxCell id="_4IBZ-Op1HETno_acvwW-127" value="Issue trigger NOTAM" style="rounded=1;whiteSpace=wrap;html=1;absoluteArcSize=1;arcSize=14;strokeWidth=2;" parent="1" vertex="1">
          <mxGeometry x="1012.5" y="1230" width="215" height="120" as="geometry" />
        </mxCell>
        <mxCell id="_4IBZ-Op1HETno_acvwW-143" value="" style="edgeStyle=orthogonalEdgeStyle;rounded=0;orthogonalLoop=1;jettySize=auto;html=1;" parent="1" source="_4IBZ-Op1HETno_acvwW-128" target="_4IBZ-Op1HETno_acvwW-129" edge="1">
          <mxGeometry relative="1" as="geometry" />
        </mxCell>
        <mxCell id="M3nlvZfUeVR15v4jXuiJ-12" value="YES" style="edgeLabel;html=1;align=center;verticalAlign=middle;resizable=0;points=[];" parent="_4IBZ-Op1HETno_acvwW-143" vertex="1" connectable="0">
          <mxGeometry x="0.0148" relative="1" as="geometry">
            <mxPoint as="offset" />
          </mxGeometry>
        </mxCell>
        <mxCell id="_4IBZ-Op1HETno_acvwW-257" value="" style="edgeStyle=orthogonalEdgeStyle;rounded=0;orthogonalLoop=1;jettySize=auto;html=1;" parent="1" source="_4IBZ-Op1HETno_acvwW-128" target="_4IBZ-Op1HETno_acvwW-258" edge="1">
          <mxGeometry relative="1" as="geometry">
            <mxPoint x="2770" y="1547.5" as="targetPoint" />
          </mxGeometry>
        </mxCell>
        <mxCell id="M3nlvZfUeVR15v4jXuiJ-25" value="NO" style="edgeLabel;html=1;align=center;verticalAlign=middle;resizable=0;points=[];" parent="_4IBZ-Op1HETno_acvwW-257" vertex="1" connectable="0">
          <mxGeometry x="-0.8567" y="4" relative="1" as="geometry">
            <mxPoint x="-1" as="offset" />
          </mxGeometry>
        </mxCell>
        <mxCell id="_4IBZ-Op1HETno_acvwW-128" value="" style="verticalLabelPosition=middle;verticalAlign=middle;html=1;shape=trapezoid;perimeter=trapezoidPerimeter;whiteSpace=wrap;size=0.23;arcSize=10;flipV=1;labelPosition=center;align=center;" parent="1" vertex="1">
          <mxGeometry x="1000" y="1460" width="240" height="100" as="geometry" />
        </mxCell>
        <mxCell id="_4IBZ-Op1HETno_acvwW-144" value="" style="edgeStyle=orthogonalEdgeStyle;rounded=0;orthogonalLoop=1;jettySize=auto;html=1;" parent="1" source="_4IBZ-Op1HETno_acvwW-129" target="_4IBZ-Op1HETno_acvwW-130" edge="1">
          <mxGeometry relative="1" as="geometry" />
        </mxCell>
        <mxCell id="M3nlvZfUeVR15v4jXuiJ-13" value="YES" style="edgeLabel;html=1;align=center;verticalAlign=middle;resizable=0;points=[];" parent="_4IBZ-Op1HETno_acvwW-144" vertex="1" connectable="0">
          <mxGeometry x="0.0099" relative="1" as="geometry">
            <mxPoint as="offset" />
          </mxGeometry>
        </mxCell>
        <mxCell id="_4IBZ-Op1HETno_acvwW-189" style="edgeStyle=orthogonalEdgeStyle;rounded=0;orthogonalLoop=1;jettySize=auto;html=1;exitX=1;exitY=0.5;exitDx=0;exitDy=0;" parent="1" source="_4IBZ-Op1HETno_acvwW-129" target="_4IBZ-Op1HETno_acvwW-188" edge="1">
          <mxGeometry relative="1" as="geometry" />
        </mxCell>
        <mxCell id="M3nlvZfUeVR15v4jXuiJ-24" value="NO" style="edgeLabel;html=1;align=center;verticalAlign=middle;resizable=0;points=[];" parent="_4IBZ-Op1HETno_acvwW-189" vertex="1" connectable="0">
          <mxGeometry x="-0.829" y="1" relative="1" as="geometry">
            <mxPoint as="offset" />
          </mxGeometry>
        </mxCell>
        <mxCell id="_4IBZ-Op1HETno_acvwW-129" value="" style="verticalLabelPosition=bottom;verticalAlign=top;html=1;shape=hexagon;perimeter=hexagonPerimeter2;arcSize=6;size=0.27;" parent="1" vertex="1">
          <mxGeometry x="1010" y="1640" width="220" height="130" as="geometry" />
        </mxCell>
        <mxCell id="_4IBZ-Op1HETno_acvwW-145" value="" style="edgeStyle=orthogonalEdgeStyle;rounded=0;orthogonalLoop=1;jettySize=auto;html=1;" parent="1" source="_4IBZ-Op1HETno_acvwW-130" target="_4IBZ-Op1HETno_acvwW-131" edge="1">
          <mxGeometry relative="1" as="geometry" />
        </mxCell>
        <mxCell id="M3nlvZfUeVR15v4jXuiJ-15" value="YES" style="edgeLabel;html=1;align=center;verticalAlign=middle;resizable=0;points=[];" parent="_4IBZ-Op1HETno_acvwW-145" vertex="1" connectable="0">
          <mxGeometry x="-0.0938" relative="1" as="geometry">
            <mxPoint as="offset" />
          </mxGeometry>
        </mxCell>
        <mxCell id="M3nlvZfUeVR15v4jXuiJ-30" style="edgeStyle=orthogonalEdgeStyle;rounded=0;orthogonalLoop=1;jettySize=auto;html=1;exitX=1;exitY=0.25;exitDx=0;exitDy=0;entryX=0;entryY=0.25;entryDx=0;entryDy=0;" parent="1" source="_4IBZ-Op1HETno_acvwW-130" target="_4IBZ-Op1HETno_acvwW-169" edge="1">
          <mxGeometry relative="1" as="geometry" />
        </mxCell>
        <mxCell id="M3nlvZfUeVR15v4jXuiJ-33" value="NO" style="edgeLabel;html=1;align=center;verticalAlign=middle;resizable=0;points=[];" parent="M3nlvZfUeVR15v4jXuiJ-30" vertex="1" connectable="0">
          <mxGeometry x="-0.0728" y="-1" relative="1" as="geometry">
            <mxPoint as="offset" />
          </mxGeometry>
        </mxCell>
        <mxCell id="_4IBZ-Op1HETno_acvwW-130" value="" style="verticalLabelPosition=middle;verticalAlign=middle;html=1;shape=trapezoid;perimeter=trapezoidPerimeter;whiteSpace=wrap;size=0.23;arcSize=10;flipV=1;labelPosition=center;align=center;" parent="1" vertex="1">
          <mxGeometry x="1025" y="1890" width="190" height="90" as="geometry" />
        </mxCell>
        <mxCell id="_4IBZ-Op1HETno_acvwW-146" value="" style="edgeStyle=orthogonalEdgeStyle;rounded=0;orthogonalLoop=1;jettySize=auto;html=1;" parent="1" source="_4IBZ-Op1HETno_acvwW-131" target="_4IBZ-Op1HETno_acvwW-132" edge="1">
          <mxGeometry relative="1" as="geometry" />
        </mxCell>
        <mxCell id="_4IBZ-Op1HETno_acvwW-131" value="Prepare an AIRAC AIP Supplement" style="rounded=1;whiteSpace=wrap;html=1;absoluteArcSize=1;arcSize=14;strokeWidth=2;" parent="1" vertex="1">
          <mxGeometry x="1012.5" y="2070" width="215" height="120" as="geometry" />
        </mxCell>
        <mxCell id="_4IBZ-Op1HETno_acvwW-147" value="" style="edgeStyle=orthogonalEdgeStyle;rounded=0;orthogonalLoop=1;jettySize=auto;html=1;" parent="1" source="_4IBZ-Op1HETno_acvwW-132" target="_4IBZ-Op1HETno_acvwW-133" edge="1">
          <mxGeometry relative="1" as="geometry" />
        </mxCell>
        <mxCell id="_4IBZ-Op1HETno_acvwW-132" value="Issue an AIRAC AIP Supplement" style="rounded=1;whiteSpace=wrap;html=1;absoluteArcSize=1;arcSize=14;strokeWidth=2;" parent="1" vertex="1">
          <mxGeometry x="1012.5" y="2270" width="215" height="120" as="geometry" />
        </mxCell>
        <mxCell id="_4IBZ-Op1HETno_acvwW-133" value="Issue trigger NOTAM" style="rounded=1;whiteSpace=wrap;html=1;absoluteArcSize=1;arcSize=14;strokeWidth=2;" parent="1" vertex="1">
          <mxGeometry x="1012.5" y="2480" width="215" height="120" as="geometry" />
        </mxCell>
        <mxCell id="_4IBZ-Op1HETno_acvwW-134" value="" style="endArrow=classic;html=1;rounded=0;exitX=0.5;exitY=1;exitDx=0;exitDy=0;entryX=0.5;entryY=0;entryDx=0;entryDy=0;" parent="1" source="_4IBZ-Op1HETno_acvwW-81" target="_4IBZ-Op1HETno_acvwW-121" edge="1">
          <mxGeometry width="50" height="50" relative="1" as="geometry">
            <mxPoint x="1110" y="180" as="sourcePoint" />
            <mxPoint x="1190" y="110" as="targetPoint" />
          </mxGeometry>
        </mxCell>
        <mxCell id="_4IBZ-Op1HETno_acvwW-151" value="" style="edgeStyle=orthogonalEdgeStyle;rounded=0;orthogonalLoop=1;jettySize=auto;html=1;" parent="1" source="_4IBZ-Op1HETno_acvwW-148" target="_4IBZ-Op1HETno_acvwW-149" edge="1">
          <mxGeometry relative="1" as="geometry" />
        </mxCell>
        <mxCell id="_4IBZ-Op1HETno_acvwW-148" value="Prepare an AIRAC" style="rounded=1;whiteSpace=wrap;html=1;absoluteArcSize=1;arcSize=14;strokeWidth=2;" parent="1" vertex="1">
          <mxGeometry x="1350" y="-35" width="215" height="120" as="geometry" />
        </mxCell>
        <mxCell id="_4IBZ-Op1HETno_acvwW-149" value="Issue an AIRAC" style="rounded=1;whiteSpace=wrap;html=1;absoluteArcSize=1;arcSize=14;strokeWidth=2;" parent="1" vertex="1">
          <mxGeometry x="1704" y="-35" width="215" height="120" as="geometry" />
        </mxCell>
        <mxCell id="_4IBZ-Op1HETno_acvwW-152" value="" style="swimlane;startSize=0;" parent="1" vertex="1">
          <mxGeometry x="1360" y="560" width="680" height="760" as="geometry" />
        </mxCell>
        <mxCell id="_4IBZ-Op1HETno_acvwW-160" value="" style="edgeStyle=orthogonalEdgeStyle;rounded=0;orthogonalLoop=1;jettySize=auto;html=1;" parent="_4IBZ-Op1HETno_acvwW-152" source="_4IBZ-Op1HETno_acvwW-153" target="_4IBZ-Op1HETno_acvwW-159" edge="1">
          <mxGeometry relative="1" as="geometry" />
        </mxCell>
        <mxCell id="M3nlvZfUeVR15v4jXuiJ-23" value="NO" style="edgeLabel;html=1;align=center;verticalAlign=middle;resizable=0;points=[];" parent="_4IBZ-Op1HETno_acvwW-160" vertex="1" connectable="0">
          <mxGeometry x="-0.1727" relative="1" as="geometry">
            <mxPoint as="offset" />
          </mxGeometry>
        </mxCell>
        <mxCell id="_4IBZ-Op1HETno_acvwW-153" value="" style="verticalLabelPosition=middle;verticalAlign=middle;html=1;shape=trapezoid;perimeter=trapezoidPerimeter;whiteSpace=wrap;size=0.23;arcSize=10;flipV=1;labelPosition=center;align=center;" parent="_4IBZ-Op1HETno_acvwW-152" vertex="1">
          <mxGeometry x="64" y="40" width="190" height="90" as="geometry" />
        </mxCell>
        <mxCell id="_4IBZ-Op1HETno_acvwW-156" value="" style="endArrow=none;html=1;rounded=0;entryX=0.5;entryY=1;entryDx=0;entryDy=0;" parent="_4IBZ-Op1HETno_acvwW-152" target="_4IBZ-Op1HETno_acvwW-153" edge="1">
          <mxGeometry width="50" height="50" relative="1" as="geometry">
            <mxPoint x="160" y="280" as="sourcePoint" />
            <mxPoint x="210" y="230" as="targetPoint" />
          </mxGeometry>
        </mxCell>
        <mxCell id="M3nlvZfUeVR15v4jXuiJ-22" value="YES" style="edgeLabel;html=1;align=center;verticalAlign=middle;resizable=0;points=[];" parent="_4IBZ-Op1HETno_acvwW-156" vertex="1" connectable="0">
          <mxGeometry x="0.0699" y="1" relative="1" as="geometry">
            <mxPoint as="offset" />
          </mxGeometry>
        </mxCell>
        <mxCell id="_4IBZ-Op1HETno_acvwW-164" value="" style="edgeStyle=orthogonalEdgeStyle;rounded=0;orthogonalLoop=1;jettySize=auto;html=1;" parent="_4IBZ-Op1HETno_acvwW-152" source="_4IBZ-Op1HETno_acvwW-159" target="_4IBZ-Op1HETno_acvwW-161" edge="1">
          <mxGeometry relative="1" as="geometry" />
        </mxCell>
        <mxCell id="_4IBZ-Op1HETno_acvwW-159" value="Issue NOTAM" style="rounded=1;whiteSpace=wrap;html=1;arcSize=10;" parent="_4IBZ-Op1HETno_acvwW-152" vertex="1">
          <mxGeometry x="390" y="27.5" width="191" height="115" as="geometry" />
        </mxCell>
        <mxCell id="_4IBZ-Op1HETno_acvwW-165" value="" style="edgeStyle=orthogonalEdgeStyle;rounded=0;orthogonalLoop=1;jettySize=auto;html=1;" parent="_4IBZ-Op1HETno_acvwW-152" source="_4IBZ-Op1HETno_acvwW-161" target="_4IBZ-Op1HETno_acvwW-162" edge="1">
          <mxGeometry relative="1" as="geometry" />
        </mxCell>
        <mxCell id="_4IBZ-Op1HETno_acvwW-161" value="Prepare an AIP Amendment" style="rounded=1;whiteSpace=wrap;html=1;arcSize=10;" parent="_4IBZ-Op1HETno_acvwW-152" vertex="1">
          <mxGeometry x="390" y="210" width="191" height="115" as="geometry" />
        </mxCell>
        <mxCell id="_4IBZ-Op1HETno_acvwW-166" value="" style="edgeStyle=orthogonalEdgeStyle;rounded=0;orthogonalLoop=1;jettySize=auto;html=1;" parent="_4IBZ-Op1HETno_acvwW-152" source="_4IBZ-Op1HETno_acvwW-162" target="_4IBZ-Op1HETno_acvwW-163" edge="1">
          <mxGeometry relative="1" as="geometry" />
        </mxCell>
        <mxCell id="_4IBZ-Op1HETno_acvwW-162" value="Issue an AIP Amendment" style="rounded=1;whiteSpace=wrap;html=1;arcSize=10;" parent="_4IBZ-Op1HETno_acvwW-152" vertex="1">
          <mxGeometry x="390" y="400" width="191" height="115" as="geometry" />
        </mxCell>
        <mxCell id="_4IBZ-Op1HETno_acvwW-163" value="Issue NOTAMC" style="rounded=1;whiteSpace=wrap;html=1;arcSize=10;" parent="_4IBZ-Op1HETno_acvwW-152" vertex="1">
          <mxGeometry x="390" y="590" width="191" height="115" as="geometry" />
        </mxCell>
        <mxCell id="_4IBZ-Op1HETno_acvwW-420" value="" style="endArrow=none;html=1;rounded=0;" parent="_4IBZ-Op1HETno_acvwW-152" edge="1">
          <mxGeometry width="50" height="50" relative="1" as="geometry">
            <mxPoint x="390" y="56.5" as="sourcePoint" />
            <mxPoint x="581" y="56.5" as="targetPoint" />
          </mxGeometry>
        </mxCell>
        <mxCell id="_4IBZ-Op1HETno_acvwW-421" value="" style="endArrow=none;html=1;rounded=0;entryX=0.5;entryY=0;entryDx=0;entryDy=0;" parent="_4IBZ-Op1HETno_acvwW-152" edge="1">
          <mxGeometry width="50" height="50" relative="1" as="geometry">
            <mxPoint x="488" y="56.5" as="sourcePoint" />
            <mxPoint x="487.97000000000025" y="27.5" as="targetPoint" />
          </mxGeometry>
        </mxCell>
        <mxCell id="_4IBZ-Op1HETno_acvwW-422" value="" style="endArrow=none;html=1;rounded=0;" parent="_4IBZ-Op1HETno_acvwW-152" edge="1">
          <mxGeometry width="50" height="50" relative="1" as="geometry">
            <mxPoint x="390" y="239" as="sourcePoint" />
            <mxPoint x="581" y="239" as="targetPoint" />
          </mxGeometry>
        </mxCell>
        <mxCell id="_4IBZ-Op1HETno_acvwW-423" value="" style="endArrow=none;html=1;rounded=0;entryX=0.5;entryY=0;entryDx=0;entryDy=0;" parent="_4IBZ-Op1HETno_acvwW-152" edge="1">
          <mxGeometry width="50" height="50" relative="1" as="geometry">
            <mxPoint x="488" y="239" as="sourcePoint" />
            <mxPoint x="487.97000000000025" y="210" as="targetPoint" />
          </mxGeometry>
        </mxCell>
        <mxCell id="_4IBZ-Op1HETno_acvwW-424" value="" style="endArrow=none;html=1;rounded=0;" parent="_4IBZ-Op1HETno_acvwW-152" edge="1">
          <mxGeometry width="50" height="50" relative="1" as="geometry">
            <mxPoint x="390" y="429" as="sourcePoint" />
            <mxPoint x="581" y="429" as="targetPoint" />
          </mxGeometry>
        </mxCell>
        <mxCell id="_4IBZ-Op1HETno_acvwW-425" value="" style="endArrow=none;html=1;rounded=0;entryX=0.5;entryY=0;entryDx=0;entryDy=0;" parent="_4IBZ-Op1HETno_acvwW-152" edge="1">
          <mxGeometry width="50" height="50" relative="1" as="geometry">
            <mxPoint x="488" y="429" as="sourcePoint" />
            <mxPoint x="487.97000000000025" y="400" as="targetPoint" />
          </mxGeometry>
        </mxCell>
        <mxCell id="_4IBZ-Op1HETno_acvwW-426" value="" style="endArrow=none;html=1;rounded=0;" parent="_4IBZ-Op1HETno_acvwW-152" edge="1">
          <mxGeometry width="50" height="50" relative="1" as="geometry">
            <mxPoint x="390" y="619" as="sourcePoint" />
            <mxPoint x="581" y="619" as="targetPoint" />
          </mxGeometry>
        </mxCell>
        <mxCell id="_4IBZ-Op1HETno_acvwW-427" value="" style="endArrow=none;html=1;rounded=0;entryX=0.5;entryY=0;entryDx=0;entryDy=0;" parent="_4IBZ-Op1HETno_acvwW-152" edge="1">
          <mxGeometry width="50" height="50" relative="1" as="geometry">
            <mxPoint x="488" y="619" as="sourcePoint" />
            <mxPoint x="487.97000000000025" y="590" as="targetPoint" />
          </mxGeometry>
        </mxCell>
        <mxCell id="_4IBZ-Op1HETno_acvwW-450" value="" style="endArrow=none;html=1;rounded=0;" parent="_4IBZ-Op1HETno_acvwW-152" edge="1">
          <mxGeometry width="50" height="50" relative="1" as="geometry">
            <mxPoint x="80" y="69" as="sourcePoint" />
            <mxPoint x="240" y="69" as="targetPoint" />
          </mxGeometry>
        </mxCell>
        <mxCell id="_4IBZ-Op1HETno_acvwW-451" value="" style="endArrow=none;html=1;rounded=0;entryX=0.5;entryY=0;entryDx=0;entryDy=0;" parent="_4IBZ-Op1HETno_acvwW-152" edge="1">
          <mxGeometry width="50" height="50" relative="1" as="geometry">
            <mxPoint x="161" y="69" as="sourcePoint" />
            <mxPoint x="160.97000000000003" y="40" as="targetPoint" />
          </mxGeometry>
        </mxCell>
        <mxCell id="_4IBZ-Op1HETno_acvwW-518" value="&lt;span style=&quot;font-size: 13px;&quot;&gt;2 - 9&lt;/span&gt;" style="text;html=1;strokeColor=none;fillColor=none;align=center;verticalAlign=middle;whiteSpace=wrap;rounded=0;" parent="_4IBZ-Op1HETno_acvwW-152" vertex="1">
          <mxGeometry x="90" y="50" width="51" height="14" as="geometry" />
        </mxCell>
        <mxCell id="_4IBZ-Op1HETno_acvwW-519" value="&lt;span style=&quot;font-size: 13px;&quot;&gt;SDP / 8&lt;/span&gt;" style="text;html=1;strokeColor=none;fillColor=none;align=center;verticalAlign=middle;whiteSpace=wrap;rounded=0;" parent="_4IBZ-Op1HETno_acvwW-152" vertex="1">
          <mxGeometry x="170" y="50" width="51" height="14" as="geometry" />
        </mxCell>
        <mxCell id="_4IBZ-Op1HETno_acvwW-520" value="&lt;span style=&quot;font-size: 13px;&quot;&gt;2 - 10&lt;/span&gt;" style="text;html=1;strokeColor=none;fillColor=none;align=center;verticalAlign=middle;whiteSpace=wrap;rounded=0;" parent="_4IBZ-Op1HETno_acvwW-152" vertex="1">
          <mxGeometry x="420" y="36" width="51" height="14" as="geometry" />
        </mxCell>
        <mxCell id="_4IBZ-Op1HETno_acvwW-521" value="&lt;span style=&quot;font-size: 13px;&quot;&gt;SDP / 6&lt;/span&gt;" style="text;html=1;strokeColor=none;fillColor=none;align=center;verticalAlign=middle;whiteSpace=wrap;rounded=0;" parent="_4IBZ-Op1HETno_acvwW-152" vertex="1">
          <mxGeometry x="500" y="36" width="51" height="14" as="geometry" />
        </mxCell>
        <mxCell id="_4IBZ-Op1HETno_acvwW-528" value="&lt;span style=&quot;font-size: 13px;&quot;&gt;2 - 11&lt;/span&gt;" style="text;html=1;strokeColor=none;fillColor=none;align=center;verticalAlign=middle;whiteSpace=wrap;rounded=0;" parent="_4IBZ-Op1HETno_acvwW-152" vertex="1">
          <mxGeometry x="420" y="220" width="51" height="14" as="geometry" />
        </mxCell>
        <mxCell id="_4IBZ-Op1HETno_acvwW-529" value="&lt;span style=&quot;font-size: 13px;&quot;&gt;SDP / 9&lt;/span&gt;" style="text;html=1;strokeColor=none;fillColor=none;align=center;verticalAlign=middle;whiteSpace=wrap;rounded=0;" parent="_4IBZ-Op1HETno_acvwW-152" vertex="1">
          <mxGeometry x="510" y="220" width="51" height="14" as="geometry" />
        </mxCell>
        <mxCell id="_4IBZ-Op1HETno_acvwW-530" value="&lt;span style=&quot;font-size: 13px;&quot;&gt;2 - 12&lt;/span&gt;" style="text;html=1;strokeColor=none;fillColor=none;align=center;verticalAlign=middle;whiteSpace=wrap;rounded=0;" parent="_4IBZ-Op1HETno_acvwW-152" vertex="1">
          <mxGeometry x="420" y="410" width="51" height="14" as="geometry" />
        </mxCell>
        <mxCell id="_4IBZ-Op1HETno_acvwW-531" value="&lt;span style=&quot;font-size: 13px;&quot;&gt;SDP / 13&lt;/span&gt;" style="text;html=1;strokeColor=none;fillColor=none;align=center;verticalAlign=middle;whiteSpace=wrap;rounded=0;" parent="_4IBZ-Op1HETno_acvwW-152" vertex="1">
          <mxGeometry x="500" y="410" width="60" height="14" as="geometry" />
        </mxCell>
        <mxCell id="_4IBZ-Op1HETno_acvwW-532" value="&lt;span style=&quot;font-size: 13px;&quot;&gt;2 - 13&lt;/span&gt;" style="text;html=1;strokeColor=none;fillColor=none;align=center;verticalAlign=middle;whiteSpace=wrap;rounded=0;" parent="_4IBZ-Op1HETno_acvwW-152" vertex="1">
          <mxGeometry x="410" y="600" width="51" height="14" as="geometry" />
        </mxCell>
        <mxCell id="_4IBZ-Op1HETno_acvwW-534" value="&lt;span style=&quot;font-size: 13px;&quot;&gt;SDP / 13&lt;/span&gt;" style="text;html=1;strokeColor=none;fillColor=none;align=center;verticalAlign=middle;whiteSpace=wrap;rounded=0;" parent="_4IBZ-Op1HETno_acvwW-152" vertex="1">
          <mxGeometry x="510" y="600" width="60" height="14" as="geometry" />
        </mxCell>
        <mxCell id="M3nlvZfUeVR15v4jXuiJ-21" value="&lt;font style=&quot;font-size: 10px;&quot;&gt;Can the effective date be renegotiated to meet AIRAC?&lt;/font&gt;" style="text;html=1;strokeColor=none;fillColor=none;align=center;verticalAlign=middle;whiteSpace=wrap;rounded=0;" parent="_4IBZ-Op1HETno_acvwW-152" vertex="1">
          <mxGeometry x="103" y="81" width="112" height="19" as="geometry" />
        </mxCell>
        <mxCell id="_4IBZ-Op1HETno_acvwW-157" value="" style="endArrow=classic;html=1;rounded=0;entryX=1;entryY=0.5;entryDx=0;entryDy=0;" parent="1" target="_4IBZ-Op1HETno_acvwW-125" edge="1">
          <mxGeometry width="50" height="50" relative="1" as="geometry">
            <mxPoint x="1520" y="840" as="sourcePoint" />
            <mxPoint x="1660" y="850" as="targetPoint" />
          </mxGeometry>
        </mxCell>
        <mxCell id="_4IBZ-Op1HETno_acvwW-167" value="" style="swimlane;startSize=0;" parent="1" vertex="1">
          <mxGeometry x="1360" y="1840" width="920" height="1040" as="geometry" />
        </mxCell>
        <mxCell id="_4IBZ-Op1HETno_acvwW-169" value="" style="verticalLabelPosition=middle;verticalAlign=middle;html=1;shape=trapezoid;perimeter=trapezoidPerimeter;whiteSpace=wrap;size=0.23;arcSize=10;flipV=1;labelPosition=center;align=center;" parent="_4IBZ-Op1HETno_acvwW-167" vertex="1">
          <mxGeometry x="74" y="49.5" width="190" height="90" as="geometry" />
        </mxCell>
        <mxCell id="_4IBZ-Op1HETno_acvwW-172" value="Issue NOTAM" style="rounded=1;whiteSpace=wrap;html=1;arcSize=10;" parent="_4IBZ-Op1HETno_acvwW-167" vertex="1">
          <mxGeometry x="400" y="36" width="191" height="115" as="geometry" />
        </mxCell>
        <mxCell id="_4IBZ-Op1HETno_acvwW-168" value="" style="edgeStyle=orthogonalEdgeStyle;rounded=0;orthogonalLoop=1;jettySize=auto;html=1;" parent="_4IBZ-Op1HETno_acvwW-167" source="_4IBZ-Op1HETno_acvwW-169" target="_4IBZ-Op1HETno_acvwW-172" edge="1">
          <mxGeometry relative="1" as="geometry" />
        </mxCell>
        <mxCell id="M3nlvZfUeVR15v4jXuiJ-35" value="NO" style="edgeLabel;html=1;align=center;verticalAlign=middle;resizable=0;points=[];" parent="_4IBZ-Op1HETno_acvwW-168" vertex="1" connectable="0">
          <mxGeometry x="-0.2141" y="2" relative="1" as="geometry">
            <mxPoint as="offset" />
          </mxGeometry>
        </mxCell>
        <mxCell id="_4IBZ-Op1HETno_acvwW-174" value="Prepare an AIP Supplement" style="rounded=1;whiteSpace=wrap;html=1;arcSize=10;" parent="_4IBZ-Op1HETno_acvwW-167" vertex="1">
          <mxGeometry x="400" y="216.5" width="191" height="115" as="geometry" />
        </mxCell>
        <mxCell id="_4IBZ-Op1HETno_acvwW-171" value="" style="edgeStyle=orthogonalEdgeStyle;rounded=0;orthogonalLoop=1;jettySize=auto;html=1;" parent="_4IBZ-Op1HETno_acvwW-167" source="_4IBZ-Op1HETno_acvwW-172" target="_4IBZ-Op1HETno_acvwW-174" edge="1">
          <mxGeometry relative="1" as="geometry" />
        </mxCell>
        <mxCell id="_4IBZ-Op1HETno_acvwW-176" value="Issue an AIP Supplement" style="rounded=1;whiteSpace=wrap;html=1;arcSize=10;" parent="_4IBZ-Op1HETno_acvwW-167" vertex="1">
          <mxGeometry x="400" y="406.5" width="191" height="115" as="geometry" />
        </mxCell>
        <mxCell id="_4IBZ-Op1HETno_acvwW-173" value="" style="edgeStyle=orthogonalEdgeStyle;rounded=0;orthogonalLoop=1;jettySize=auto;html=1;" parent="_4IBZ-Op1HETno_acvwW-167" source="_4IBZ-Op1HETno_acvwW-174" target="_4IBZ-Op1HETno_acvwW-176" edge="1">
          <mxGeometry relative="1" as="geometry" />
        </mxCell>
        <mxCell id="_4IBZ-Op1HETno_acvwW-177" value="Issue trigger NOTAM" style="rounded=1;whiteSpace=wrap;html=1;arcSize=10;" parent="_4IBZ-Op1HETno_acvwW-167" vertex="1">
          <mxGeometry x="400" y="596.5" width="191" height="115" as="geometry" />
        </mxCell>
        <mxCell id="_4IBZ-Op1HETno_acvwW-175" value="" style="edgeStyle=orthogonalEdgeStyle;rounded=0;orthogonalLoop=1;jettySize=auto;html=1;" parent="_4IBZ-Op1HETno_acvwW-167" source="_4IBZ-Op1HETno_acvwW-176" target="_4IBZ-Op1HETno_acvwW-177" edge="1">
          <mxGeometry relative="1" as="geometry" />
        </mxCell>
        <mxCell id="_4IBZ-Op1HETno_acvwW-178" value="Issue NOTAMC" style="rounded=1;whiteSpace=wrap;html=1;arcSize=10;" parent="_4IBZ-Op1HETno_acvwW-167" vertex="1">
          <mxGeometry x="401" y="786" width="191" height="115" as="geometry" />
        </mxCell>
        <mxCell id="_4IBZ-Op1HETno_acvwW-179" value="" style="edgeStyle=orthogonalEdgeStyle;rounded=0;orthogonalLoop=1;jettySize=auto;html=1;" parent="_4IBZ-Op1HETno_acvwW-167" target="_4IBZ-Op1HETno_acvwW-178" edge="1">
          <mxGeometry relative="1" as="geometry">
            <mxPoint x="496" y="711.5" as="sourcePoint" />
          </mxGeometry>
        </mxCell>
        <mxCell id="_4IBZ-Op1HETno_acvwW-181" value="Issue NOTAM" style="rounded=1;whiteSpace=wrap;html=1;arcSize=10;" parent="_4IBZ-Op1HETno_acvwW-167" vertex="1">
          <mxGeometry x="680" y="34" width="191" height="115" as="geometry" />
        </mxCell>
        <mxCell id="_4IBZ-Op1HETno_acvwW-182" value="Prepare an AIP Supplement" style="rounded=1;whiteSpace=wrap;html=1;arcSize=10;" parent="_4IBZ-Op1HETno_acvwW-167" vertex="1">
          <mxGeometry x="680" y="216.5" width="191" height="115" as="geometry" />
        </mxCell>
        <mxCell id="_4IBZ-Op1HETno_acvwW-183" value="" style="edgeStyle=orthogonalEdgeStyle;rounded=0;orthogonalLoop=1;jettySize=auto;html=1;" parent="_4IBZ-Op1HETno_acvwW-167" source="_4IBZ-Op1HETno_acvwW-181" target="_4IBZ-Op1HETno_acvwW-182" edge="1">
          <mxGeometry relative="1" as="geometry" />
        </mxCell>
        <mxCell id="_4IBZ-Op1HETno_acvwW-184" value="Issue an AIP Supplement" style="rounded=1;whiteSpace=wrap;html=1;arcSize=10;" parent="_4IBZ-Op1HETno_acvwW-167" vertex="1">
          <mxGeometry x="680" y="406.5" width="191" height="115" as="geometry" />
        </mxCell>
        <mxCell id="_4IBZ-Op1HETno_acvwW-185" value="" style="edgeStyle=orthogonalEdgeStyle;rounded=0;orthogonalLoop=1;jettySize=auto;html=1;" parent="_4IBZ-Op1HETno_acvwW-167" source="_4IBZ-Op1HETno_acvwW-182" target="_4IBZ-Op1HETno_acvwW-184" edge="1">
          <mxGeometry relative="1" as="geometry" />
        </mxCell>
        <mxCell id="_4IBZ-Op1HETno_acvwW-186" value="Issue NOTAMC" style="rounded=1;whiteSpace=wrap;html=1;arcSize=10;" parent="_4IBZ-Op1HETno_acvwW-167" vertex="1">
          <mxGeometry x="680" y="596.5" width="191" height="115" as="geometry" />
        </mxCell>
        <mxCell id="_4IBZ-Op1HETno_acvwW-187" value="" style="edgeStyle=orthogonalEdgeStyle;rounded=0;orthogonalLoop=1;jettySize=auto;html=1;" parent="_4IBZ-Op1HETno_acvwW-167" source="_4IBZ-Op1HETno_acvwW-184" target="_4IBZ-Op1HETno_acvwW-186" edge="1">
          <mxGeometry relative="1" as="geometry" />
        </mxCell>
        <mxCell id="_4IBZ-Op1HETno_acvwW-368" value="" style="endArrow=none;html=1;rounded=0;" parent="_4IBZ-Op1HETno_acvwW-167" edge="1">
          <mxGeometry width="50" height="50" relative="1" as="geometry">
            <mxPoint x="400" y="63" as="sourcePoint" />
            <mxPoint x="591" y="63" as="targetPoint" />
          </mxGeometry>
        </mxCell>
        <mxCell id="_4IBZ-Op1HETno_acvwW-369" value="" style="endArrow=none;html=1;rounded=0;entryX=0.5;entryY=0;entryDx=0;entryDy=0;" parent="_4IBZ-Op1HETno_acvwW-167" edge="1">
          <mxGeometry width="50" height="50" relative="1" as="geometry">
            <mxPoint x="498" y="63" as="sourcePoint" />
            <mxPoint x="497.97000000000025" y="34" as="targetPoint" />
          </mxGeometry>
        </mxCell>
        <mxCell id="_4IBZ-Op1HETno_acvwW-370" value="" style="endArrow=none;html=1;rounded=0;" parent="_4IBZ-Op1HETno_acvwW-167" edge="1">
          <mxGeometry width="50" height="50" relative="1" as="geometry">
            <mxPoint x="680" y="63" as="sourcePoint" />
            <mxPoint x="871" y="63" as="targetPoint" />
          </mxGeometry>
        </mxCell>
        <mxCell id="_4IBZ-Op1HETno_acvwW-371" value="" style="endArrow=none;html=1;rounded=0;entryX=0.5;entryY=0;entryDx=0;entryDy=0;" parent="_4IBZ-Op1HETno_acvwW-167" edge="1">
          <mxGeometry width="50" height="50" relative="1" as="geometry">
            <mxPoint x="778" y="63" as="sourcePoint" />
            <mxPoint x="777.9700000000003" y="34" as="targetPoint" />
          </mxGeometry>
        </mxCell>
        <mxCell id="_4IBZ-Op1HETno_acvwW-372" value="" style="endArrow=none;html=1;rounded=0;" parent="_4IBZ-Op1HETno_acvwW-167" edge="1">
          <mxGeometry width="50" height="50" relative="1" as="geometry">
            <mxPoint x="400" y="245.5" as="sourcePoint" />
            <mxPoint x="591" y="245.5" as="targetPoint" />
          </mxGeometry>
        </mxCell>
        <mxCell id="_4IBZ-Op1HETno_acvwW-373" value="" style="endArrow=none;html=1;rounded=0;entryX=0.5;entryY=0;entryDx=0;entryDy=0;" parent="_4IBZ-Op1HETno_acvwW-167" edge="1">
          <mxGeometry width="50" height="50" relative="1" as="geometry">
            <mxPoint x="498" y="245.5" as="sourcePoint" />
            <mxPoint x="497.97000000000025" y="216.5" as="targetPoint" />
          </mxGeometry>
        </mxCell>
        <mxCell id="_4IBZ-Op1HETno_acvwW-374" value="" style="endArrow=none;html=1;rounded=0;" parent="_4IBZ-Op1HETno_acvwW-167" edge="1">
          <mxGeometry width="50" height="50" relative="1" as="geometry">
            <mxPoint x="680" y="245.5" as="sourcePoint" />
            <mxPoint x="871" y="245.5" as="targetPoint" />
          </mxGeometry>
        </mxCell>
        <mxCell id="_4IBZ-Op1HETno_acvwW-375" value="" style="endArrow=none;html=1;rounded=0;entryX=0.5;entryY=0;entryDx=0;entryDy=0;" parent="_4IBZ-Op1HETno_acvwW-167" edge="1">
          <mxGeometry width="50" height="50" relative="1" as="geometry">
            <mxPoint x="778" y="245.5" as="sourcePoint" />
            <mxPoint x="777.9700000000003" y="216.5" as="targetPoint" />
          </mxGeometry>
        </mxCell>
        <mxCell id="_4IBZ-Op1HETno_acvwW-376" value="" style="endArrow=none;html=1;rounded=0;" parent="_4IBZ-Op1HETno_acvwW-167" edge="1">
          <mxGeometry width="50" height="50" relative="1" as="geometry">
            <mxPoint x="400" y="435.5" as="sourcePoint" />
            <mxPoint x="591" y="435.5" as="targetPoint" />
          </mxGeometry>
        </mxCell>
        <mxCell id="_4IBZ-Op1HETno_acvwW-377" value="" style="endArrow=none;html=1;rounded=0;entryX=0.5;entryY=0;entryDx=0;entryDy=0;" parent="_4IBZ-Op1HETno_acvwW-167" edge="1">
          <mxGeometry width="50" height="50" relative="1" as="geometry">
            <mxPoint x="498" y="435.5" as="sourcePoint" />
            <mxPoint x="497.97000000000025" y="406.5" as="targetPoint" />
          </mxGeometry>
        </mxCell>
        <mxCell id="_4IBZ-Op1HETno_acvwW-378" value="" style="endArrow=none;html=1;rounded=0;" parent="_4IBZ-Op1HETno_acvwW-167" edge="1">
          <mxGeometry width="50" height="50" relative="1" as="geometry">
            <mxPoint x="680" y="435.5" as="sourcePoint" />
            <mxPoint x="871" y="435.5" as="targetPoint" />
          </mxGeometry>
        </mxCell>
        <mxCell id="_4IBZ-Op1HETno_acvwW-379" value="" style="endArrow=none;html=1;rounded=0;entryX=0.5;entryY=0;entryDx=0;entryDy=0;" parent="_4IBZ-Op1HETno_acvwW-167" edge="1">
          <mxGeometry width="50" height="50" relative="1" as="geometry">
            <mxPoint x="778" y="435.5" as="sourcePoint" />
            <mxPoint x="777.9700000000003" y="406.5" as="targetPoint" />
          </mxGeometry>
        </mxCell>
        <mxCell id="_4IBZ-Op1HETno_acvwW-380" value="" style="endArrow=none;html=1;rounded=0;" parent="_4IBZ-Op1HETno_acvwW-167" edge="1">
          <mxGeometry width="50" height="50" relative="1" as="geometry">
            <mxPoint x="400" y="625.5" as="sourcePoint" />
            <mxPoint x="591" y="625.5" as="targetPoint" />
          </mxGeometry>
        </mxCell>
        <mxCell id="_4IBZ-Op1HETno_acvwW-381" value="" style="endArrow=none;html=1;rounded=0;entryX=0.5;entryY=0;entryDx=0;entryDy=0;" parent="_4IBZ-Op1HETno_acvwW-167" edge="1">
          <mxGeometry width="50" height="50" relative="1" as="geometry">
            <mxPoint x="498" y="625.5" as="sourcePoint" />
            <mxPoint x="497.97000000000025" y="596.5" as="targetPoint" />
          </mxGeometry>
        </mxCell>
        <mxCell id="_4IBZ-Op1HETno_acvwW-382" value="" style="endArrow=none;html=1;rounded=0;" parent="_4IBZ-Op1HETno_acvwW-167" edge="1">
          <mxGeometry width="50" height="50" relative="1" as="geometry">
            <mxPoint x="680" y="625.5" as="sourcePoint" />
            <mxPoint x="871" y="625.5" as="targetPoint" />
          </mxGeometry>
        </mxCell>
        <mxCell id="_4IBZ-Op1HETno_acvwW-383" value="" style="endArrow=none;html=1;rounded=0;entryX=0.5;entryY=0;entryDx=0;entryDy=0;" parent="_4IBZ-Op1HETno_acvwW-167" edge="1">
          <mxGeometry width="50" height="50" relative="1" as="geometry">
            <mxPoint x="778" y="625.5" as="sourcePoint" />
            <mxPoint x="777.9700000000003" y="596.5" as="targetPoint" />
          </mxGeometry>
        </mxCell>
        <mxCell id="_4IBZ-Op1HETno_acvwW-384" value="" style="endArrow=none;html=1;rounded=0;" parent="_4IBZ-Op1HETno_acvwW-167" edge="1">
          <mxGeometry width="50" height="50" relative="1" as="geometry">
            <mxPoint x="400" y="815" as="sourcePoint" />
            <mxPoint x="591" y="815" as="targetPoint" />
          </mxGeometry>
        </mxCell>
        <mxCell id="_4IBZ-Op1HETno_acvwW-385" value="" style="endArrow=none;html=1;rounded=0;entryX=0.5;entryY=0;entryDx=0;entryDy=0;" parent="_4IBZ-Op1HETno_acvwW-167" edge="1">
          <mxGeometry width="50" height="50" relative="1" as="geometry">
            <mxPoint x="498" y="815" as="sourcePoint" />
            <mxPoint x="497.97000000000025" y="786" as="targetPoint" />
          </mxGeometry>
        </mxCell>
        <mxCell id="_4IBZ-Op1HETno_acvwW-452" value="" style="endArrow=none;html=1;rounded=0;" parent="_4IBZ-Op1HETno_acvwW-167" edge="1">
          <mxGeometry width="50" height="50" relative="1" as="geometry">
            <mxPoint x="89" y="75.5" as="sourcePoint" />
            <mxPoint x="249" y="75.5" as="targetPoint" />
          </mxGeometry>
        </mxCell>
        <mxCell id="_4IBZ-Op1HETno_acvwW-453" value="" style="endArrow=none;html=1;rounded=0;entryX=0.5;entryY=0;entryDx=0;entryDy=0;" parent="_4IBZ-Op1HETno_acvwW-167" edge="1">
          <mxGeometry width="50" height="50" relative="1" as="geometry">
            <mxPoint x="170" y="75.5" as="sourcePoint" />
            <mxPoint x="169.97000000000003" y="46.5" as="targetPoint" />
          </mxGeometry>
        </mxCell>
        <mxCell id="_4IBZ-Op1HETno_acvwW-588" value="&lt;span style=&quot;font-size: 13px;&quot;&gt;2 - 25&lt;/span&gt;" style="text;html=1;strokeColor=none;fillColor=none;align=center;verticalAlign=middle;whiteSpace=wrap;rounded=0;" parent="_4IBZ-Op1HETno_acvwW-167" vertex="1">
          <mxGeometry x="108" y="55" width="51" height="14" as="geometry" />
        </mxCell>
        <mxCell id="_4IBZ-Op1HETno_acvwW-589" value="&lt;span style=&quot;font-size: 13px;&quot;&gt;SDP / 8&lt;/span&gt;" style="text;html=1;strokeColor=none;fillColor=none;align=center;verticalAlign=middle;whiteSpace=wrap;rounded=0;" parent="_4IBZ-Op1HETno_acvwW-167" vertex="1">
          <mxGeometry x="190" y="55" width="51" height="14" as="geometry" />
        </mxCell>
        <mxCell id="_4IBZ-Op1HETno_acvwW-591" value="&lt;span style=&quot;font-size: 13px;&quot;&gt;2 - 26&lt;/span&gt;" style="text;html=1;strokeColor=none;fillColor=none;align=center;verticalAlign=middle;whiteSpace=wrap;rounded=0;" parent="_4IBZ-Op1HETno_acvwW-167" vertex="1">
          <mxGeometry x="430" y="41" width="51" height="14" as="geometry" />
        </mxCell>
        <mxCell id="_4IBZ-Op1HETno_acvwW-590" value="&lt;span style=&quot;font-size: 13px;&quot;&gt;SDP / 6&lt;/span&gt;" style="text;html=1;strokeColor=none;fillColor=none;align=center;verticalAlign=middle;whiteSpace=wrap;rounded=0;" parent="_4IBZ-Op1HETno_acvwW-167" vertex="1">
          <mxGeometry x="520" y="41" width="51" height="14" as="geometry" />
        </mxCell>
        <mxCell id="_4IBZ-Op1HETno_acvwW-592" value="&lt;span style=&quot;font-size: 13px;&quot;&gt;2 - 27&lt;/span&gt;" style="text;html=1;strokeColor=none;fillColor=none;align=center;verticalAlign=middle;whiteSpace=wrap;rounded=0;" parent="_4IBZ-Op1HETno_acvwW-167" vertex="1">
          <mxGeometry x="430" y="227" width="51" height="14" as="geometry" />
        </mxCell>
        <mxCell id="_4IBZ-Op1HETno_acvwW-593" value="&lt;span style=&quot;font-size: 13px;&quot;&gt;SDP / 10&lt;/span&gt;" style="text;html=1;strokeColor=none;fillColor=none;align=center;verticalAlign=middle;whiteSpace=wrap;rounded=0;" parent="_4IBZ-Op1HETno_acvwW-167" vertex="1">
          <mxGeometry x="510" y="227" width="60" height="14" as="geometry" />
        </mxCell>
        <mxCell id="_4IBZ-Op1HETno_acvwW-594" value="&lt;span style=&quot;font-size: 13px;&quot;&gt;2 - 28&lt;/span&gt;" style="text;html=1;strokeColor=none;fillColor=none;align=center;verticalAlign=middle;whiteSpace=wrap;rounded=0;" parent="_4IBZ-Op1HETno_acvwW-167" vertex="1">
          <mxGeometry x="426" y="414" width="51" height="14" as="geometry" />
        </mxCell>
        <mxCell id="_4IBZ-Op1HETno_acvwW-595" value="&lt;span style=&quot;font-size: 13px;&quot;&gt;SDP / 13&lt;/span&gt;" style="text;html=1;strokeColor=none;fillColor=none;align=center;verticalAlign=middle;whiteSpace=wrap;rounded=0;" parent="_4IBZ-Op1HETno_acvwW-167" vertex="1">
          <mxGeometry x="510" y="414" width="60" height="14" as="geometry" />
        </mxCell>
        <mxCell id="_4IBZ-Op1HETno_acvwW-596" value="&lt;span style=&quot;font-size: 13px;&quot;&gt;2 - 29&lt;/span&gt;" style="text;html=1;strokeColor=none;fillColor=none;align=center;verticalAlign=middle;whiteSpace=wrap;rounded=0;" parent="_4IBZ-Op1HETno_acvwW-167" vertex="1">
          <mxGeometry x="423" y="606" width="51" height="14" as="geometry" />
        </mxCell>
        <mxCell id="_4IBZ-Op1HETno_acvwW-597" value="&lt;span style=&quot;font-size: 13px;&quot;&gt;SDP / 13&lt;/span&gt;" style="text;html=1;strokeColor=none;fillColor=none;align=center;verticalAlign=middle;whiteSpace=wrap;rounded=0;" parent="_4IBZ-Op1HETno_acvwW-167" vertex="1">
          <mxGeometry x="510" y="606" width="60" height="14" as="geometry" />
        </mxCell>
        <mxCell id="_4IBZ-Op1HETno_acvwW-598" value="&lt;span style=&quot;font-size: 13px;&quot;&gt;2 - 30&lt;/span&gt;" style="text;html=1;strokeColor=none;fillColor=none;align=center;verticalAlign=middle;whiteSpace=wrap;rounded=0;" parent="_4IBZ-Op1HETno_acvwW-167" vertex="1">
          <mxGeometry x="424" y="792" width="51" height="14" as="geometry" />
        </mxCell>
        <mxCell id="_4IBZ-Op1HETno_acvwW-600" value="&lt;span style=&quot;font-size: 13px;&quot;&gt;SDP / 13&lt;/span&gt;" style="text;html=1;strokeColor=none;fillColor=none;align=center;verticalAlign=middle;whiteSpace=wrap;rounded=0;" parent="_4IBZ-Op1HETno_acvwW-167" vertex="1">
          <mxGeometry x="520" y="792" width="60" height="14" as="geometry" />
        </mxCell>
        <mxCell id="_4IBZ-Op1HETno_acvwW-599" value="&lt;span style=&quot;font-size: 13px;&quot;&gt;2 - 32&lt;/span&gt;" style="text;html=1;strokeColor=none;fillColor=none;align=center;verticalAlign=middle;whiteSpace=wrap;rounded=0;" parent="_4IBZ-Op1HETno_acvwW-167" vertex="1">
          <mxGeometry x="700" y="41" width="51" height="14" as="geometry" />
        </mxCell>
        <mxCell id="_4IBZ-Op1HETno_acvwW-601" value="&lt;span style=&quot;font-size: 13px;&quot;&gt;SDP / 6&lt;/span&gt;" style="text;html=1;strokeColor=none;fillColor=none;align=center;verticalAlign=middle;whiteSpace=wrap;rounded=0;" parent="_4IBZ-Op1HETno_acvwW-167" vertex="1">
          <mxGeometry x="790" y="41" width="51" height="14" as="geometry" />
        </mxCell>
        <mxCell id="_4IBZ-Op1HETno_acvwW-603" value="&lt;span style=&quot;font-size: 13px;&quot;&gt;2 - 33&lt;/span&gt;" style="text;html=1;strokeColor=none;fillColor=none;align=center;verticalAlign=middle;whiteSpace=wrap;rounded=0;" parent="_4IBZ-Op1HETno_acvwW-167" vertex="1">
          <mxGeometry x="700" y="227" width="51" height="14" as="geometry" />
        </mxCell>
        <mxCell id="_4IBZ-Op1HETno_acvwW-602" value="&lt;span style=&quot;font-size: 13px;&quot;&gt;SDP / 10&lt;/span&gt;" style="text;html=1;strokeColor=none;fillColor=none;align=center;verticalAlign=middle;whiteSpace=wrap;rounded=0;" parent="_4IBZ-Op1HETno_acvwW-167" vertex="1">
          <mxGeometry x="790" y="227" width="60" height="14" as="geometry" />
        </mxCell>
        <mxCell id="_4IBZ-Op1HETno_acvwW-604" value="&lt;span style=&quot;font-size: 13px;&quot;&gt;2 - 34&lt;/span&gt;" style="text;html=1;strokeColor=none;fillColor=none;align=center;verticalAlign=middle;whiteSpace=wrap;rounded=0;" parent="_4IBZ-Op1HETno_acvwW-167" vertex="1">
          <mxGeometry x="710" y="414" width="51" height="14" as="geometry" />
        </mxCell>
        <mxCell id="_4IBZ-Op1HETno_acvwW-605" value="&lt;span style=&quot;font-size: 13px;&quot;&gt;SDP / 13&lt;/span&gt;" style="text;html=1;strokeColor=none;fillColor=none;align=center;verticalAlign=middle;whiteSpace=wrap;rounded=0;" parent="_4IBZ-Op1HETno_acvwW-167" vertex="1">
          <mxGeometry x="790" y="414" width="60" height="14" as="geometry" />
        </mxCell>
        <mxCell id="_4IBZ-Op1HETno_acvwW-606" value="&lt;span style=&quot;font-size: 13px;&quot;&gt;&amp;nbsp;2 - 35&lt;/span&gt;" style="text;html=1;strokeColor=none;fillColor=none;align=center;verticalAlign=middle;whiteSpace=wrap;rounded=0;" parent="_4IBZ-Op1HETno_acvwW-167" vertex="1">
          <mxGeometry x="700" y="606" width="51" height="14" as="geometry" />
        </mxCell>
        <mxCell id="_4IBZ-Op1HETno_acvwW-607" value="&lt;span style=&quot;font-size: 13px;&quot;&gt;SDP / 13&lt;/span&gt;" style="text;html=1;strokeColor=none;fillColor=none;align=center;verticalAlign=middle;whiteSpace=wrap;rounded=0;" parent="_4IBZ-Op1HETno_acvwW-167" vertex="1">
          <mxGeometry x="790" y="606" width="60" height="14" as="geometry" />
        </mxCell>
        <mxCell id="M3nlvZfUeVR15v4jXuiJ-32" value="&lt;font style=&quot;font-size: 10px;&quot;&gt;Can the effective date be renegotiated to meet AIRAC?&lt;/font&gt;" style="text;html=1;strokeColor=none;fillColor=none;align=center;verticalAlign=middle;whiteSpace=wrap;rounded=0;" parent="_4IBZ-Op1HETno_acvwW-167" vertex="1">
          <mxGeometry x="113" y="90" width="112" height="19" as="geometry" />
        </mxCell>
        <mxCell id="_4IBZ-Op1HETno_acvwW-180" style="edgeStyle=orthogonalEdgeStyle;rounded=0;orthogonalLoop=1;jettySize=auto;html=1;entryX=1;entryY=0.5;entryDx=0;entryDy=0;" parent="1" source="_4IBZ-Op1HETno_acvwW-169" target="_4IBZ-Op1HETno_acvwW-131" edge="1">
          <mxGeometry relative="1" as="geometry">
            <Array as="points">
              <mxPoint x="1529" y="2130" />
            </Array>
          </mxGeometry>
        </mxCell>
        <mxCell id="M3nlvZfUeVR15v4jXuiJ-34" value="YES" style="edgeLabel;html=1;align=center;verticalAlign=middle;resizable=0;points=[];" parent="_4IBZ-Op1HETno_acvwW-180" vertex="1" connectable="0">
          <mxGeometry x="-0.692" y="-1" relative="1" as="geometry">
            <mxPoint as="offset" />
          </mxGeometry>
        </mxCell>
        <mxCell id="_4IBZ-Op1HETno_acvwW-191" style="edgeStyle=orthogonalEdgeStyle;rounded=0;orthogonalLoop=1;jettySize=auto;html=1;entryX=0.5;entryY=0;entryDx=0;entryDy=0;" parent="1" source="_4IBZ-Op1HETno_acvwW-188" target="_4IBZ-Op1HETno_acvwW-181" edge="1">
          <mxGeometry relative="1" as="geometry" />
        </mxCell>
        <mxCell id="M3nlvZfUeVR15v4jXuiJ-28" value="YES" style="edgeLabel;html=1;align=center;verticalAlign=middle;resizable=0;points=[];" parent="_4IBZ-Op1HETno_acvwW-191" vertex="1" connectable="0">
          <mxGeometry x="-0.3243" y="-1" relative="1" as="geometry">
            <mxPoint as="offset" />
          </mxGeometry>
        </mxCell>
        <mxCell id="_4IBZ-Op1HETno_acvwW-195" style="edgeStyle=orthogonalEdgeStyle;rounded=0;orthogonalLoop=1;jettySize=auto;html=1;exitX=1;exitY=0.5;exitDx=0;exitDy=0;" parent="1" source="_4IBZ-Op1HETno_acvwW-188" target="_4IBZ-Op1HETno_acvwW-192" edge="1">
          <mxGeometry relative="1" as="geometry" />
        </mxCell>
        <mxCell id="M3nlvZfUeVR15v4jXuiJ-27" value="NO" style="edgeLabel;html=1;align=center;verticalAlign=middle;resizable=0;points=[];" parent="_4IBZ-Op1HETno_acvwW-195" vertex="1" connectable="0">
          <mxGeometry x="-0.2084" y="-1" relative="1" as="geometry">
            <mxPoint as="offset" />
          </mxGeometry>
        </mxCell>
        <mxCell id="_4IBZ-Op1HETno_acvwW-188" value="" style="verticalLabelPosition=middle;verticalAlign=middle;html=1;shape=trapezoid;perimeter=trapezoidPerimeter;whiteSpace=wrap;size=0.23;arcSize=10;flipV=1;labelPosition=center;align=center;" parent="1" vertex="1">
          <mxGeometry x="2016" y="1660" width="240" height="90" as="geometry" />
        </mxCell>
        <mxCell id="_4IBZ-Op1HETno_acvwW-192" value="Prepare an AIP Supplement" style="rounded=1;whiteSpace=wrap;html=1;arcSize=10;" parent="1" vertex="1">
          <mxGeometry x="2400" y="1647" width="191" height="115" as="geometry" />
        </mxCell>
        <mxCell id="_4IBZ-Op1HETno_acvwW-193" value="Issue an AIP Supplement" style="rounded=1;whiteSpace=wrap;html=1;arcSize=10;" parent="1" vertex="1">
          <mxGeometry x="2400" y="1832.5" width="191" height="115" as="geometry" />
        </mxCell>
        <mxCell id="_4IBZ-Op1HETno_acvwW-194" value="" style="edgeStyle=orthogonalEdgeStyle;rounded=0;orthogonalLoop=1;jettySize=auto;html=1;" parent="1" source="_4IBZ-Op1HETno_acvwW-192" target="_4IBZ-Op1HETno_acvwW-193" edge="1">
          <mxGeometry relative="1" as="geometry" />
        </mxCell>
        <mxCell id="_4IBZ-Op1HETno_acvwW-197" style="edgeStyle=orthogonalEdgeStyle;rounded=0;orthogonalLoop=1;jettySize=auto;html=1;entryX=0.5;entryY=0;entryDx=0;entryDy=0;" parent="1" source="_4IBZ-Op1HETno_acvwW-199" edge="1">
          <mxGeometry relative="1" as="geometry">
            <mxPoint x="1856" y="588" as="targetPoint" />
          </mxGeometry>
        </mxCell>
        <mxCell id="_4IBZ-Op1HETno_acvwW-198" style="edgeStyle=orthogonalEdgeStyle;rounded=0;orthogonalLoop=1;jettySize=auto;html=1;exitX=1;exitY=0.5;exitDx=0;exitDy=0;" parent="1" source="_4IBZ-Op1HETno_acvwW-199" target="_4IBZ-Op1HETno_acvwW-200" edge="1">
          <mxGeometry relative="1" as="geometry" />
        </mxCell>
        <mxCell id="M3nlvZfUeVR15v4jXuiJ-19" value="NO" style="edgeLabel;html=1;align=center;verticalAlign=middle;resizable=0;points=[];" parent="_4IBZ-Op1HETno_acvwW-198" vertex="1" connectable="0">
          <mxGeometry x="-0.1118" relative="1" as="geometry">
            <mxPoint as="offset" />
          </mxGeometry>
        </mxCell>
        <mxCell id="_4IBZ-Op1HETno_acvwW-199" value="" style="verticalLabelPosition=middle;verticalAlign=middle;html=1;shape=trapezoid;perimeter=trapezoidPerimeter;whiteSpace=wrap;size=0.23;arcSize=10;flipV=1;labelPosition=center;align=center;" parent="1" vertex="1">
          <mxGeometry x="1761" y="380" width="190" height="90" as="geometry" />
        </mxCell>
        <mxCell id="_4IBZ-Op1HETno_acvwW-200" value="Prepare an AIP Amendment" style="rounded=1;whiteSpace=wrap;html=1;arcSize=10;" parent="1" vertex="1">
          <mxGeometry x="2120" y="367" width="191" height="115" as="geometry" />
        </mxCell>
        <mxCell id="_4IBZ-Op1HETno_acvwW-201" value="Issue an AIP Amendment" style="rounded=1;whiteSpace=wrap;html=1;arcSize=10;" parent="1" vertex="1">
          <mxGeometry x="2120" y="546.5" width="191" height="115" as="geometry" />
        </mxCell>
        <mxCell id="_4IBZ-Op1HETno_acvwW-202" value="" style="edgeStyle=orthogonalEdgeStyle;rounded=0;orthogonalLoop=1;jettySize=auto;html=1;" parent="1" source="_4IBZ-Op1HETno_acvwW-200" target="_4IBZ-Op1HETno_acvwW-201" edge="1">
          <mxGeometry relative="1" as="geometry" />
        </mxCell>
        <mxCell id="_4IBZ-Op1HETno_acvwW-235" value="" style="edgeStyle=orthogonalEdgeStyle;rounded=0;orthogonalLoop=1;jettySize=auto;html=1;" parent="1" source="_4IBZ-Op1HETno_acvwW-208" target="_4IBZ-Op1HETno_acvwW-209" edge="1">
          <mxGeometry relative="1" as="geometry" />
        </mxCell>
        <mxCell id="_4IBZ-Op1HETno_acvwW-321" value="&lt;font style=&quot;font-size: 13px;&quot;&gt;YES&lt;/font&gt;" style="edgeLabel;html=1;align=center;verticalAlign=middle;resizable=0;points=[];" parent="_4IBZ-Op1HETno_acvwW-235" vertex="1" connectable="0">
          <mxGeometry x="-0.1862" y="3" relative="1" as="geometry">
            <mxPoint x="-3" y="2" as="offset" />
          </mxGeometry>
        </mxCell>
        <mxCell id="_4IBZ-Op1HETno_acvwW-244" value="" style="edgeStyle=orthogonalEdgeStyle;rounded=0;orthogonalLoop=1;jettySize=auto;html=1;" parent="1" source="_4IBZ-Op1HETno_acvwW-208" target="_4IBZ-Op1HETno_acvwW-225" edge="1">
          <mxGeometry relative="1" as="geometry" />
        </mxCell>
        <mxCell id="_4IBZ-Op1HETno_acvwW-320" value="&lt;font style=&quot;font-size: 14px;&quot;&gt;NO&lt;/font&gt;" style="edgeLabel;html=1;align=center;verticalAlign=middle;resizable=0;points=[];" parent="_4IBZ-Op1HETno_acvwW-244" vertex="1" connectable="0">
          <mxGeometry x="-0.2695" y="-1" relative="1" as="geometry">
            <mxPoint x="8" y="-1" as="offset" />
          </mxGeometry>
        </mxCell>
        <mxCell id="_4IBZ-Op1HETno_acvwW-208" value="" style="verticalLabelPosition=bottom;verticalAlign=top;html=1;shape=hexagon;perimeter=hexagonPerimeter2;arcSize=6;size=0.27;" parent="1" vertex="1">
          <mxGeometry x="-55" y="450" width="220" height="130" as="geometry" />
        </mxCell>
        <mxCell id="_4IBZ-Op1HETno_acvwW-236" value="" style="edgeStyle=orthogonalEdgeStyle;rounded=0;orthogonalLoop=1;jettySize=auto;html=1;" parent="1" source="_4IBZ-Op1HETno_acvwW-209" target="_4IBZ-Op1HETno_acvwW-210" edge="1">
          <mxGeometry relative="1" as="geometry" />
        </mxCell>
        <mxCell id="_4IBZ-Op1HETno_acvwW-492" value="&lt;font style=&quot;font-size: 13px;&quot;&gt;YES&lt;/font&gt;" style="edgeLabel;html=1;align=center;verticalAlign=middle;resizable=0;points=[];" parent="_4IBZ-Op1HETno_acvwW-236" vertex="1" connectable="0">
          <mxGeometry x="-0.1448" relative="1" as="geometry">
            <mxPoint as="offset" />
          </mxGeometry>
        </mxCell>
        <mxCell id="_4IBZ-Op1HETno_acvwW-245" style="edgeStyle=orthogonalEdgeStyle;rounded=0;orthogonalLoop=1;jettySize=auto;html=1;exitX=1;exitY=0.5;exitDx=0;exitDy=0;" parent="1" source="_4IBZ-Op1HETno_acvwW-209" target="_4IBZ-Op1HETno_acvwW-226" edge="1">
          <mxGeometry relative="1" as="geometry" />
        </mxCell>
        <mxCell id="_4IBZ-Op1HETno_acvwW-491" value="&lt;font style=&quot;font-size: 13px;&quot;&gt;NO&lt;/font&gt;" style="edgeLabel;html=1;align=center;verticalAlign=middle;resizable=0;points=[];" parent="_4IBZ-Op1HETno_acvwW-245" vertex="1" connectable="0">
          <mxGeometry x="-0.005" y="-1" relative="1" as="geometry">
            <mxPoint as="offset" />
          </mxGeometry>
        </mxCell>
        <mxCell id="_4IBZ-Op1HETno_acvwW-209" value="" style="verticalLabelPosition=bottom;verticalAlign=top;html=1;shape=hexagon;perimeter=hexagonPerimeter2;arcSize=6;size=0.27;" parent="1" vertex="1">
          <mxGeometry x="-55" y="671" width="220" height="130" as="geometry" />
        </mxCell>
        <mxCell id="_4IBZ-Op1HETno_acvwW-246" style="edgeStyle=orthogonalEdgeStyle;rounded=0;orthogonalLoop=1;jettySize=auto;html=1;entryX=0;entryY=0.5;entryDx=0;entryDy=0;" parent="1" source="_4IBZ-Op1HETno_acvwW-210" target="_4IBZ-Op1HETno_acvwW-227" edge="1">
          <mxGeometry relative="1" as="geometry" />
        </mxCell>
        <mxCell id="_4IBZ-Op1HETno_acvwW-494" value="&lt;font style=&quot;font-size: 13px;&quot;&gt;NO&lt;/font&gt;" style="edgeLabel;html=1;align=center;verticalAlign=middle;resizable=0;points=[];" parent="_4IBZ-Op1HETno_acvwW-246" vertex="1" connectable="0">
          <mxGeometry x="-0.0233" relative="1" as="geometry">
            <mxPoint as="offset" />
          </mxGeometry>
        </mxCell>
        <mxCell id="_4IBZ-Op1HETno_acvwW-251" value="" style="edgeStyle=orthogonalEdgeStyle;rounded=0;orthogonalLoop=1;jettySize=auto;html=1;" parent="1" source="_4IBZ-Op1HETno_acvwW-210" target="_4IBZ-Op1HETno_acvwW-249" edge="1">
          <mxGeometry relative="1" as="geometry" />
        </mxCell>
        <mxCell id="_4IBZ-Op1HETno_acvwW-495" value="&lt;font style=&quot;font-size: 13px;&quot;&gt;YES&lt;/font&gt;" style="edgeLabel;html=1;align=center;verticalAlign=middle;resizable=0;points=[];" parent="_4IBZ-Op1HETno_acvwW-251" vertex="1" connectable="0">
          <mxGeometry x="-0.0885" y="-2" relative="1" as="geometry">
            <mxPoint as="offset" />
          </mxGeometry>
        </mxCell>
        <mxCell id="_4IBZ-Op1HETno_acvwW-210" value="" style="verticalLabelPosition=bottom;verticalAlign=top;html=1;shape=hexagon;perimeter=hexagonPerimeter2;arcSize=6;size=0.27;" parent="1" vertex="1">
          <mxGeometry x="-55" y="901" width="220" height="130" as="geometry" />
        </mxCell>
        <mxCell id="_4IBZ-Op1HETno_acvwW-247" style="edgeStyle=orthogonalEdgeStyle;rounded=0;orthogonalLoop=1;jettySize=auto;html=1;entryX=0;entryY=0.5;entryDx=0;entryDy=0;" parent="1" source="_4IBZ-Op1HETno_acvwW-215" target="_4IBZ-Op1HETno_acvwW-228" edge="1">
          <mxGeometry relative="1" as="geometry" />
        </mxCell>
        <mxCell id="_4IBZ-Op1HETno_acvwW-497" value="&lt;font style=&quot;font-size: 13px;&quot;&gt;NO&lt;/font&gt;" style="edgeLabel;html=1;align=center;verticalAlign=middle;resizable=0;points=[];" parent="_4IBZ-Op1HETno_acvwW-247" vertex="1" connectable="0">
          <mxGeometry x="-0.1951" relative="1" as="geometry">
            <mxPoint x="13" as="offset" />
          </mxGeometry>
        </mxCell>
        <mxCell id="_4IBZ-Op1HETno_acvwW-253" value="" style="edgeStyle=orthogonalEdgeStyle;rounded=0;orthogonalLoop=1;jettySize=auto;html=1;" parent="1" source="_4IBZ-Op1HETno_acvwW-215" target="_4IBZ-Op1HETno_acvwW-252" edge="1">
          <mxGeometry relative="1" as="geometry" />
        </mxCell>
        <mxCell id="_4IBZ-Op1HETno_acvwW-498" value="&lt;font style=&quot;font-size: 13px;&quot;&gt;YES&lt;/font&gt;" style="edgeLabel;html=1;align=center;verticalAlign=middle;resizable=0;points=[];" parent="_4IBZ-Op1HETno_acvwW-253" vertex="1" connectable="0">
          <mxGeometry x="-0.0835" relative="1" as="geometry">
            <mxPoint as="offset" />
          </mxGeometry>
        </mxCell>
        <mxCell id="_4IBZ-Op1HETno_acvwW-215" value="" style="verticalLabelPosition=bottom;verticalAlign=top;html=1;shape=hexagon;perimeter=hexagonPerimeter2;arcSize=6;size=0.27;" parent="1" vertex="1">
          <mxGeometry x="-55" y="1348" width="220" height="130" as="geometry" />
        </mxCell>
        <mxCell id="_4IBZ-Op1HETno_acvwW-241" value="" style="edgeStyle=orthogonalEdgeStyle;rounded=0;orthogonalLoop=1;jettySize=auto;html=1;" parent="1" source="_4IBZ-Op1HETno_acvwW-217" target="_4IBZ-Op1HETno_acvwW-230" edge="1">
          <mxGeometry relative="1" as="geometry" />
        </mxCell>
        <mxCell id="_4IBZ-Op1HETno_acvwW-248" style="edgeStyle=orthogonalEdgeStyle;rounded=0;orthogonalLoop=1;jettySize=auto;html=1;entryX=0;entryY=0.5;entryDx=0;entryDy=0;" parent="1" source="_4IBZ-Op1HETno_acvwW-217" target="_4IBZ-Op1HETno_acvwW-229" edge="1">
          <mxGeometry relative="1" as="geometry" />
        </mxCell>
        <mxCell id="_4IBZ-Op1HETno_acvwW-500" value="&lt;font style=&quot;font-size: 13px;&quot;&gt;NO&lt;/font&gt;" style="edgeLabel;html=1;align=center;verticalAlign=middle;resizable=0;points=[];" parent="_4IBZ-Op1HETno_acvwW-248" vertex="1" connectable="0">
          <mxGeometry x="-0.0275" y="2" relative="1" as="geometry">
            <mxPoint as="offset" />
          </mxGeometry>
        </mxCell>
        <mxCell id="_4IBZ-Op1HETno_acvwW-217" value="" style="verticalLabelPosition=bottom;verticalAlign=top;html=1;shape=hexagon;perimeter=hexagonPerimeter2;arcSize=6;size=0.27;" parent="1" vertex="1">
          <mxGeometry x="-54" y="1770" width="220" height="130" as="geometry" />
        </mxCell>
        <mxCell id="_4IBZ-Op1HETno_acvwW-234" value="" style="edgeStyle=orthogonalEdgeStyle;rounded=0;orthogonalLoop=1;jettySize=auto;html=1;" parent="1" source="_4IBZ-Op1HETno_acvwW-223" target="_4IBZ-Op1HETno_acvwW-208" edge="1">
          <mxGeometry relative="1" as="geometry" />
        </mxCell>
        <mxCell id="_4IBZ-Op1HETno_acvwW-223" value="Raw Data Received" style="rounded=1;whiteSpace=wrap;html=1;absoluteArcSize=1;arcSize=14;strokeWidth=2;" parent="1" vertex="1">
          <mxGeometry x="-52.5" y="259" width="215" height="120" as="geometry" />
        </mxCell>
        <mxCell id="_4IBZ-Op1HETno_acvwW-233" value="" style="edgeStyle=orthogonalEdgeStyle;rounded=0;orthogonalLoop=1;jettySize=auto;html=1;" parent="1" source="_4IBZ-Op1HETno_acvwW-224" target="_4IBZ-Op1HETno_acvwW-223" edge="1">
          <mxGeometry relative="1" as="geometry" />
        </mxCell>
        <mxCell id="_4IBZ-Op1HETno_acvwW-224" value="" style="rounded=1;whiteSpace=wrap;html=1;absoluteArcSize=1;arcSize=14;strokeWidth=2;" parent="1" vertex="1">
          <mxGeometry x="-52" y="31" width="215" height="120" as="geometry" />
        </mxCell>
        <mxCell id="_4IBZ-Op1HETno_acvwW-225" value="Refer to the Originator" style="rounded=1;whiteSpace=wrap;html=1;absoluteArcSize=1;arcSize=14;strokeWidth=2;" parent="1" vertex="1">
          <mxGeometry x="403" y="455" width="215" height="120" as="geometry" />
        </mxCell>
        <mxCell id="_4IBZ-Op1HETno_acvwW-226" value="Refer to the Originator" style="rounded=1;whiteSpace=wrap;html=1;absoluteArcSize=1;arcSize=14;strokeWidth=2;" parent="1" vertex="1">
          <mxGeometry x="400" y="676" width="215" height="120" as="geometry" />
        </mxCell>
        <mxCell id="_4IBZ-Op1HETno_acvwW-227" value="Refer to the Originator&lt;br&gt;and to&lt;br&gt;The Appropriate Authority" style="rounded=1;whiteSpace=wrap;html=1;absoluteArcSize=1;arcSize=14;strokeWidth=2;" parent="1" vertex="1">
          <mxGeometry x="401" y="906" width="215" height="120" as="geometry" />
        </mxCell>
        <mxCell id="_4IBZ-Op1HETno_acvwW-228" value="Refer to the Originator" style="rounded=1;whiteSpace=wrap;html=1;absoluteArcSize=1;arcSize=14;strokeWidth=2;" parent="1" vertex="1">
          <mxGeometry x="400" y="1353" width="215" height="120" as="geometry" />
        </mxCell>
        <mxCell id="_4IBZ-Op1HETno_acvwW-255" style="edgeStyle=orthogonalEdgeStyle;rounded=0;orthogonalLoop=1;jettySize=auto;html=1;entryX=1;entryY=0.5;entryDx=0;entryDy=0;" parent="1" source="_4IBZ-Op1HETno_acvwW-229" target="_4IBZ-Op1HETno_acvwW-249" edge="1">
          <mxGeometry relative="1" as="geometry">
            <Array as="points">
              <mxPoint x="760" y="1835" />
              <mxPoint x="760" y="1200" />
            </Array>
          </mxGeometry>
        </mxCell>
        <mxCell id="_4IBZ-Op1HETno_acvwW-229" value="Refer to the Evaluator" style="rounded=1;whiteSpace=wrap;html=1;absoluteArcSize=1;arcSize=14;strokeWidth=2;" parent="1" vertex="1">
          <mxGeometry x="403" y="1775" width="215" height="120" as="geometry" />
        </mxCell>
        <mxCell id="_4IBZ-Op1HETno_acvwW-242" value="" style="edgeStyle=orthogonalEdgeStyle;rounded=0;orthogonalLoop=1;jettySize=auto;html=1;" parent="1" source="_4IBZ-Op1HETno_acvwW-230" target="_4IBZ-Op1HETno_acvwW-231" edge="1">
          <mxGeometry relative="1" as="geometry" />
        </mxCell>
        <mxCell id="_4IBZ-Op1HETno_acvwW-230" value="Store Approved Data in the register as Information" style="rounded=1;whiteSpace=wrap;html=1;absoluteArcSize=1;arcSize=14;strokeWidth=2;" parent="1" vertex="1">
          <mxGeometry x="-51.5" y="1990" width="215" height="120" as="geometry" />
        </mxCell>
        <mxCell id="_4IBZ-Op1HETno_acvwW-231" value="Issue notice of new Information available" style="rounded=1;whiteSpace=wrap;html=1;absoluteArcSize=1;arcSize=14;strokeWidth=2;" parent="1" vertex="1">
          <mxGeometry x="-51" y="2220" width="215" height="120" as="geometry" />
        </mxCell>
        <mxCell id="_4IBZ-Op1HETno_acvwW-250" value="" style="edgeStyle=orthogonalEdgeStyle;rounded=0;orthogonalLoop=1;jettySize=auto;html=1;" parent="1" source="_4IBZ-Op1HETno_acvwW-249" target="_4IBZ-Op1HETno_acvwW-215" edge="1">
          <mxGeometry relative="1" as="geometry" />
        </mxCell>
        <mxCell id="_4IBZ-Op1HETno_acvwW-249" value="Evaluate Raw Data" style="rounded=1;whiteSpace=wrap;html=1;absoluteArcSize=1;arcSize=14;strokeWidth=2;" parent="1" vertex="1">
          <mxGeometry x="-53" y="1140" width="215" height="120" as="geometry" />
        </mxCell>
        <mxCell id="_4IBZ-Op1HETno_acvwW-254" value="" style="edgeStyle=orthogonalEdgeStyle;rounded=0;orthogonalLoop=1;jettySize=auto;html=1;" parent="1" source="_4IBZ-Op1HETno_acvwW-252" target="_4IBZ-Op1HETno_acvwW-217" edge="1">
          <mxGeometry relative="1" as="geometry" />
        </mxCell>
        <mxCell id="_4IBZ-Op1HETno_acvwW-252" value="Submit Raw Data for Approval" style="rounded=1;whiteSpace=wrap;html=1;absoluteArcSize=1;arcSize=14;strokeWidth=2;" parent="1" vertex="1">
          <mxGeometry x="-52" y="1570" width="215" height="120" as="geometry" />
        </mxCell>
        <mxCell id="_4IBZ-Op1HETno_acvwW-260" value="" style="edgeStyle=orthogonalEdgeStyle;rounded=0;orthogonalLoop=1;jettySize=auto;html=1;" parent="1" source="_4IBZ-Op1HETno_acvwW-258" target="_4IBZ-Op1HETno_acvwW-259" edge="1">
          <mxGeometry relative="1" as="geometry" />
        </mxCell>
        <mxCell id="DZtiqlgdvekkQqqCtOq4-1" value="YES" style="edgeLabel;html=1;align=center;verticalAlign=middle;resizable=0;points=[];" vertex="1" connectable="0" parent="_4IBZ-Op1HETno_acvwW-260">
          <mxGeometry x="-0.1138" y="2" relative="1" as="geometry">
            <mxPoint as="offset" />
          </mxGeometry>
        </mxCell>
        <mxCell id="_4IBZ-Op1HETno_acvwW-270" style="edgeStyle=orthogonalEdgeStyle;rounded=0;orthogonalLoop=1;jettySize=auto;html=1;" parent="1" source="_4IBZ-Op1HETno_acvwW-258" target="_4IBZ-Op1HETno_acvwW-269" edge="1">
          <mxGeometry relative="1" as="geometry" />
        </mxCell>
        <mxCell id="DZtiqlgdvekkQqqCtOq4-2" value="NO" style="edgeLabel;html=1;align=center;verticalAlign=middle;resizable=0;points=[];" vertex="1" connectable="0" parent="_4IBZ-Op1HETno_acvwW-270">
          <mxGeometry x="-0.2917" y="-1" relative="1" as="geometry">
            <mxPoint as="offset" />
          </mxGeometry>
        </mxCell>
        <mxCell id="_4IBZ-Op1HETno_acvwW-258" value="" style="verticalLabelPosition=bottom;verticalAlign=top;html=1;shape=hexagon;perimeter=hexagonPerimeter2;arcSize=6;size=0.27;" parent="1" vertex="1">
          <mxGeometry x="2820" y="1424.63" width="230" height="168.75" as="geometry" />
        </mxCell>
        <mxCell id="_4IBZ-Op1HETno_acvwW-262" value="" style="edgeStyle=orthogonalEdgeStyle;rounded=0;orthogonalLoop=1;jettySize=auto;html=1;" parent="1" source="_4IBZ-Op1HETno_acvwW-259" target="_4IBZ-Op1HETno_acvwW-261" edge="1">
          <mxGeometry relative="1" as="geometry" />
        </mxCell>
        <mxCell id="DZtiqlgdvekkQqqCtOq4-3" value="YES" style="edgeLabel;html=1;align=center;verticalAlign=middle;resizable=0;points=[];" vertex="1" connectable="0" parent="_4IBZ-Op1HETno_acvwW-262">
          <mxGeometry x="0.0359" y="-2" relative="1" as="geometry">
            <mxPoint as="offset" />
          </mxGeometry>
        </mxCell>
        <mxCell id="DZtiqlgdvekkQqqCtOq4-4" style="edgeStyle=orthogonalEdgeStyle;rounded=0;orthogonalLoop=1;jettySize=auto;html=1;exitX=1;exitY=0.5;exitDx=0;exitDy=0;" edge="1" parent="1" source="_4IBZ-Op1HETno_acvwW-259" target="_4IBZ-Op1HETno_acvwW-293">
          <mxGeometry relative="1" as="geometry" />
        </mxCell>
        <mxCell id="DZtiqlgdvekkQqqCtOq4-5" value="NO" style="edgeLabel;html=1;align=center;verticalAlign=middle;resizable=0;points=[];" vertex="1" connectable="0" parent="DZtiqlgdvekkQqqCtOq4-4">
          <mxGeometry x="-0.0337" relative="1" as="geometry">
            <mxPoint as="offset" />
          </mxGeometry>
        </mxCell>
        <mxCell id="_4IBZ-Op1HETno_acvwW-259" value="" style="verticalLabelPosition=bottom;verticalAlign=top;html=1;shape=hexagon;perimeter=hexagonPerimeter2;arcSize=6;size=0.27;" parent="1" vertex="1">
          <mxGeometry x="2820" y="1690" width="230" height="168.75" as="geometry" />
        </mxCell>
        <mxCell id="_4IBZ-Op1HETno_acvwW-266" value="" style="edgeStyle=orthogonalEdgeStyle;rounded=0;orthogonalLoop=1;jettySize=auto;html=1;" parent="1" source="_4IBZ-Op1HETno_acvwW-261" target="_4IBZ-Op1HETno_acvwW-263" edge="1">
          <mxGeometry relative="1" as="geometry" />
        </mxCell>
        <mxCell id="DZtiqlgdvekkQqqCtOq4-6" value="YES" style="edgeLabel;html=1;align=center;verticalAlign=middle;resizable=0;points=[];" vertex="1" connectable="0" parent="_4IBZ-Op1HETno_acvwW-266">
          <mxGeometry x="-0.4277" relative="1" as="geometry">
            <mxPoint as="offset" />
          </mxGeometry>
        </mxCell>
        <mxCell id="_4IBZ-Op1HETno_acvwW-297" style="edgeStyle=orthogonalEdgeStyle;rounded=0;orthogonalLoop=1;jettySize=auto;html=1;exitX=1;exitY=0.5;exitDx=0;exitDy=0;entryX=0;entryY=0.75;entryDx=0;entryDy=0;" parent="1" source="_4IBZ-Op1HETno_acvwW-261" target="_4IBZ-Op1HETno_acvwW-273" edge="1">
          <mxGeometry relative="1" as="geometry" />
        </mxCell>
        <mxCell id="DZtiqlgdvekkQqqCtOq4-7" value="NO" style="edgeLabel;html=1;align=center;verticalAlign=middle;resizable=0;points=[];" vertex="1" connectable="0" parent="_4IBZ-Op1HETno_acvwW-297">
          <mxGeometry x="-0.0732" y="-1" relative="1" as="geometry">
            <mxPoint as="offset" />
          </mxGeometry>
        </mxCell>
        <mxCell id="_4IBZ-Op1HETno_acvwW-261" value="" style="verticalLabelPosition=middle;verticalAlign=middle;html=1;shape=trapezoid;perimeter=trapezoidPerimeter;whiteSpace=wrap;size=0.23;arcSize=10;flipV=1;labelPosition=center;align=center;" parent="1" vertex="1">
          <mxGeometry x="2840" y="1960" width="190" height="90" as="geometry" />
        </mxCell>
        <mxCell id="_4IBZ-Op1HETno_acvwW-267" value="" style="edgeStyle=orthogonalEdgeStyle;rounded=0;orthogonalLoop=1;jettySize=auto;html=1;" parent="1" source="_4IBZ-Op1HETno_acvwW-263" target="_4IBZ-Op1HETno_acvwW-265" edge="1">
          <mxGeometry relative="1" as="geometry" />
        </mxCell>
        <mxCell id="_4IBZ-Op1HETno_acvwW-263" value="Prepare an AIRAC AIP Supplement" style="rounded=1;whiteSpace=wrap;html=1;arcSize=10;" parent="1" vertex="1">
          <mxGeometry x="2840" y="2155" width="191" height="115" as="geometry" />
        </mxCell>
        <mxCell id="_4IBZ-Op1HETno_acvwW-264" value="Issue trigger NOTAM" style="rounded=1;whiteSpace=wrap;html=1;arcSize=10;" parent="1" vertex="1">
          <mxGeometry x="2840" y="2570" width="191" height="115" as="geometry" />
        </mxCell>
        <mxCell id="_4IBZ-Op1HETno_acvwW-268" value="" style="edgeStyle=orthogonalEdgeStyle;rounded=0;orthogonalLoop=1;jettySize=auto;html=1;" parent="1" source="_4IBZ-Op1HETno_acvwW-265" target="_4IBZ-Op1HETno_acvwW-264" edge="1">
          <mxGeometry relative="1" as="geometry" />
        </mxCell>
        <mxCell id="_4IBZ-Op1HETno_acvwW-265" value="Issue an AIRAC AIP Supplement" style="rounded=1;whiteSpace=wrap;html=1;arcSize=10;" parent="1" vertex="1">
          <mxGeometry x="2840" y="2365" width="191" height="115" as="geometry" />
        </mxCell>
        <mxCell id="_4IBZ-Op1HETno_acvwW-269" value="Issue NOTAM" style="rounded=1;whiteSpace=wrap;html=1;arcSize=10;" parent="1" vertex="1">
          <mxGeometry x="3280" y="1452.5" width="240" height="112.5" as="geometry" />
        </mxCell>
        <mxCell id="_4IBZ-Op1HETno_acvwW-272" value="s" style="swimlane;startSize=0;" parent="1" vertex="1">
          <mxGeometry x="3130" y="1907" width="920" height="1040" as="geometry" />
        </mxCell>
        <mxCell id="_4IBZ-Op1HETno_acvwW-273" value="" style="verticalLabelPosition=middle;verticalAlign=middle;html=1;shape=trapezoid;perimeter=trapezoidPerimeter;whiteSpace=wrap;size=0.23;arcSize=10;flipV=1;labelPosition=center;align=center;" parent="_4IBZ-Op1HETno_acvwW-272" vertex="1">
          <mxGeometry x="74" y="37.5" width="190" height="90" as="geometry" />
        </mxCell>
        <mxCell id="_4IBZ-Op1HETno_acvwW-274" value="Issue NOTAM" style="rounded=1;whiteSpace=wrap;html=1;arcSize=10;" parent="_4IBZ-Op1HETno_acvwW-272" vertex="1">
          <mxGeometry x="400" y="25" width="191" height="115" as="geometry" />
        </mxCell>
        <mxCell id="_4IBZ-Op1HETno_acvwW-275" value="" style="edgeStyle=orthogonalEdgeStyle;rounded=0;orthogonalLoop=1;jettySize=auto;html=1;" parent="_4IBZ-Op1HETno_acvwW-272" source="_4IBZ-Op1HETno_acvwW-273" target="_4IBZ-Op1HETno_acvwW-274" edge="1">
          <mxGeometry relative="1" as="geometry" />
        </mxCell>
        <mxCell id="DZtiqlgdvekkQqqCtOq4-8" value="NO" style="edgeLabel;html=1;align=center;verticalAlign=middle;resizable=0;points=[];" vertex="1" connectable="0" parent="_4IBZ-Op1HETno_acvwW-275">
          <mxGeometry x="-0.121" y="1" relative="1" as="geometry">
            <mxPoint as="offset" />
          </mxGeometry>
        </mxCell>
        <mxCell id="_4IBZ-Op1HETno_acvwW-276" value="Prepare an AIP Supplement" style="rounded=1;whiteSpace=wrap;html=1;arcSize=10;" parent="_4IBZ-Op1HETno_acvwW-272" vertex="1">
          <mxGeometry x="400" y="216.5" width="191" height="115" as="geometry" />
        </mxCell>
        <mxCell id="_4IBZ-Op1HETno_acvwW-277" value="" style="edgeStyle=orthogonalEdgeStyle;rounded=0;orthogonalLoop=1;jettySize=auto;html=1;" parent="_4IBZ-Op1HETno_acvwW-272" source="_4IBZ-Op1HETno_acvwW-274" target="_4IBZ-Op1HETno_acvwW-276" edge="1">
          <mxGeometry relative="1" as="geometry" />
        </mxCell>
        <mxCell id="_4IBZ-Op1HETno_acvwW-278" value="Issue an AIP Supplement" style="rounded=1;whiteSpace=wrap;html=1;arcSize=10;" parent="_4IBZ-Op1HETno_acvwW-272" vertex="1">
          <mxGeometry x="400" y="406.5" width="191" height="115" as="geometry" />
        </mxCell>
        <mxCell id="_4IBZ-Op1HETno_acvwW-279" value="" style="edgeStyle=orthogonalEdgeStyle;rounded=0;orthogonalLoop=1;jettySize=auto;html=1;" parent="_4IBZ-Op1HETno_acvwW-272" source="_4IBZ-Op1HETno_acvwW-276" target="_4IBZ-Op1HETno_acvwW-278" edge="1">
          <mxGeometry relative="1" as="geometry" />
        </mxCell>
        <mxCell id="_4IBZ-Op1HETno_acvwW-280" value="Issue Trigger NOTAM" style="rounded=1;whiteSpace=wrap;html=1;arcSize=10;" parent="_4IBZ-Op1HETno_acvwW-272" vertex="1">
          <mxGeometry x="400" y="596.5" width="191" height="115" as="geometry" />
        </mxCell>
        <mxCell id="_4IBZ-Op1HETno_acvwW-281" value="" style="edgeStyle=orthogonalEdgeStyle;rounded=0;orthogonalLoop=1;jettySize=auto;html=1;" parent="_4IBZ-Op1HETno_acvwW-272" source="_4IBZ-Op1HETno_acvwW-278" target="_4IBZ-Op1HETno_acvwW-280" edge="1">
          <mxGeometry relative="1" as="geometry" />
        </mxCell>
        <mxCell id="_4IBZ-Op1HETno_acvwW-282" value="Issue NOTAMC" style="rounded=1;whiteSpace=wrap;html=1;arcSize=10;" parent="_4IBZ-Op1HETno_acvwW-272" vertex="1">
          <mxGeometry x="401" y="786" width="191" height="115" as="geometry" />
        </mxCell>
        <mxCell id="_4IBZ-Op1HETno_acvwW-283" value="" style="edgeStyle=orthogonalEdgeStyle;rounded=0;orthogonalLoop=1;jettySize=auto;html=1;" parent="_4IBZ-Op1HETno_acvwW-272" target="_4IBZ-Op1HETno_acvwW-282" edge="1">
          <mxGeometry relative="1" as="geometry">
            <mxPoint x="496" y="711.5" as="sourcePoint" />
          </mxGeometry>
        </mxCell>
        <mxCell id="_4IBZ-Op1HETno_acvwW-284" value="Issue NOTAM" style="rounded=1;whiteSpace=wrap;html=1;arcSize=10;" parent="_4IBZ-Op1HETno_acvwW-272" vertex="1">
          <mxGeometry x="680" y="34" width="191" height="115" as="geometry" />
        </mxCell>
        <mxCell id="_4IBZ-Op1HETno_acvwW-285" value="Prepare an AIP supplement" style="rounded=1;whiteSpace=wrap;html=1;arcSize=10;" parent="_4IBZ-Op1HETno_acvwW-272" vertex="1">
          <mxGeometry x="680" y="216.5" width="191" height="115" as="geometry" />
        </mxCell>
        <mxCell id="_4IBZ-Op1HETno_acvwW-286" value="" style="edgeStyle=orthogonalEdgeStyle;rounded=0;orthogonalLoop=1;jettySize=auto;html=1;" parent="_4IBZ-Op1HETno_acvwW-272" source="_4IBZ-Op1HETno_acvwW-284" target="_4IBZ-Op1HETno_acvwW-285" edge="1">
          <mxGeometry relative="1" as="geometry" />
        </mxCell>
        <mxCell id="_4IBZ-Op1HETno_acvwW-287" value="Issue an AIP Supplement" style="rounded=1;whiteSpace=wrap;html=1;arcSize=10;" parent="_4IBZ-Op1HETno_acvwW-272" vertex="1">
          <mxGeometry x="680" y="406.5" width="191" height="115" as="geometry" />
        </mxCell>
        <mxCell id="_4IBZ-Op1HETno_acvwW-288" value="" style="edgeStyle=orthogonalEdgeStyle;rounded=0;orthogonalLoop=1;jettySize=auto;html=1;" parent="_4IBZ-Op1HETno_acvwW-272" source="_4IBZ-Op1HETno_acvwW-285" target="_4IBZ-Op1HETno_acvwW-287" edge="1">
          <mxGeometry relative="1" as="geometry" />
        </mxCell>
        <mxCell id="_4IBZ-Op1HETno_acvwW-289" value="Issue NOTAMC" style="rounded=1;whiteSpace=wrap;html=1;arcSize=10;" parent="_4IBZ-Op1HETno_acvwW-272" vertex="1">
          <mxGeometry x="680" y="596.5" width="191" height="115" as="geometry" />
        </mxCell>
        <mxCell id="_4IBZ-Op1HETno_acvwW-290" value="" style="edgeStyle=orthogonalEdgeStyle;rounded=0;orthogonalLoop=1;jettySize=auto;html=1;" parent="_4IBZ-Op1HETno_acvwW-272" source="_4IBZ-Op1HETno_acvwW-287" target="_4IBZ-Op1HETno_acvwW-289" edge="1">
          <mxGeometry relative="1" as="geometry" />
        </mxCell>
        <mxCell id="_4IBZ-Op1HETno_acvwW-392" value="" style="endArrow=none;html=1;rounded=0;" parent="_4IBZ-Op1HETno_acvwW-272" edge="1">
          <mxGeometry width="50" height="50" relative="1" as="geometry">
            <mxPoint x="400" y="54" as="sourcePoint" />
            <mxPoint x="591" y="54" as="targetPoint" />
          </mxGeometry>
        </mxCell>
        <mxCell id="_4IBZ-Op1HETno_acvwW-393" value="" style="endArrow=none;html=1;rounded=0;entryX=0.5;entryY=0;entryDx=0;entryDy=0;" parent="_4IBZ-Op1HETno_acvwW-272" edge="1">
          <mxGeometry width="50" height="50" relative="1" as="geometry">
            <mxPoint x="498" y="54" as="sourcePoint" />
            <mxPoint x="497.97000000000025" y="25" as="targetPoint" />
          </mxGeometry>
        </mxCell>
        <mxCell id="_4IBZ-Op1HETno_acvwW-394" value="" style="endArrow=none;html=1;rounded=0;" parent="_4IBZ-Op1HETno_acvwW-272" edge="1">
          <mxGeometry width="50" height="50" relative="1" as="geometry">
            <mxPoint x="400" y="245.5" as="sourcePoint" />
            <mxPoint x="591" y="245.5" as="targetPoint" />
          </mxGeometry>
        </mxCell>
        <mxCell id="_4IBZ-Op1HETno_acvwW-395" value="" style="endArrow=none;html=1;rounded=0;entryX=0.5;entryY=0;entryDx=0;entryDy=0;" parent="_4IBZ-Op1HETno_acvwW-272" edge="1">
          <mxGeometry width="50" height="50" relative="1" as="geometry">
            <mxPoint x="498" y="245.5" as="sourcePoint" />
            <mxPoint x="497.97000000000025" y="216.5" as="targetPoint" />
          </mxGeometry>
        </mxCell>
        <mxCell id="_4IBZ-Op1HETno_acvwW-396" value="" style="endArrow=none;html=1;rounded=0;" parent="_4IBZ-Op1HETno_acvwW-272" edge="1">
          <mxGeometry width="50" height="50" relative="1" as="geometry">
            <mxPoint x="400" y="435.5" as="sourcePoint" />
            <mxPoint x="591" y="435.5" as="targetPoint" />
          </mxGeometry>
        </mxCell>
        <mxCell id="_4IBZ-Op1HETno_acvwW-397" value="" style="endArrow=none;html=1;rounded=0;entryX=0.5;entryY=0;entryDx=0;entryDy=0;" parent="_4IBZ-Op1HETno_acvwW-272" edge="1">
          <mxGeometry width="50" height="50" relative="1" as="geometry">
            <mxPoint x="498" y="435.5" as="sourcePoint" />
            <mxPoint x="497.97000000000025" y="406.5" as="targetPoint" />
          </mxGeometry>
        </mxCell>
        <mxCell id="_4IBZ-Op1HETno_acvwW-398" value="" style="endArrow=none;html=1;rounded=0;" parent="_4IBZ-Op1HETno_acvwW-272" edge="1">
          <mxGeometry width="50" height="50" relative="1" as="geometry">
            <mxPoint x="400" y="625.5" as="sourcePoint" />
            <mxPoint x="591" y="625.5" as="targetPoint" />
          </mxGeometry>
        </mxCell>
        <mxCell id="_4IBZ-Op1HETno_acvwW-399" value="" style="endArrow=none;html=1;rounded=0;entryX=0.5;entryY=0;entryDx=0;entryDy=0;" parent="_4IBZ-Op1HETno_acvwW-272" edge="1">
          <mxGeometry width="50" height="50" relative="1" as="geometry">
            <mxPoint x="498" y="625.5" as="sourcePoint" />
            <mxPoint x="497.97000000000025" y="596.5" as="targetPoint" />
          </mxGeometry>
        </mxCell>
        <mxCell id="_4IBZ-Op1HETno_acvwW-400" value="" style="endArrow=none;html=1;rounded=0;" parent="_4IBZ-Op1HETno_acvwW-272" edge="1">
          <mxGeometry width="50" height="50" relative="1" as="geometry">
            <mxPoint x="400" y="815" as="sourcePoint" />
            <mxPoint x="591" y="815" as="targetPoint" />
          </mxGeometry>
        </mxCell>
        <mxCell id="_4IBZ-Op1HETno_acvwW-401" value="" style="endArrow=none;html=1;rounded=0;entryX=0.5;entryY=0;entryDx=0;entryDy=0;" parent="_4IBZ-Op1HETno_acvwW-272" edge="1">
          <mxGeometry width="50" height="50" relative="1" as="geometry">
            <mxPoint x="498" y="815" as="sourcePoint" />
            <mxPoint x="497.97000000000025" y="786" as="targetPoint" />
          </mxGeometry>
        </mxCell>
        <mxCell id="_4IBZ-Op1HETno_acvwW-402" value="" style="endArrow=none;html=1;rounded=0;" parent="_4IBZ-Op1HETno_acvwW-272" edge="1">
          <mxGeometry width="50" height="50" relative="1" as="geometry">
            <mxPoint x="680" y="625.5" as="sourcePoint" />
            <mxPoint x="871" y="625.5" as="targetPoint" />
          </mxGeometry>
        </mxCell>
        <mxCell id="_4IBZ-Op1HETno_acvwW-403" value="" style="endArrow=none;html=1;rounded=0;entryX=0.5;entryY=0;entryDx=0;entryDy=0;" parent="_4IBZ-Op1HETno_acvwW-272" edge="1">
          <mxGeometry width="50" height="50" relative="1" as="geometry">
            <mxPoint x="778" y="625.5" as="sourcePoint" />
            <mxPoint x="777.9700000000003" y="596.5" as="targetPoint" />
          </mxGeometry>
        </mxCell>
        <mxCell id="_4IBZ-Op1HETno_acvwW-404" value="" style="endArrow=none;html=1;rounded=0;" parent="_4IBZ-Op1HETno_acvwW-272" edge="1">
          <mxGeometry width="50" height="50" relative="1" as="geometry">
            <mxPoint x="680" y="435.5" as="sourcePoint" />
            <mxPoint x="871" y="435.5" as="targetPoint" />
          </mxGeometry>
        </mxCell>
        <mxCell id="_4IBZ-Op1HETno_acvwW-405" value="" style="endArrow=none;html=1;rounded=0;entryX=0.5;entryY=0;entryDx=0;entryDy=0;" parent="_4IBZ-Op1HETno_acvwW-272" edge="1">
          <mxGeometry width="50" height="50" relative="1" as="geometry">
            <mxPoint x="778" y="435.5" as="sourcePoint" />
            <mxPoint x="777.9700000000003" y="406.5" as="targetPoint" />
          </mxGeometry>
        </mxCell>
        <mxCell id="_4IBZ-Op1HETno_acvwW-406" value="" style="endArrow=none;html=1;rounded=0;" parent="_4IBZ-Op1HETno_acvwW-272" edge="1">
          <mxGeometry width="50" height="50" relative="1" as="geometry">
            <mxPoint x="680" y="245.5" as="sourcePoint" />
            <mxPoint x="871" y="245.5" as="targetPoint" />
          </mxGeometry>
        </mxCell>
        <mxCell id="_4IBZ-Op1HETno_acvwW-407" value="" style="endArrow=none;html=1;rounded=0;entryX=0.5;entryY=0;entryDx=0;entryDy=0;" parent="_4IBZ-Op1HETno_acvwW-272" edge="1">
          <mxGeometry width="50" height="50" relative="1" as="geometry">
            <mxPoint x="778" y="245.5" as="sourcePoint" />
            <mxPoint x="777.9700000000003" y="216.5" as="targetPoint" />
          </mxGeometry>
        </mxCell>
        <mxCell id="_4IBZ-Op1HETno_acvwW-408" value="" style="endArrow=none;html=1;rounded=0;" parent="_4IBZ-Op1HETno_acvwW-272" edge="1">
          <mxGeometry width="50" height="50" relative="1" as="geometry">
            <mxPoint x="680" y="62.5" as="sourcePoint" />
            <mxPoint x="871" y="62.5" as="targetPoint" />
          </mxGeometry>
        </mxCell>
        <mxCell id="_4IBZ-Op1HETno_acvwW-409" value="" style="endArrow=none;html=1;rounded=0;entryX=0.5;entryY=0;entryDx=0;entryDy=0;" parent="_4IBZ-Op1HETno_acvwW-272" edge="1">
          <mxGeometry width="50" height="50" relative="1" as="geometry">
            <mxPoint x="778" y="62.5" as="sourcePoint" />
            <mxPoint x="777.9700000000003" y="33.5" as="targetPoint" />
          </mxGeometry>
        </mxCell>
        <mxCell id="_4IBZ-Op1HETno_acvwW-456" value="" style="endArrow=none;html=1;rounded=0;" parent="_4IBZ-Op1HETno_acvwW-272" edge="1">
          <mxGeometry width="50" height="50" relative="1" as="geometry">
            <mxPoint x="89" y="66.5" as="sourcePoint" />
            <mxPoint x="249" y="66.5" as="targetPoint" />
          </mxGeometry>
        </mxCell>
        <mxCell id="_4IBZ-Op1HETno_acvwW-457" value="" style="endArrow=none;html=1;rounded=0;entryX=0.5;entryY=0;entryDx=0;entryDy=0;" parent="_4IBZ-Op1HETno_acvwW-272" edge="1">
          <mxGeometry width="50" height="50" relative="1" as="geometry">
            <mxPoint x="170" y="66.5" as="sourcePoint" />
            <mxPoint x="169.97000000000025" y="37.5" as="targetPoint" />
          </mxGeometry>
        </mxCell>
        <mxCell id="_4IBZ-Op1HETno_acvwW-558" value="&lt;span style=&quot;font-size: 13px;&quot;&gt;2 - 44&lt;/span&gt;" style="text;html=1;strokeColor=none;fillColor=none;align=center;verticalAlign=middle;whiteSpace=wrap;rounded=0;" parent="_4IBZ-Op1HETno_acvwW-272" vertex="1">
          <mxGeometry x="110" y="43" width="51" height="14" as="geometry" />
        </mxCell>
        <mxCell id="_4IBZ-Op1HETno_acvwW-560" value="&lt;span style=&quot;font-size: 13px;&quot;&gt;SDP / 8&lt;/span&gt;" style="text;html=1;strokeColor=none;fillColor=none;align=center;verticalAlign=middle;whiteSpace=wrap;rounded=0;" parent="_4IBZ-Op1HETno_acvwW-272" vertex="1">
          <mxGeometry x="180" y="43" width="51" height="14" as="geometry" />
        </mxCell>
        <mxCell id="_4IBZ-Op1HETno_acvwW-565" value="&lt;span style=&quot;font-size: 13px;&quot;&gt;2 - 51&lt;/span&gt;" style="text;html=1;strokeColor=none;fillColor=none;align=center;verticalAlign=middle;whiteSpace=wrap;rounded=0;" parent="_4IBZ-Op1HETno_acvwW-272" vertex="1">
          <mxGeometry x="710" y="43" width="51" height="14" as="geometry" />
        </mxCell>
        <mxCell id="_4IBZ-Op1HETno_acvwW-566" value="&lt;span style=&quot;font-size: 13px;&quot;&gt;SDP / 8&lt;/span&gt;" style="text;html=1;strokeColor=none;fillColor=none;align=center;verticalAlign=middle;whiteSpace=wrap;rounded=0;" parent="_4IBZ-Op1HETno_acvwW-272" vertex="1">
          <mxGeometry x="800" y="43" width="51" height="14" as="geometry" />
        </mxCell>
        <mxCell id="_4IBZ-Op1HETno_acvwW-570" value="&lt;span style=&quot;font-size: 13px;&quot;&gt;2 - 52&lt;/span&gt;" style="text;html=1;strokeColor=none;fillColor=none;align=center;verticalAlign=middle;whiteSpace=wrap;rounded=0;" parent="_4IBZ-Op1HETno_acvwW-272" vertex="1">
          <mxGeometry x="710" y="223" width="51" height="14" as="geometry" />
        </mxCell>
        <mxCell id="_4IBZ-Op1HETno_acvwW-569" value="&lt;span style=&quot;font-size: 13px;&quot;&gt;SDP / 10&lt;/span&gt;" style="text;html=1;strokeColor=none;fillColor=none;align=center;verticalAlign=middle;whiteSpace=wrap;rounded=0;" parent="_4IBZ-Op1HETno_acvwW-272" vertex="1">
          <mxGeometry x="800" y="223" width="60" height="14" as="geometry" />
        </mxCell>
        <mxCell id="_4IBZ-Op1HETno_acvwW-571" value="&lt;span style=&quot;font-size: 13px;&quot;&gt;2 - 53&lt;/span&gt;" style="text;html=1;strokeColor=none;fillColor=none;align=center;verticalAlign=middle;whiteSpace=wrap;rounded=0;" parent="_4IBZ-Op1HETno_acvwW-272" vertex="1">
          <mxGeometry x="710" y="413" width="51" height="14" as="geometry" />
        </mxCell>
        <mxCell id="_4IBZ-Op1HETno_acvwW-572" value="&lt;span style=&quot;font-size: 13px;&quot;&gt;SDP / 13&lt;/span&gt;" style="text;html=1;strokeColor=none;fillColor=none;align=center;verticalAlign=middle;whiteSpace=wrap;rounded=0;" parent="_4IBZ-Op1HETno_acvwW-272" vertex="1">
          <mxGeometry x="800" y="413" width="70" height="14" as="geometry" />
        </mxCell>
        <mxCell id="_4IBZ-Op1HETno_acvwW-573" value="&lt;span style=&quot;font-size: 13px;&quot;&gt;2 - 54&lt;/span&gt;" style="text;html=1;strokeColor=none;fillColor=none;align=center;verticalAlign=middle;whiteSpace=wrap;rounded=0;" parent="_4IBZ-Op1HETno_acvwW-272" vertex="1">
          <mxGeometry x="700" y="603" width="51" height="14" as="geometry" />
        </mxCell>
        <mxCell id="_4IBZ-Op1HETno_acvwW-574" value="&lt;span style=&quot;font-size: 13px;&quot;&gt;SDP / 13&lt;/span&gt;" style="text;html=1;strokeColor=none;fillColor=none;align=center;verticalAlign=middle;whiteSpace=wrap;rounded=0;" parent="_4IBZ-Op1HETno_acvwW-272" vertex="1">
          <mxGeometry x="790" y="603" width="60" height="14" as="geometry" />
        </mxCell>
        <mxCell id="_4IBZ-Op1HETno_acvwW-575" value="&lt;span style=&quot;font-size: 13px;&quot;&gt;2 - 45&lt;/span&gt;" style="text;html=1;strokeColor=none;fillColor=none;align=center;verticalAlign=middle;whiteSpace=wrap;rounded=0;" parent="_4IBZ-Op1HETno_acvwW-272" vertex="1">
          <mxGeometry x="430" y="34" width="51" height="14" as="geometry" />
        </mxCell>
        <mxCell id="_4IBZ-Op1HETno_acvwW-576" value="&lt;span style=&quot;font-size: 13px;&quot;&gt;SDP / 8&lt;/span&gt;" style="text;html=1;strokeColor=none;fillColor=none;align=center;verticalAlign=middle;whiteSpace=wrap;rounded=0;" parent="_4IBZ-Op1HETno_acvwW-272" vertex="1">
          <mxGeometry x="510" y="34" width="51" height="14" as="geometry" />
        </mxCell>
        <mxCell id="_4IBZ-Op1HETno_acvwW-577" value="&lt;span style=&quot;font-size: 13px;&quot;&gt;2 - 46&lt;/span&gt;" style="text;html=1;strokeColor=none;fillColor=none;align=center;verticalAlign=middle;whiteSpace=wrap;rounded=0;" parent="_4IBZ-Op1HETno_acvwW-272" vertex="1">
          <mxGeometry x="420" y="223" width="51" height="14" as="geometry" />
        </mxCell>
        <mxCell id="_4IBZ-Op1HETno_acvwW-578" value="&lt;span style=&quot;font-size: 13px;&quot;&gt;SDP / 10&lt;/span&gt;" style="text;html=1;strokeColor=none;fillColor=none;align=center;verticalAlign=middle;whiteSpace=wrap;rounded=0;" parent="_4IBZ-Op1HETno_acvwW-272" vertex="1">
          <mxGeometry x="510" y="223" width="60" height="14" as="geometry" />
        </mxCell>
        <mxCell id="_4IBZ-Op1HETno_acvwW-579" value="&lt;span style=&quot;font-size: 13px;&quot;&gt;2 - 47&lt;/span&gt;" style="text;html=1;strokeColor=none;fillColor=none;align=center;verticalAlign=middle;whiteSpace=wrap;rounded=0;" parent="_4IBZ-Op1HETno_acvwW-272" vertex="1">
          <mxGeometry x="420" y="413" width="51" height="14" as="geometry" />
        </mxCell>
        <mxCell id="_4IBZ-Op1HETno_acvwW-580" value="&lt;span style=&quot;font-size: 13px;&quot;&gt;SDP / 13&lt;/span&gt;" style="text;html=1;strokeColor=none;fillColor=none;align=center;verticalAlign=middle;whiteSpace=wrap;rounded=0;" parent="_4IBZ-Op1HETno_acvwW-272" vertex="1">
          <mxGeometry x="510" y="413" width="60" height="14" as="geometry" />
        </mxCell>
        <mxCell id="_4IBZ-Op1HETno_acvwW-583" value="&lt;span style=&quot;font-size: 13px;&quot;&gt;2 - 48&lt;/span&gt;" style="text;html=1;strokeColor=none;fillColor=none;align=center;verticalAlign=middle;whiteSpace=wrap;rounded=0;" parent="_4IBZ-Op1HETno_acvwW-272" vertex="1">
          <mxGeometry x="420" y="603" width="51" height="14" as="geometry" />
        </mxCell>
        <mxCell id="_4IBZ-Op1HETno_acvwW-581" value="&lt;span style=&quot;font-size: 13px;&quot;&gt;SDP / 13&lt;/span&gt;" style="text;html=1;strokeColor=none;fillColor=none;align=center;verticalAlign=middle;whiteSpace=wrap;rounded=0;" parent="_4IBZ-Op1HETno_acvwW-272" vertex="1">
          <mxGeometry x="510" y="603" width="60" height="14" as="geometry" />
        </mxCell>
        <mxCell id="_4IBZ-Op1HETno_acvwW-584" value="&lt;span style=&quot;font-size: 13px;&quot;&gt;2 - 49&lt;/span&gt;" style="text;html=1;strokeColor=none;fillColor=none;align=center;verticalAlign=middle;whiteSpace=wrap;rounded=0;" parent="_4IBZ-Op1HETno_acvwW-272" vertex="1">
          <mxGeometry x="420" y="793" width="51" height="14" as="geometry" />
        </mxCell>
        <mxCell id="_4IBZ-Op1HETno_acvwW-585" value="&lt;span style=&quot;font-size: 13px;&quot;&gt;SDP / 13&lt;/span&gt;" style="text;html=1;strokeColor=none;fillColor=none;align=center;verticalAlign=middle;whiteSpace=wrap;rounded=0;" parent="_4IBZ-Op1HETno_acvwW-272" vertex="1">
          <mxGeometry x="510" y="793" width="70" height="14" as="geometry" />
        </mxCell>
        <mxCell id="DZtiqlgdvekkQqqCtOq4-13" value="can the effective date be renegotiated to meet AIRAC" style="text;html=1;strokeColor=none;fillColor=none;align=center;verticalAlign=middle;whiteSpace=wrap;rounded=0;" vertex="1" parent="_4IBZ-Op1HETno_acvwW-272">
          <mxGeometry x="94" y="80.5" width="150" height="22" as="geometry" />
        </mxCell>
        <mxCell id="_4IBZ-Op1HETno_acvwW-291" style="edgeStyle=orthogonalEdgeStyle;rounded=0;orthogonalLoop=1;jettySize=auto;html=1;entryX=0.5;entryY=0;entryDx=0;entryDy=0;" parent="1" source="_4IBZ-Op1HETno_acvwW-293" target="_4IBZ-Op1HETno_acvwW-284" edge="1">
          <mxGeometry relative="1" as="geometry" />
        </mxCell>
        <mxCell id="_4IBZ-Op1HETno_acvwW-292" style="edgeStyle=orthogonalEdgeStyle;rounded=0;orthogonalLoop=1;jettySize=auto;html=1;exitX=1;exitY=0.5;exitDx=0;exitDy=0;" parent="1" source="_4IBZ-Op1HETno_acvwW-293" target="_4IBZ-Op1HETno_acvwW-294" edge="1">
          <mxGeometry relative="1" as="geometry" />
        </mxCell>
        <mxCell id="_4IBZ-Op1HETno_acvwW-293" value="" style="verticalLabelPosition=middle;verticalAlign=middle;html=1;shape=trapezoid;perimeter=trapezoidPerimeter;whiteSpace=wrap;size=0.23;arcSize=10;flipV=1;labelPosition=center;align=center;" parent="1" vertex="1">
          <mxGeometry x="3800" y="1718" width="210" height="111" as="geometry" />
        </mxCell>
        <mxCell id="_4IBZ-Op1HETno_acvwW-294" value="Prepare an AIP Supplement" style="rounded=1;whiteSpace=wrap;html=1;arcSize=10;" parent="1" vertex="1">
          <mxGeometry x="4170" y="1716" width="191" height="115" as="geometry" />
        </mxCell>
        <mxCell id="_4IBZ-Op1HETno_acvwW-295" value="Issue an AIP Supplement" style="rounded=1;whiteSpace=wrap;html=1;arcSize=10;" parent="1" vertex="1">
          <mxGeometry x="4170" y="1899.5" width="191" height="115" as="geometry" />
        </mxCell>
        <mxCell id="_4IBZ-Op1HETno_acvwW-296" value="" style="edgeStyle=orthogonalEdgeStyle;rounded=0;orthogonalLoop=1;jettySize=auto;html=1;" parent="1" source="_4IBZ-Op1HETno_acvwW-294" target="_4IBZ-Op1HETno_acvwW-295" edge="1">
          <mxGeometry relative="1" as="geometry" />
        </mxCell>
        <mxCell id="_4IBZ-Op1HETno_acvwW-298" style="edgeStyle=orthogonalEdgeStyle;rounded=0;orthogonalLoop=1;jettySize=auto;html=1;entryX=1;entryY=0.5;entryDx=0;entryDy=0;" parent="1" source="_4IBZ-Op1HETno_acvwW-273" target="_4IBZ-Op1HETno_acvwW-263" edge="1">
          <mxGeometry relative="1" as="geometry">
            <Array as="points">
              <mxPoint x="3299" y="2213" />
            </Array>
          </mxGeometry>
        </mxCell>
        <mxCell id="DZtiqlgdvekkQqqCtOq4-9" value="YES" style="edgeLabel;html=1;align=center;verticalAlign=middle;resizable=0;points=[];" vertex="1" connectable="0" parent="_4IBZ-Op1HETno_acvwW-298">
          <mxGeometry x="-0.5799" relative="1" as="geometry">
            <mxPoint as="offset" />
          </mxGeometry>
        </mxCell>
        <mxCell id="_4IBZ-Op1HETno_acvwW-299" value="" style="endArrow=none;html=1;rounded=0;exitX=0;exitY=0.25;exitDx=0;exitDy=0;entryX=1;entryY=0.25;entryDx=0;entryDy=0;" parent="1" edge="1">
          <mxGeometry width="50" height="50" relative="1" as="geometry">
            <mxPoint x="-34.68181818181802" y="-158.75" as="sourcePoint" />
            <mxPoint x="155.75" y="-160.125" as="targetPoint" />
          </mxGeometry>
        </mxCell>
        <mxCell id="_4IBZ-Op1HETno_acvwW-300" value="" style="endArrow=none;html=1;rounded=0;entryX=0.5;entryY=0;entryDx=0;entryDy=0;" parent="1" edge="1">
          <mxGeometry width="50" height="50" relative="1" as="geometry">
            <mxPoint x="50" y="-160" as="sourcePoint" />
            <mxPoint x="58" y="-186" as="targetPoint" />
          </mxGeometry>
        </mxCell>
        <mxCell id="_4IBZ-Op1HETno_acvwW-301" value="&lt;font style=&quot;font-size: 16px;&quot;&gt;SPD / 0&lt;/font&gt;" style="text;html=1;strokeColor=none;fillColor=none;align=center;verticalAlign=middle;whiteSpace=wrap;rounded=0;" parent="1" vertex="1">
          <mxGeometry x="70" y="-186" width="60" height="30" as="geometry" />
        </mxCell>
        <mxCell id="_4IBZ-Op1HETno_acvwW-302" value="Data Provider ( Data Originator ) Identified" style="text;html=1;strokeColor=none;fillColor=none;align=center;verticalAlign=middle;whiteSpace=wrap;rounded=0;" parent="1" vertex="1">
          <mxGeometry x="-16" y="-150" width="140" height="60" as="geometry" />
        </mxCell>
        <mxCell id="_4IBZ-Op1HETno_acvwW-303" value="" style="endArrow=none;html=1;rounded=0;" parent="1" edge="1">
          <mxGeometry width="50" height="50" relative="1" as="geometry">
            <mxPoint x="-50" y="60" as="sourcePoint" />
            <mxPoint x="162" y="60" as="targetPoint" />
          </mxGeometry>
        </mxCell>
        <mxCell id="_4IBZ-Op1HETno_acvwW-304" value="" style="endArrow=none;html=1;rounded=0;entryX=0.5;entryY=0;entryDx=0;entryDy=0;" parent="1" edge="1">
          <mxGeometry width="50" height="50" relative="1" as="geometry">
            <mxPoint x="53" y="60" as="sourcePoint" />
            <mxPoint x="52.97" y="31" as="targetPoint" />
          </mxGeometry>
        </mxCell>
        <mxCell id="_4IBZ-Op1HETno_acvwW-305" value="&lt;font style=&quot;font-size: 16px;&quot;&gt;SDP / 0&lt;/font&gt;" style="text;html=1;strokeColor=none;fillColor=none;align=center;verticalAlign=middle;whiteSpace=wrap;rounded=0;" parent="1" vertex="1">
          <mxGeometry x="70" y="31" width="60" height="30" as="geometry" />
        </mxCell>
        <mxCell id="_4IBZ-Op1HETno_acvwW-306" value="Raw Data Provided" style="text;html=1;strokeColor=none;fillColor=none;align=center;verticalAlign=middle;whiteSpace=wrap;rounded=0;" parent="1" vertex="1">
          <mxGeometry x="-1" y="85" width="110" height="35" as="geometry" />
        </mxCell>
        <mxCell id="_4IBZ-Op1HETno_acvwW-307" value="" style="endArrow=none;html=1;rounded=0;" parent="1" edge="1">
          <mxGeometry width="50" height="50" relative="1" as="geometry">
            <mxPoint x="-51" y="288" as="sourcePoint" />
            <mxPoint x="161" y="288" as="targetPoint" />
          </mxGeometry>
        </mxCell>
        <mxCell id="_4IBZ-Op1HETno_acvwW-308" value="" style="endArrow=none;html=1;rounded=0;entryX=0.5;entryY=0;entryDx=0;entryDy=0;" parent="1" edge="1">
          <mxGeometry width="50" height="50" relative="1" as="geometry">
            <mxPoint x="52" y="288" as="sourcePoint" />
            <mxPoint x="51.97" y="259" as="targetPoint" />
          </mxGeometry>
        </mxCell>
        <mxCell id="_4IBZ-Op1HETno_acvwW-309" value="&lt;font style=&quot;font-size: 16px;&quot;&gt;1 - 1&lt;/font&gt;" style="text;html=1;strokeColor=none;fillColor=none;align=center;verticalAlign=middle;whiteSpace=wrap;rounded=0;" parent="1" vertex="1">
          <mxGeometry x="-30" y="259" width="60" height="30" as="geometry" />
        </mxCell>
        <mxCell id="_4IBZ-Op1HETno_acvwW-310" value="&lt;font style=&quot;font-size: 16px;&quot;&gt;SDP / 1&lt;/font&gt;" style="text;html=1;strokeColor=none;fillColor=none;align=center;verticalAlign=middle;whiteSpace=wrap;rounded=0;" parent="1" vertex="1">
          <mxGeometry x="80" y="259" width="60" height="30" as="geometry" />
        </mxCell>
        <mxCell id="_4IBZ-Op1HETno_acvwW-311" value="" style="endArrow=none;html=1;rounded=0;exitX=0.151;exitY=0.224;exitDx=0;exitDy=0;exitPerimeter=0;" parent="1" source="_4IBZ-Op1HETno_acvwW-208" edge="1">
          <mxGeometry width="50" height="50" relative="1" as="geometry">
            <mxPoint x="-47" y="478" as="sourcePoint" />
            <mxPoint x="130" y="479" as="targetPoint" />
          </mxGeometry>
        </mxCell>
        <mxCell id="_4IBZ-Op1HETno_acvwW-312" value="" style="endArrow=none;html=1;rounded=0;entryX=0.5;entryY=0;entryDx=0;entryDy=0;" parent="1" edge="1">
          <mxGeometry width="50" height="50" relative="1" as="geometry">
            <mxPoint x="56" y="479" as="sourcePoint" />
            <mxPoint x="55.97" y="450" as="targetPoint" />
          </mxGeometry>
        </mxCell>
        <mxCell id="_4IBZ-Op1HETno_acvwW-313" value="&lt;font style=&quot;font-size: 13px;&quot;&gt;SDP / 2&lt;/font&gt;" style="text;html=1;strokeColor=none;fillColor=none;align=center;verticalAlign=middle;whiteSpace=wrap;rounded=0;" parent="1" vertex="1">
          <mxGeometry x="59" y="455" width="50" height="20" as="geometry" />
        </mxCell>
        <mxCell id="_4IBZ-Op1HETno_acvwW-314" value="&lt;span style=&quot;font-size: 16px;&quot;&gt;1 - 2&lt;/span&gt;" style="text;html=1;strokeColor=none;fillColor=none;align=center;verticalAlign=middle;whiteSpace=wrap;rounded=0;" parent="1" vertex="1">
          <mxGeometry x="-1" y="455" width="50" height="20" as="geometry" />
        </mxCell>
        <mxCell id="_4IBZ-Op1HETno_acvwW-315" value="is the intent of the Raw Data fully understood?" style="text;html=1;strokeColor=none;fillColor=none;align=center;verticalAlign=middle;whiteSpace=wrap;rounded=0;" parent="1" vertex="1">
          <mxGeometry x="-16" y="510" width="150" height="30" as="geometry" />
        </mxCell>
        <mxCell id="_4IBZ-Op1HETno_acvwW-316" value="" style="endArrow=none;html=1;rounded=0;" parent="1" edge="1">
          <mxGeometry width="50" height="50" relative="1" as="geometry">
            <mxPoint x="403" y="484" as="sourcePoint" />
            <mxPoint x="615" y="484" as="targetPoint" />
          </mxGeometry>
        </mxCell>
        <mxCell id="_4IBZ-Op1HETno_acvwW-317" value="" style="endArrow=none;html=1;rounded=0;entryX=0.5;entryY=0;entryDx=0;entryDy=0;" parent="1" edge="1">
          <mxGeometry width="50" height="50" relative="1" as="geometry">
            <mxPoint x="506" y="484" as="sourcePoint" />
            <mxPoint x="505.97" y="455" as="targetPoint" />
          </mxGeometry>
        </mxCell>
        <mxCell id="_4IBZ-Op1HETno_acvwW-318" value="&lt;font style=&quot;font-size: 15px;&quot;&gt;SDP / 2&lt;/font&gt;" style="text;html=1;strokeColor=none;fillColor=none;align=center;verticalAlign=middle;whiteSpace=wrap;rounded=0;" parent="1" vertex="1">
          <mxGeometry x="520" y="455" width="70" height="30" as="geometry" />
        </mxCell>
        <mxCell id="_4IBZ-Op1HETno_acvwW-319" value="&lt;span style=&quot;font-size: 16px;&quot;&gt;1 - 3&lt;/span&gt;" style="text;html=1;strokeColor=none;fillColor=none;align=center;verticalAlign=middle;whiteSpace=wrap;rounded=0;" parent="1" vertex="1">
          <mxGeometry x="420" y="455" width="70" height="30" as="geometry" />
        </mxCell>
        <mxCell id="_4IBZ-Op1HETno_acvwW-322" value="" style="endArrow=none;html=1;rounded=0;exitX=0.144;exitY=0.232;exitDx=0;exitDy=0;exitPerimeter=0;entryX=0.854;entryY=0.232;entryDx=0;entryDy=0;entryPerimeter=0;" parent="1" source="_4IBZ-Op1HETno_acvwW-209" target="_4IBZ-Op1HETno_acvwW-209" edge="1">
          <mxGeometry width="50" height="50" relative="1" as="geometry">
            <mxPoint x="-50.5" y="700" as="sourcePoint" />
            <mxPoint x="161.5" y="700" as="targetPoint" />
          </mxGeometry>
        </mxCell>
        <mxCell id="_4IBZ-Op1HETno_acvwW-323" value="" style="endArrow=none;html=1;rounded=0;entryX=0.5;entryY=0;entryDx=0;entryDy=0;" parent="1" edge="1">
          <mxGeometry width="50" height="50" relative="1" as="geometry">
            <mxPoint x="52.5" y="700" as="sourcePoint" />
            <mxPoint x="52.47" y="671" as="targetPoint" />
          </mxGeometry>
        </mxCell>
        <mxCell id="_4IBZ-Op1HETno_acvwW-324" value="" style="endArrow=none;html=1;rounded=0;exitX=0.144;exitY=0.232;exitDx=0;exitDy=0;exitPerimeter=0;entryX=0.854;entryY=0.232;entryDx=0;entryDy=0;entryPerimeter=0;" parent="1" edge="1">
          <mxGeometry width="50" height="50" relative="1" as="geometry">
            <mxPoint x="-22.5" y="931" as="sourcePoint" />
            <mxPoint x="133.5" y="931" as="targetPoint" />
          </mxGeometry>
        </mxCell>
        <mxCell id="_4IBZ-Op1HETno_acvwW-325" value="" style="endArrow=none;html=1;rounded=0;entryX=0.5;entryY=0;entryDx=0;entryDy=0;" parent="1" edge="1">
          <mxGeometry width="50" height="50" relative="1" as="geometry">
            <mxPoint x="53" y="930" as="sourcePoint" />
            <mxPoint x="52.97" y="901" as="targetPoint" />
          </mxGeometry>
        </mxCell>
        <mxCell id="_4IBZ-Op1HETno_acvwW-326" value="" style="endArrow=none;html=1;rounded=0;exitX=0.144;exitY=0.232;exitDx=0;exitDy=0;exitPerimeter=0;entryX=0.854;entryY=0.232;entryDx=0;entryDy=0;entryPerimeter=0;" parent="1" edge="1">
          <mxGeometry width="50" height="50" relative="1" as="geometry">
            <mxPoint x="-23" y="1379" as="sourcePoint" />
            <mxPoint x="133" y="1379" as="targetPoint" />
          </mxGeometry>
        </mxCell>
        <mxCell id="_4IBZ-Op1HETno_acvwW-327" value="" style="endArrow=none;html=1;rounded=0;entryX=0.5;entryY=0;entryDx=0;entryDy=0;" parent="1" edge="1">
          <mxGeometry width="50" height="50" relative="1" as="geometry">
            <mxPoint x="52.5" y="1378" as="sourcePoint" />
            <mxPoint x="52.47" y="1349" as="targetPoint" />
          </mxGeometry>
        </mxCell>
        <mxCell id="_4IBZ-Op1HETno_acvwW-328" value="" style="endArrow=none;html=1;rounded=0;exitX=0.144;exitY=0.232;exitDx=0;exitDy=0;exitPerimeter=0;entryX=0.854;entryY=0.232;entryDx=0;entryDy=0;entryPerimeter=0;" parent="1" edge="1">
          <mxGeometry width="50" height="50" relative="1" as="geometry">
            <mxPoint x="-22" y="1800" as="sourcePoint" />
            <mxPoint x="134" y="1800" as="targetPoint" />
          </mxGeometry>
        </mxCell>
        <mxCell id="_4IBZ-Op1HETno_acvwW-329" value="" style="endArrow=none;html=1;rounded=0;entryX=0.5;entryY=0;entryDx=0;entryDy=0;" parent="1" edge="1">
          <mxGeometry width="50" height="50" relative="1" as="geometry">
            <mxPoint x="53.5" y="1799" as="sourcePoint" />
            <mxPoint x="53.47" y="1770" as="targetPoint" />
          </mxGeometry>
        </mxCell>
        <mxCell id="_4IBZ-Op1HETno_acvwW-330" value="" style="endArrow=none;html=1;rounded=0;" parent="1" edge="1">
          <mxGeometry width="50" height="50" relative="1" as="geometry">
            <mxPoint x="401.5" y="704" as="sourcePoint" />
            <mxPoint x="613.5" y="704" as="targetPoint" />
          </mxGeometry>
        </mxCell>
        <mxCell id="_4IBZ-Op1HETno_acvwW-331" value="" style="endArrow=none;html=1;rounded=0;entryX=0.5;entryY=0;entryDx=0;entryDy=0;" parent="1" edge="1">
          <mxGeometry width="50" height="50" relative="1" as="geometry">
            <mxPoint x="504.5" y="704" as="sourcePoint" />
            <mxPoint x="504.47" y="675" as="targetPoint" />
          </mxGeometry>
        </mxCell>
        <mxCell id="_4IBZ-Op1HETno_acvwW-332" value="" style="endArrow=none;html=1;rounded=0;" parent="1" edge="1">
          <mxGeometry width="50" height="50" relative="1" as="geometry">
            <mxPoint x="403" y="935" as="sourcePoint" />
            <mxPoint x="615" y="935" as="targetPoint" />
          </mxGeometry>
        </mxCell>
        <mxCell id="_4IBZ-Op1HETno_acvwW-333" value="" style="endArrow=none;html=1;rounded=0;entryX=0.5;entryY=0;entryDx=0;entryDy=0;" parent="1" edge="1">
          <mxGeometry width="50" height="50" relative="1" as="geometry">
            <mxPoint x="506" y="935" as="sourcePoint" />
            <mxPoint x="505.97" y="906" as="targetPoint" />
          </mxGeometry>
        </mxCell>
        <mxCell id="_4IBZ-Op1HETno_acvwW-334" value="" style="endArrow=none;html=1;rounded=0;" parent="1" edge="1">
          <mxGeometry width="50" height="50" relative="1" as="geometry">
            <mxPoint x="-52" y="1169" as="sourcePoint" />
            <mxPoint x="160" y="1169" as="targetPoint" />
          </mxGeometry>
        </mxCell>
        <mxCell id="_4IBZ-Op1HETno_acvwW-335" value="" style="endArrow=none;html=1;rounded=0;entryX=0.5;entryY=0;entryDx=0;entryDy=0;" parent="1" edge="1">
          <mxGeometry width="50" height="50" relative="1" as="geometry">
            <mxPoint x="51" y="1169" as="sourcePoint" />
            <mxPoint x="50.97000000000003" y="1140" as="targetPoint" />
          </mxGeometry>
        </mxCell>
        <mxCell id="_4IBZ-Op1HETno_acvwW-336" value="" style="endArrow=none;html=1;rounded=0;" parent="1" edge="1">
          <mxGeometry width="50" height="50" relative="1" as="geometry">
            <mxPoint x="401" y="1382" as="sourcePoint" />
            <mxPoint x="613" y="1382" as="targetPoint" />
          </mxGeometry>
        </mxCell>
        <mxCell id="_4IBZ-Op1HETno_acvwW-337" value="" style="endArrow=none;html=1;rounded=0;entryX=0.5;entryY=0;entryDx=0;entryDy=0;" parent="1" edge="1">
          <mxGeometry width="50" height="50" relative="1" as="geometry">
            <mxPoint x="504" y="1382" as="sourcePoint" />
            <mxPoint x="503.97" y="1353" as="targetPoint" />
          </mxGeometry>
        </mxCell>
        <mxCell id="_4IBZ-Op1HETno_acvwW-338" value="" style="endArrow=none;html=1;rounded=0;" parent="1" edge="1">
          <mxGeometry width="50" height="50" relative="1" as="geometry">
            <mxPoint x="-50" y="1599" as="sourcePoint" />
            <mxPoint x="162" y="1599" as="targetPoint" />
          </mxGeometry>
        </mxCell>
        <mxCell id="_4IBZ-Op1HETno_acvwW-339" value="" style="endArrow=none;html=1;rounded=0;entryX=0.5;entryY=0;entryDx=0;entryDy=0;" parent="1" edge="1">
          <mxGeometry width="50" height="50" relative="1" as="geometry">
            <mxPoint x="53" y="1599" as="sourcePoint" />
            <mxPoint x="52.97000000000003" y="1570" as="targetPoint" />
          </mxGeometry>
        </mxCell>
        <mxCell id="_4IBZ-Op1HETno_acvwW-340" value="" style="endArrow=none;html=1;rounded=0;" parent="1" edge="1">
          <mxGeometry width="50" height="50" relative="1" as="geometry">
            <mxPoint x="404" y="1804" as="sourcePoint" />
            <mxPoint x="616" y="1804" as="targetPoint" />
          </mxGeometry>
        </mxCell>
        <mxCell id="_4IBZ-Op1HETno_acvwW-341" value="" style="endArrow=none;html=1;rounded=0;entryX=0.5;entryY=0;entryDx=0;entryDy=0;" parent="1" edge="1">
          <mxGeometry width="50" height="50" relative="1" as="geometry">
            <mxPoint x="507" y="1804" as="sourcePoint" />
            <mxPoint x="506.97" y="1775" as="targetPoint" />
          </mxGeometry>
        </mxCell>
        <mxCell id="_4IBZ-Op1HETno_acvwW-342" value="" style="endArrow=none;html=1;rounded=0;" parent="1" edge="1">
          <mxGeometry width="50" height="50" relative="1" as="geometry">
            <mxPoint x="-50.5" y="2019.02" as="sourcePoint" />
            <mxPoint x="161.5" y="2019.02" as="targetPoint" />
          </mxGeometry>
        </mxCell>
        <mxCell id="_4IBZ-Op1HETno_acvwW-343" value="" style="endArrow=none;html=1;rounded=0;entryX=0.5;entryY=0;entryDx=0;entryDy=0;" parent="1" edge="1">
          <mxGeometry width="50" height="50" relative="1" as="geometry">
            <mxPoint x="52.5" y="2019.02" as="sourcePoint" />
            <mxPoint x="52.47000000000003" y="1990.02" as="targetPoint" />
          </mxGeometry>
        </mxCell>
        <mxCell id="_4IBZ-Op1HETno_acvwW-344" value="" style="endArrow=none;html=1;rounded=0;" parent="1" edge="1">
          <mxGeometry width="50" height="50" relative="1" as="geometry">
            <mxPoint x="-50" y="2249" as="sourcePoint" />
            <mxPoint x="162" y="2249" as="targetPoint" />
          </mxGeometry>
        </mxCell>
        <mxCell id="_4IBZ-Op1HETno_acvwW-345" value="" style="endArrow=none;html=1;rounded=0;entryX=0.5;entryY=0;entryDx=0;entryDy=0;" parent="1" edge="1">
          <mxGeometry width="50" height="50" relative="1" as="geometry">
            <mxPoint x="53" y="2249" as="sourcePoint" />
            <mxPoint x="52.97000000000003" y="2220" as="targetPoint" />
          </mxGeometry>
        </mxCell>
        <mxCell id="_4IBZ-Op1HETno_acvwW-346" value="" style="endArrow=none;html=1;rounded=0;" parent="1" edge="1">
          <mxGeometry width="50" height="50" relative="1" as="geometry">
            <mxPoint x="1350" y="-6" as="sourcePoint" />
            <mxPoint x="1562" y="-6" as="targetPoint" />
          </mxGeometry>
        </mxCell>
        <mxCell id="_4IBZ-Op1HETno_acvwW-347" value="" style="endArrow=none;html=1;rounded=0;entryX=0.5;entryY=0;entryDx=0;entryDy=0;" parent="1" edge="1">
          <mxGeometry width="50" height="50" relative="1" as="geometry">
            <mxPoint x="1453" y="-6" as="sourcePoint" />
            <mxPoint x="1452.97" y="-35" as="targetPoint" />
          </mxGeometry>
        </mxCell>
        <mxCell id="_4IBZ-Op1HETno_acvwW-348" value="" style="endArrow=none;html=1;rounded=0;" parent="1" edge="1">
          <mxGeometry width="50" height="50" relative="1" as="geometry">
            <mxPoint x="1704" y="-6" as="sourcePoint" />
            <mxPoint x="1916" y="-6" as="targetPoint" />
          </mxGeometry>
        </mxCell>
        <mxCell id="_4IBZ-Op1HETno_acvwW-349" value="" style="endArrow=none;html=1;rounded=0;entryX=0.5;entryY=0;entryDx=0;entryDy=0;" parent="1" edge="1">
          <mxGeometry width="50" height="50" relative="1" as="geometry">
            <mxPoint x="1807" y="-6" as="sourcePoint" />
            <mxPoint x="1806.97" y="-35" as="targetPoint" />
          </mxGeometry>
        </mxCell>
        <mxCell id="_4IBZ-Op1HETno_acvwW-350" value="" style="endArrow=none;html=1;rounded=0;" parent="1" edge="1">
          <mxGeometry width="50" height="50" relative="1" as="geometry">
            <mxPoint x="1014" y="809" as="sourcePoint" />
            <mxPoint x="1226" y="809" as="targetPoint" />
          </mxGeometry>
        </mxCell>
        <mxCell id="_4IBZ-Op1HETno_acvwW-351" value="" style="endArrow=none;html=1;rounded=0;entryX=0.5;entryY=0;entryDx=0;entryDy=0;" parent="1" edge="1">
          <mxGeometry width="50" height="50" relative="1" as="geometry">
            <mxPoint x="1117" y="809" as="sourcePoint" />
            <mxPoint x="1116.97" y="780" as="targetPoint" />
          </mxGeometry>
        </mxCell>
        <mxCell id="_4IBZ-Op1HETno_acvwW-352" value="" style="endArrow=none;html=1;rounded=0;" parent="1" edge="1">
          <mxGeometry width="50" height="50" relative="1" as="geometry">
            <mxPoint x="1014.5" y="1030.05" as="sourcePoint" />
            <mxPoint x="1226.5" y="1030.05" as="targetPoint" />
          </mxGeometry>
        </mxCell>
        <mxCell id="_4IBZ-Op1HETno_acvwW-353" value="" style="endArrow=none;html=1;rounded=0;entryX=0.5;entryY=0;entryDx=0;entryDy=0;" parent="1" edge="1">
          <mxGeometry width="50" height="50" relative="1" as="geometry">
            <mxPoint x="1117.5" y="1030.05" as="sourcePoint" />
            <mxPoint x="1117.47" y="1001.05" as="targetPoint" />
          </mxGeometry>
        </mxCell>
        <mxCell id="_4IBZ-Op1HETno_acvwW-354" value="" style="endArrow=none;html=1;rounded=0;" parent="1" edge="1">
          <mxGeometry width="50" height="50" relative="1" as="geometry">
            <mxPoint x="1013" y="1259" as="sourcePoint" />
            <mxPoint x="1225" y="1259" as="targetPoint" />
          </mxGeometry>
        </mxCell>
        <mxCell id="_4IBZ-Op1HETno_acvwW-355" value="" style="endArrow=none;html=1;rounded=0;entryX=0.5;entryY=0;entryDx=0;entryDy=0;" parent="1" edge="1">
          <mxGeometry width="50" height="50" relative="1" as="geometry">
            <mxPoint x="1116" y="1259" as="sourcePoint" />
            <mxPoint x="1115.97" y="1230" as="targetPoint" />
          </mxGeometry>
        </mxCell>
        <mxCell id="_4IBZ-Op1HETno_acvwW-356" value="" style="endArrow=none;html=1;rounded=0;" parent="1" edge="1">
          <mxGeometry width="50" height="50" relative="1" as="geometry">
            <mxPoint x="1014" y="2099" as="sourcePoint" />
            <mxPoint x="1226" y="2099" as="targetPoint" />
          </mxGeometry>
        </mxCell>
        <mxCell id="_4IBZ-Op1HETno_acvwW-357" value="" style="endArrow=none;html=1;rounded=0;entryX=0.5;entryY=0;entryDx=0;entryDy=0;" parent="1" edge="1">
          <mxGeometry width="50" height="50" relative="1" as="geometry">
            <mxPoint x="1117" y="2099" as="sourcePoint" />
            <mxPoint x="1116.97" y="2070" as="targetPoint" />
          </mxGeometry>
        </mxCell>
        <mxCell id="_4IBZ-Op1HETno_acvwW-358" value="" style="endArrow=none;html=1;rounded=0;" parent="1" edge="1">
          <mxGeometry width="50" height="50" relative="1" as="geometry">
            <mxPoint x="1014" y="2299" as="sourcePoint" />
            <mxPoint x="1226" y="2299" as="targetPoint" />
          </mxGeometry>
        </mxCell>
        <mxCell id="_4IBZ-Op1HETno_acvwW-359" value="" style="endArrow=none;html=1;rounded=0;entryX=0.5;entryY=0;entryDx=0;entryDy=0;" parent="1" edge="1">
          <mxGeometry width="50" height="50" relative="1" as="geometry">
            <mxPoint x="1117" y="2299" as="sourcePoint" />
            <mxPoint x="1116.97" y="2270" as="targetPoint" />
          </mxGeometry>
        </mxCell>
        <mxCell id="_4IBZ-Op1HETno_acvwW-360" value="" style="endArrow=none;html=1;rounded=0;" parent="1" edge="1">
          <mxGeometry width="50" height="50" relative="1" as="geometry">
            <mxPoint x="1015.5" y="2509" as="sourcePoint" />
            <mxPoint x="1227.5" y="2509" as="targetPoint" />
          </mxGeometry>
        </mxCell>
        <mxCell id="_4IBZ-Op1HETno_acvwW-361" value="" style="endArrow=none;html=1;rounded=0;entryX=0.5;entryY=0;entryDx=0;entryDy=0;" parent="1" edge="1">
          <mxGeometry width="50" height="50" relative="1" as="geometry">
            <mxPoint x="1118.5" y="2509" as="sourcePoint" />
            <mxPoint x="1118.47" y="2480" as="targetPoint" />
          </mxGeometry>
        </mxCell>
        <mxCell id="_4IBZ-Op1HETno_acvwW-362" value="" style="endArrow=none;html=1;rounded=0;" parent="1" edge="1">
          <mxGeometry width="50" height="50" relative="1" as="geometry">
            <mxPoint x="2400" y="1675" as="sourcePoint" />
            <mxPoint x="2591" y="1675" as="targetPoint" />
          </mxGeometry>
        </mxCell>
        <mxCell id="_4IBZ-Op1HETno_acvwW-363" value="" style="endArrow=none;html=1;rounded=0;entryX=0.5;entryY=0;entryDx=0;entryDy=0;" parent="1" edge="1">
          <mxGeometry width="50" height="50" relative="1" as="geometry">
            <mxPoint x="2498" y="1675" as="sourcePoint" />
            <mxPoint x="2497.9700000000003" y="1646" as="targetPoint" />
          </mxGeometry>
        </mxCell>
        <mxCell id="_4IBZ-Op1HETno_acvwW-366" value="" style="endArrow=none;html=1;rounded=0;" parent="1" edge="1">
          <mxGeometry width="50" height="50" relative="1" as="geometry">
            <mxPoint x="2400" y="1857.8" as="sourcePoint" />
            <mxPoint x="2591" y="1857.8" as="targetPoint" />
          </mxGeometry>
        </mxCell>
        <mxCell id="_4IBZ-Op1HETno_acvwW-367" value="" style="endArrow=none;html=1;rounded=0;entryX=0.5;entryY=0;entryDx=0;entryDy=0;" parent="1" edge="1">
          <mxGeometry width="50" height="50" relative="1" as="geometry">
            <mxPoint x="2498" y="1857.8" as="sourcePoint" />
            <mxPoint x="2497.9700000000003" y="1828.8" as="targetPoint" />
          </mxGeometry>
        </mxCell>
        <mxCell id="_4IBZ-Op1HETno_acvwW-386" value="" style="endArrow=none;html=1;rounded=0;" parent="1" edge="1">
          <mxGeometry width="50" height="50" relative="1" as="geometry">
            <mxPoint x="2840" y="2599.05" as="sourcePoint" />
            <mxPoint x="3031" y="2599.05" as="targetPoint" />
          </mxGeometry>
        </mxCell>
        <mxCell id="_4IBZ-Op1HETno_acvwW-387" value="" style="endArrow=none;html=1;rounded=0;entryX=0.5;entryY=0;entryDx=0;entryDy=0;" parent="1" edge="1">
          <mxGeometry width="50" height="50" relative="1" as="geometry">
            <mxPoint x="2938" y="2599.05" as="sourcePoint" />
            <mxPoint x="2937.9700000000003" y="2570.05" as="targetPoint" />
          </mxGeometry>
        </mxCell>
        <mxCell id="_4IBZ-Op1HETno_acvwW-388" value="" style="endArrow=none;html=1;rounded=0;" parent="1" edge="1">
          <mxGeometry width="50" height="50" relative="1" as="geometry">
            <mxPoint x="2840" y="2394" as="sourcePoint" />
            <mxPoint x="3031" y="2394" as="targetPoint" />
          </mxGeometry>
        </mxCell>
        <mxCell id="_4IBZ-Op1HETno_acvwW-389" value="" style="endArrow=none;html=1;rounded=0;entryX=0.5;entryY=0;entryDx=0;entryDy=0;" parent="1" edge="1">
          <mxGeometry width="50" height="50" relative="1" as="geometry">
            <mxPoint x="2938" y="2394" as="sourcePoint" />
            <mxPoint x="2937.9700000000003" y="2365" as="targetPoint" />
          </mxGeometry>
        </mxCell>
        <mxCell id="_4IBZ-Op1HETno_acvwW-390" value="" style="endArrow=none;html=1;rounded=0;" parent="1" edge="1">
          <mxGeometry width="50" height="50" relative="1" as="geometry">
            <mxPoint x="2840" y="2184" as="sourcePoint" />
            <mxPoint x="3031" y="2184" as="targetPoint" />
          </mxGeometry>
        </mxCell>
        <mxCell id="_4IBZ-Op1HETno_acvwW-391" value="" style="endArrow=none;html=1;rounded=0;entryX=0.5;entryY=0;entryDx=0;entryDy=0;" parent="1" edge="1">
          <mxGeometry width="50" height="50" relative="1" as="geometry">
            <mxPoint x="2938" y="2184" as="sourcePoint" />
            <mxPoint x="2937.9700000000003" y="2155" as="targetPoint" />
          </mxGeometry>
        </mxCell>
        <mxCell id="_4IBZ-Op1HETno_acvwW-410" value="" style="endArrow=none;html=1;rounded=0;" parent="1" edge="1">
          <mxGeometry width="50" height="50" relative="1" as="geometry">
            <mxPoint x="4170" y="1929" as="sourcePoint" />
            <mxPoint x="4361" y="1929" as="targetPoint" />
          </mxGeometry>
        </mxCell>
        <mxCell id="_4IBZ-Op1HETno_acvwW-411" value="" style="endArrow=none;html=1;rounded=0;entryX=0.5;entryY=0;entryDx=0;entryDy=0;" parent="1" edge="1">
          <mxGeometry width="50" height="50" relative="1" as="geometry">
            <mxPoint x="4268" y="1929" as="sourcePoint" />
            <mxPoint x="4267.97" y="1900" as="targetPoint" />
          </mxGeometry>
        </mxCell>
        <mxCell id="_4IBZ-Op1HETno_acvwW-412" value="" style="endArrow=none;html=1;rounded=0;" parent="1" edge="1">
          <mxGeometry width="50" height="50" relative="1" as="geometry">
            <mxPoint x="4170" y="1742" as="sourcePoint" />
            <mxPoint x="4361" y="1742" as="targetPoint" />
          </mxGeometry>
        </mxCell>
        <mxCell id="_4IBZ-Op1HETno_acvwW-413" value="" style="endArrow=none;html=1;rounded=0;entryX=0.5;entryY=0;entryDx=0;entryDy=0;" parent="1" edge="1">
          <mxGeometry width="50" height="50" relative="1" as="geometry">
            <mxPoint x="4268" y="1742" as="sourcePoint" />
            <mxPoint x="4267.97" y="1713" as="targetPoint" />
          </mxGeometry>
        </mxCell>
        <mxCell id="_4IBZ-Op1HETno_acvwW-414" value="" style="endArrow=none;html=1;rounded=0;entryX=1;entryY=0.25;entryDx=0;entryDy=0;exitX=0;exitY=0.25;exitDx=0;exitDy=0;" parent="1" edge="1">
          <mxGeometry width="50" height="50" relative="1" as="geometry">
            <mxPoint x="1044.2105263157896" y="-200.0526315789474" as="sourcePoint" />
            <mxPoint x="1204.705882352941" y="-200.52941176470597" as="targetPoint" />
          </mxGeometry>
        </mxCell>
        <mxCell id="_4IBZ-Op1HETno_acvwW-415" value="" style="endArrow=none;html=1;rounded=0;entryX=0.518;entryY=-0.006;entryDx=0;entryDy=0;entryPerimeter=0;" parent="1" target="_4IBZ-Op1HETno_acvwW-81" edge="1">
          <mxGeometry width="50" height="50" relative="1" as="geometry">
            <mxPoint x="1122" y="-200" as="sourcePoint" />
            <mxPoint x="1129.75" y="-230" as="targetPoint" />
          </mxGeometry>
        </mxCell>
        <mxCell id="_4IBZ-Op1HETno_acvwW-416" value="" style="endArrow=none;html=1;rounded=0;" parent="1" edge="1">
          <mxGeometry width="50" height="50" relative="1" as="geometry">
            <mxPoint x="2120" y="394" as="sourcePoint" />
            <mxPoint x="2311" y="394" as="targetPoint" />
          </mxGeometry>
        </mxCell>
        <mxCell id="_4IBZ-Op1HETno_acvwW-417" value="" style="endArrow=none;html=1;rounded=0;entryX=0.5;entryY=0;entryDx=0;entryDy=0;" parent="1" edge="1">
          <mxGeometry width="50" height="50" relative="1" as="geometry">
            <mxPoint x="2218" y="394" as="sourcePoint" />
            <mxPoint x="2217.9700000000003" y="365" as="targetPoint" />
          </mxGeometry>
        </mxCell>
        <mxCell id="_4IBZ-Op1HETno_acvwW-418" value="" style="endArrow=none;html=1;rounded=0;" parent="1" edge="1">
          <mxGeometry width="50" height="50" relative="1" as="geometry">
            <mxPoint x="2120" y="575.5" as="sourcePoint" />
            <mxPoint x="2311" y="575.5" as="targetPoint" />
          </mxGeometry>
        </mxCell>
        <mxCell id="_4IBZ-Op1HETno_acvwW-419" value="" style="endArrow=none;html=1;rounded=0;entryX=0.5;entryY=0;entryDx=0;entryDy=0;" parent="1" edge="1">
          <mxGeometry width="50" height="50" relative="1" as="geometry">
            <mxPoint x="2218" y="575.5" as="sourcePoint" />
            <mxPoint x="2217.9700000000003" y="546.5" as="targetPoint" />
          </mxGeometry>
        </mxCell>
        <mxCell id="_4IBZ-Op1HETno_acvwW-428" value="" style="endArrow=none;html=1;rounded=0;exitX=0.144;exitY=0.232;exitDx=0;exitDy=0;exitPerimeter=0;entryX=0.854;entryY=0.232;entryDx=0;entryDy=0;entryPerimeter=0;" parent="1" edge="1">
          <mxGeometry width="50" height="50" relative="1" as="geometry">
            <mxPoint x="1042" y="-10" as="sourcePoint" />
            <mxPoint x="1198" y="-10" as="targetPoint" />
          </mxGeometry>
        </mxCell>
        <mxCell id="_4IBZ-Op1HETno_acvwW-429" value="" style="endArrow=none;html=1;rounded=0;entryX=0.5;entryY=0;entryDx=0;entryDy=0;" parent="1" edge="1">
          <mxGeometry width="50" height="50" relative="1" as="geometry">
            <mxPoint x="1117.5" y="-11" as="sourcePoint" />
            <mxPoint x="1117.47" y="-40" as="targetPoint" />
          </mxGeometry>
        </mxCell>
        <mxCell id="_4IBZ-Op1HETno_acvwW-430" value="" style="endArrow=none;html=1;rounded=0;exitX=0.144;exitY=0.232;exitDx=0;exitDy=0;exitPerimeter=0;entryX=0.854;entryY=0.232;entryDx=0;entryDy=0;entryPerimeter=0;" parent="1" edge="1">
          <mxGeometry width="50" height="50" relative="1" as="geometry">
            <mxPoint x="1042" y="390" as="sourcePoint" />
            <mxPoint x="1198" y="390" as="targetPoint" />
          </mxGeometry>
        </mxCell>
        <mxCell id="_4IBZ-Op1HETno_acvwW-431" value="" style="endArrow=none;html=1;rounded=0;entryX=0.5;entryY=0;entryDx=0;entryDy=0;" parent="1" edge="1">
          <mxGeometry width="50" height="50" relative="1" as="geometry">
            <mxPoint x="1117.5" y="389" as="sourcePoint" />
            <mxPoint x="1117.47" y="360" as="targetPoint" />
          </mxGeometry>
        </mxCell>
        <mxCell id="_4IBZ-Op1HETno_acvwW-432" value="" style="endArrow=none;html=1;rounded=0;exitX=0.144;exitY=0.232;exitDx=0;exitDy=0;exitPerimeter=0;entryX=0.854;entryY=0.232;entryDx=0;entryDy=0;entryPerimeter=0;" parent="1" edge="1">
          <mxGeometry width="50" height="50" relative="1" as="geometry">
            <mxPoint x="1042" y="1670" as="sourcePoint" />
            <mxPoint x="1198" y="1670" as="targetPoint" />
          </mxGeometry>
        </mxCell>
        <mxCell id="_4IBZ-Op1HETno_acvwW-433" value="" style="endArrow=none;html=1;rounded=0;entryX=0.5;entryY=0;entryDx=0;entryDy=0;" parent="1" edge="1">
          <mxGeometry width="50" height="50" relative="1" as="geometry">
            <mxPoint x="1117.5" y="1669" as="sourcePoint" />
            <mxPoint x="1117.47" y="1640" as="targetPoint" />
          </mxGeometry>
        </mxCell>
        <mxCell id="_4IBZ-Op1HETno_acvwW-434" value="" style="endArrow=none;html=1;rounded=0;exitX=0.144;exitY=0.232;exitDx=0;exitDy=0;exitPerimeter=0;" parent="1" edge="1">
          <mxGeometry width="50" height="50" relative="1" as="geometry">
            <mxPoint x="2860" y="1454" as="sourcePoint" />
            <mxPoint x="3010" y="1454" as="targetPoint" />
          </mxGeometry>
        </mxCell>
        <mxCell id="_4IBZ-Op1HETno_acvwW-435" value="" style="endArrow=none;html=1;rounded=0;entryX=0.5;entryY=0;entryDx=0;entryDy=0;" parent="1" edge="1">
          <mxGeometry width="50" height="50" relative="1" as="geometry">
            <mxPoint x="2935.5" y="1453" as="sourcePoint" />
            <mxPoint x="2935.4700000000003" y="1424" as="targetPoint" />
          </mxGeometry>
        </mxCell>
        <mxCell id="_4IBZ-Op1HETno_acvwW-436" value="" style="endArrow=none;html=1;rounded=0;" parent="1" edge="1">
          <mxGeometry width="50" height="50" relative="1" as="geometry">
            <mxPoint x="2860" y="1719" as="sourcePoint" />
            <mxPoint x="3010" y="1719" as="targetPoint" />
          </mxGeometry>
        </mxCell>
        <mxCell id="_4IBZ-Op1HETno_acvwW-437" value="" style="endArrow=none;html=1;rounded=0;entryX=0.5;entryY=0;entryDx=0;entryDy=0;" parent="1" edge="1">
          <mxGeometry width="50" height="50" relative="1" as="geometry">
            <mxPoint x="2932.5" y="1718.41" as="sourcePoint" />
            <mxPoint x="2932.4700000000003" y="1689.41" as="targetPoint" />
          </mxGeometry>
        </mxCell>
        <mxCell id="_4IBZ-Op1HETno_acvwW-440" value="" style="endArrow=none;html=1;rounded=0;" parent="1" edge="1">
          <mxGeometry width="50" height="50" relative="1" as="geometry">
            <mxPoint x="1040" y="189" as="sourcePoint" />
            <mxPoint x="1200" y="189" as="targetPoint" />
          </mxGeometry>
        </mxCell>
        <mxCell id="_4IBZ-Op1HETno_acvwW-441" value="" style="endArrow=none;html=1;rounded=0;entryX=0.5;entryY=0;entryDx=0;entryDy=0;" parent="1" edge="1">
          <mxGeometry width="50" height="50" relative="1" as="geometry">
            <mxPoint x="1121" y="189" as="sourcePoint" />
            <mxPoint x="1120.97" y="160" as="targetPoint" />
          </mxGeometry>
        </mxCell>
        <mxCell id="_4IBZ-Op1HETno_acvwW-442" value="" style="endArrow=none;html=1;rounded=0;" parent="1" edge="1">
          <mxGeometry width="50" height="50" relative="1" as="geometry">
            <mxPoint x="1040" y="629" as="sourcePoint" />
            <mxPoint x="1200" y="629" as="targetPoint" />
          </mxGeometry>
        </mxCell>
        <mxCell id="_4IBZ-Op1HETno_acvwW-443" value="" style="endArrow=none;html=1;rounded=0;entryX=0.5;entryY=0;entryDx=0;entryDy=0;" parent="1" edge="1">
          <mxGeometry width="50" height="50" relative="1" as="geometry">
            <mxPoint x="1121" y="629" as="sourcePoint" />
            <mxPoint x="1120.97" y="600" as="targetPoint" />
          </mxGeometry>
        </mxCell>
        <mxCell id="_4IBZ-Op1HETno_acvwW-444" value="" style="endArrow=none;html=1;rounded=0;exitX=0;exitY=0.25;exitDx=0;exitDy=0;entryX=1;entryY=0.25;entryDx=0;entryDy=0;" parent="1" source="_4IBZ-Op1HETno_acvwW-128" target="_4IBZ-Op1HETno_acvwW-128" edge="1">
          <mxGeometry width="50" height="50" relative="1" as="geometry">
            <mxPoint x="1040" y="1489" as="sourcePoint" />
            <mxPoint x="1200" y="1489" as="targetPoint" />
          </mxGeometry>
        </mxCell>
        <mxCell id="_4IBZ-Op1HETno_acvwW-445" value="" style="endArrow=none;html=1;rounded=0;entryX=0.5;entryY=0;entryDx=0;entryDy=0;" parent="1" edge="1">
          <mxGeometry width="50" height="50" relative="1" as="geometry">
            <mxPoint x="1121" y="1489" as="sourcePoint" />
            <mxPoint x="1120.97" y="1460" as="targetPoint" />
          </mxGeometry>
        </mxCell>
        <mxCell id="_4IBZ-Op1HETno_acvwW-446" value="" style="endArrow=none;html=1;rounded=0;" parent="1" edge="1">
          <mxGeometry width="50" height="50" relative="1" as="geometry">
            <mxPoint x="1040" y="1919" as="sourcePoint" />
            <mxPoint x="1200" y="1919" as="targetPoint" />
          </mxGeometry>
        </mxCell>
        <mxCell id="_4IBZ-Op1HETno_acvwW-447" value="" style="endArrow=none;html=1;rounded=0;entryX=0.5;entryY=0;entryDx=0;entryDy=0;" parent="1" edge="1">
          <mxGeometry width="50" height="50" relative="1" as="geometry">
            <mxPoint x="1121" y="1919" as="sourcePoint" />
            <mxPoint x="1120.97" y="1890" as="targetPoint" />
          </mxGeometry>
        </mxCell>
        <mxCell id="_4IBZ-Op1HETno_acvwW-448" value="" style="endArrow=none;html=1;rounded=0;" parent="1" edge="1">
          <mxGeometry width="50" height="50" relative="1" as="geometry">
            <mxPoint x="1775" y="409" as="sourcePoint" />
            <mxPoint x="1935" y="409" as="targetPoint" />
          </mxGeometry>
        </mxCell>
        <mxCell id="_4IBZ-Op1HETno_acvwW-449" value="" style="endArrow=none;html=1;rounded=0;entryX=0.5;entryY=0;entryDx=0;entryDy=0;" parent="1" edge="1">
          <mxGeometry width="50" height="50" relative="1" as="geometry">
            <mxPoint x="1856" y="409" as="sourcePoint" />
            <mxPoint x="1855.97" y="380" as="targetPoint" />
          </mxGeometry>
        </mxCell>
        <mxCell id="_4IBZ-Op1HETno_acvwW-454" value="" style="endArrow=none;html=1;rounded=0;" parent="1" edge="1">
          <mxGeometry width="50" height="50" relative="1" as="geometry">
            <mxPoint x="2055" y="1689" as="sourcePoint" />
            <mxPoint x="2215" y="1689" as="targetPoint" />
          </mxGeometry>
        </mxCell>
        <mxCell id="_4IBZ-Op1HETno_acvwW-455" value="" style="endArrow=none;html=1;rounded=0;entryX=0.5;entryY=0;entryDx=0;entryDy=0;" parent="1" edge="1">
          <mxGeometry width="50" height="50" relative="1" as="geometry">
            <mxPoint x="2136" y="1689" as="sourcePoint" />
            <mxPoint x="2135.9700000000003" y="1660" as="targetPoint" />
          </mxGeometry>
        </mxCell>
        <mxCell id="_4IBZ-Op1HETno_acvwW-458" value="" style="endArrow=none;html=1;rounded=0;" parent="1" edge="1">
          <mxGeometry width="50" height="50" relative="1" as="geometry">
            <mxPoint x="2855.5" y="1989" as="sourcePoint" />
            <mxPoint x="3015.5" y="1989" as="targetPoint" />
          </mxGeometry>
        </mxCell>
        <mxCell id="_4IBZ-Op1HETno_acvwW-459" value="" style="endArrow=none;html=1;rounded=0;entryX=0.5;entryY=0;entryDx=0;entryDy=0;" parent="1" edge="1">
          <mxGeometry width="50" height="50" relative="1" as="geometry">
            <mxPoint x="2936.5" y="1989" as="sourcePoint" />
            <mxPoint x="2936.4700000000003" y="1960" as="targetPoint" />
          </mxGeometry>
        </mxCell>
        <mxCell id="_4IBZ-Op1HETno_acvwW-460" value="" style="endArrow=none;html=1;rounded=0;entryX=0.927;entryY=0.673;entryDx=0;entryDy=0;entryPerimeter=0;exitX=0.079;exitY=0.664;exitDx=0;exitDy=0;exitPerimeter=0;" parent="1" edge="1">
          <mxGeometry width="50" height="50" relative="1" as="geometry">
            <mxPoint x="3816.59" y="1750.2959999999998" as="sourcePoint" />
            <mxPoint x="3994.67" y="1749.2969999999996" as="targetPoint" />
          </mxGeometry>
        </mxCell>
        <mxCell id="_4IBZ-Op1HETno_acvwW-461" value="" style="endArrow=none;html=1;rounded=0;entryX=0.5;entryY=0;entryDx=0;entryDy=0;" parent="1" edge="1">
          <mxGeometry width="50" height="50" relative="1" as="geometry">
            <mxPoint x="3905.5" y="1748" as="sourcePoint" />
            <mxPoint x="3905.4700000000003" y="1719" as="targetPoint" />
          </mxGeometry>
        </mxCell>
        <mxCell id="_4IBZ-Op1HETno_acvwW-464" value="" style="endArrow=none;html=1;rounded=0;entryX=1;entryY=0.25;entryDx=0;entryDy=0;exitX=0;exitY=0.25;exitDx=0;exitDy=0;" parent="1" edge="1">
          <mxGeometry width="50" height="50" relative="1" as="geometry">
            <mxPoint x="3280" y="1476.625" as="sourcePoint" />
            <mxPoint x="3520.000000000001" y="1476.625" as="targetPoint" />
          </mxGeometry>
        </mxCell>
        <mxCell id="_4IBZ-Op1HETno_acvwW-465" value="" style="endArrow=none;html=1;rounded=0;entryX=0.5;entryY=0;entryDx=0;entryDy=0;" parent="1" edge="1">
          <mxGeometry width="50" height="50" relative="1" as="geometry">
            <mxPoint x="3402.5" y="1476.67" as="sourcePoint" />
            <mxPoint x="3402.4700000000003" y="1447.67" as="targetPoint" />
          </mxGeometry>
        </mxCell>
        <mxCell id="_4IBZ-Op1HETno_acvwW-466" value="&lt;span style=&quot;font-size: 16px;&quot;&gt;1 - 4&lt;/span&gt;" style="text;html=1;strokeColor=none;fillColor=none;align=center;verticalAlign=middle;whiteSpace=wrap;rounded=0;" parent="1" vertex="1">
          <mxGeometry x="-1" y="676" width="50" height="20" as="geometry" />
        </mxCell>
        <mxCell id="_4IBZ-Op1HETno_acvwW-467" value="&lt;font style=&quot;font-size: 13px;&quot;&gt;SDP / 2&lt;/font&gt;" style="text;html=1;strokeColor=none;fillColor=none;align=center;verticalAlign=middle;whiteSpace=wrap;rounded=0;" parent="1" vertex="1">
          <mxGeometry x="58" y="679" width="51" height="14" as="geometry" />
        </mxCell>
        <mxCell id="_4IBZ-Op1HETno_acvwW-468" value="&lt;font style=&quot;font-size: 13px;&quot;&gt;1 - 5&lt;/font&gt;" style="text;html=1;strokeColor=none;fillColor=none;align=center;verticalAlign=middle;whiteSpace=wrap;rounded=0;" parent="1" vertex="1">
          <mxGeometry x="429.5" y="682" width="51" height="14" as="geometry" />
        </mxCell>
        <mxCell id="_4IBZ-Op1HETno_acvwW-469" value="&lt;font style=&quot;font-size: 13px;&quot;&gt;SDP / 2&lt;/font&gt;" style="text;html=1;strokeColor=none;fillColor=none;align=center;verticalAlign=middle;whiteSpace=wrap;rounded=0;" parent="1" vertex="1">
          <mxGeometry x="529.5" y="682" width="51" height="14" as="geometry" />
        </mxCell>
        <mxCell id="_4IBZ-Op1HETno_acvwW-470" value="&lt;font style=&quot;font-size: 13px;&quot;&gt;1 - 6&lt;/font&gt;" style="text;html=1;strokeColor=none;fillColor=none;align=center;verticalAlign=middle;whiteSpace=wrap;rounded=0;" parent="1" vertex="1">
          <mxGeometry x="-1" y="910" width="51" height="14" as="geometry" />
        </mxCell>
        <mxCell id="_4IBZ-Op1HETno_acvwW-471" value="&lt;font style=&quot;font-size: 13px;&quot;&gt;SDP / 2&lt;/font&gt;" style="text;html=1;strokeColor=none;fillColor=none;align=center;verticalAlign=middle;whiteSpace=wrap;rounded=0;" parent="1" vertex="1">
          <mxGeometry x="59" y="910" width="51" height="14" as="geometry" />
        </mxCell>
        <mxCell id="_4IBZ-Op1HETno_acvwW-472" value="&lt;span style=&quot;font-size: 13px;&quot;&gt;1 - 7&lt;/span&gt;" style="text;html=1;strokeColor=none;fillColor=none;align=center;verticalAlign=middle;whiteSpace=wrap;rounded=0;" parent="1" vertex="1">
          <mxGeometry x="429.5" y="910" width="51" height="14" as="geometry" />
        </mxCell>
        <mxCell id="_4IBZ-Op1HETno_acvwW-473" value="&lt;font style=&quot;font-size: 13px;&quot;&gt;SDP / 2&lt;/font&gt;" style="text;html=1;strokeColor=none;fillColor=none;align=center;verticalAlign=middle;whiteSpace=wrap;rounded=0;" parent="1" vertex="1">
          <mxGeometry x="539" y="910" width="51" height="14" as="geometry" />
        </mxCell>
        <mxCell id="_4IBZ-Op1HETno_acvwW-474" value="&lt;span style=&quot;font-size: 13px;&quot;&gt;1 - 8&lt;/span&gt;" style="text;html=1;strokeColor=none;fillColor=none;align=center;verticalAlign=middle;whiteSpace=wrap;rounded=0;" parent="1" vertex="1">
          <mxGeometry x="-25.5" y="1150" width="51" height="14" as="geometry" />
        </mxCell>
        <mxCell id="_4IBZ-Op1HETno_acvwW-475" value="&lt;span style=&quot;font-size: 13px;&quot;&gt;SDP / 3&lt;/span&gt;" style="text;html=1;strokeColor=none;fillColor=none;align=center;verticalAlign=middle;whiteSpace=wrap;rounded=0;" parent="1" vertex="1">
          <mxGeometry x="79" y="1150" width="51" height="14" as="geometry" />
        </mxCell>
        <mxCell id="_4IBZ-Op1HETno_acvwW-476" value="&lt;span style=&quot;font-size: 13px;&quot;&gt;1 - 9&lt;/span&gt;" style="text;html=1;strokeColor=none;fillColor=none;align=center;verticalAlign=middle;whiteSpace=wrap;rounded=0;" parent="1" vertex="1">
          <mxGeometry x="-2" y="1360" width="51" height="14" as="geometry" />
        </mxCell>
        <mxCell id="_4IBZ-Op1HETno_acvwW-477" value="&lt;span style=&quot;font-size: 13px;&quot;&gt;SDP / 3&lt;/span&gt;" style="text;html=1;strokeColor=none;fillColor=none;align=center;verticalAlign=middle;whiteSpace=wrap;rounded=0;" parent="1" vertex="1">
          <mxGeometry x="59" y="1360" width="51" height="14" as="geometry" />
        </mxCell>
        <mxCell id="_4IBZ-Op1HETno_acvwW-478" value="&lt;span style=&quot;font-size: 13px;&quot;&gt;1 - 10&lt;/span&gt;" style="text;html=1;strokeColor=none;fillColor=none;align=center;verticalAlign=middle;whiteSpace=wrap;rounded=0;" parent="1" vertex="1">
          <mxGeometry x="429.5" y="1360" width="51" height="14" as="geometry" />
        </mxCell>
        <mxCell id="_4IBZ-Op1HETno_acvwW-479" value="&lt;span style=&quot;font-size: 13px;&quot;&gt;SDP / 3&lt;/span&gt;" style="text;html=1;strokeColor=none;fillColor=none;align=center;verticalAlign=middle;whiteSpace=wrap;rounded=0;" parent="1" vertex="1">
          <mxGeometry x="539" y="1360" width="51" height="14" as="geometry" />
        </mxCell>
        <mxCell id="_4IBZ-Op1HETno_acvwW-480" value="&lt;span style=&quot;font-size: 13px;&quot;&gt;1 - 11&lt;/span&gt;" style="text;html=1;strokeColor=none;fillColor=none;align=center;verticalAlign=middle;whiteSpace=wrap;rounded=0;" parent="1" vertex="1">
          <mxGeometry x="-25.5" y="1580" width="51" height="14" as="geometry" />
        </mxCell>
        <mxCell id="_4IBZ-Op1HETno_acvwW-481" value="&lt;span style=&quot;font-size: 13px;&quot;&gt;SDP / 4&lt;/span&gt;" style="text;html=1;strokeColor=none;fillColor=none;align=center;verticalAlign=middle;whiteSpace=wrap;rounded=0;" parent="1" vertex="1">
          <mxGeometry x="83" y="1580" width="51" height="14" as="geometry" />
        </mxCell>
        <mxCell id="_4IBZ-Op1HETno_acvwW-482" value="&lt;span style=&quot;font-size: 13px;&quot;&gt;1 - 12&lt;/span&gt;" style="text;html=1;strokeColor=none;fillColor=none;align=center;verticalAlign=middle;whiteSpace=wrap;rounded=0;" parent="1" vertex="1">
          <mxGeometry x="-2" y="1780" width="51" height="14" as="geometry" />
        </mxCell>
        <mxCell id="_4IBZ-Op1HETno_acvwW-483" value="&lt;span style=&quot;font-size: 13px;&quot;&gt;SDP / 4&lt;/span&gt;" style="text;html=1;strokeColor=none;fillColor=none;align=center;verticalAlign=middle;whiteSpace=wrap;rounded=0;" parent="1" vertex="1">
          <mxGeometry x="59" y="1780" width="51" height="14" as="geometry" />
        </mxCell>
        <mxCell id="_4IBZ-Op1HETno_acvwW-484" value="&lt;span style=&quot;font-size: 13px;&quot;&gt;1 - 14&lt;/span&gt;" style="text;html=1;strokeColor=none;fillColor=none;align=center;verticalAlign=middle;whiteSpace=wrap;rounded=0;" parent="1" vertex="1">
          <mxGeometry x="-16" y="2000.5" width="51" height="14" as="geometry" />
        </mxCell>
        <mxCell id="_4IBZ-Op1HETno_acvwW-485" value="&lt;span style=&quot;font-size: 13px;&quot;&gt;SDP / 5&lt;/span&gt;" style="text;html=1;strokeColor=none;fillColor=none;align=center;verticalAlign=middle;whiteSpace=wrap;rounded=0;" parent="1" vertex="1">
          <mxGeometry x="83" y="1998" width="51" height="14" as="geometry" />
        </mxCell>
        <mxCell id="_4IBZ-Op1HETno_acvwW-486" value="&lt;span style=&quot;font-size: 13px;&quot;&gt;1 - 15&lt;/span&gt;" style="text;html=1;strokeColor=none;fillColor=none;align=center;verticalAlign=middle;whiteSpace=wrap;rounded=0;" parent="1" vertex="1">
          <mxGeometry x="-25.5" y="2230" width="51" height="14" as="geometry" />
        </mxCell>
        <mxCell id="_4IBZ-Op1HETno_acvwW-487" value="&lt;span style=&quot;font-size: 13px;&quot;&gt;SDP / 5&lt;/span&gt;" style="text;html=1;strokeColor=none;fillColor=none;align=center;verticalAlign=middle;whiteSpace=wrap;rounded=0;" parent="1" vertex="1">
          <mxGeometry x="79" y="2230" width="51" height="14" as="geometry" />
        </mxCell>
        <mxCell id="_4IBZ-Op1HETno_acvwW-488" value="&lt;span style=&quot;font-size: 13px;&quot;&gt;1 - 13&lt;/span&gt;" style="text;html=1;strokeColor=none;fillColor=none;align=center;verticalAlign=middle;whiteSpace=wrap;rounded=0;" parent="1" vertex="1">
          <mxGeometry x="429.5" y="1780" width="51" height="14" as="geometry" />
        </mxCell>
        <mxCell id="_4IBZ-Op1HETno_acvwW-489" value="&lt;span style=&quot;font-size: 13px;&quot;&gt;SDP / 4&lt;/span&gt;" style="text;html=1;strokeColor=none;fillColor=none;align=center;verticalAlign=middle;whiteSpace=wrap;rounded=0;" parent="1" vertex="1">
          <mxGeometry x="529.5" y="1780" width="51" height="14" as="geometry" />
        </mxCell>
        <mxCell id="_4IBZ-Op1HETno_acvwW-490" value="is Raw Data received applicable as Aeronautical Information?" style="text;html=1;strokeColor=none;fillColor=none;align=center;verticalAlign=middle;whiteSpace=wrap;rounded=0;" parent="1" vertex="1">
          <mxGeometry x="-20" y="720" width="150" height="60" as="geometry" />
        </mxCell>
        <mxCell id="_4IBZ-Op1HETno_acvwW-493" value="was Raw Data from an appropriate source?" style="text;html=1;strokeColor=none;fillColor=none;align=center;verticalAlign=middle;whiteSpace=wrap;rounded=0;" parent="1" vertex="1">
          <mxGeometry x="-20" y="950" width="160" height="40" as="geometry" />
        </mxCell>
        <mxCell id="_4IBZ-Op1HETno_acvwW-496" value="Did the Evaluation allow the Raw Data to continue?" style="text;html=1;strokeColor=none;fillColor=none;align=center;verticalAlign=middle;whiteSpace=wrap;rounded=0;" parent="1" vertex="1">
          <mxGeometry x="-18.5" y="1403" width="150" height="20" as="geometry" />
        </mxCell>
        <mxCell id="_4IBZ-Op1HETno_acvwW-499" value="Is Approval given for the Raw Data to be stored?" style="text;html=1;strokeColor=none;fillColor=none;align=center;verticalAlign=middle;whiteSpace=wrap;rounded=0;" parent="1" vertex="1">
          <mxGeometry x="-13.5" y="1817" width="140" height="40" as="geometry" />
        </mxCell>
        <mxCell id="_4IBZ-Op1HETno_acvwW-501" value="&lt;span style=&quot;font-size: 13px;&quot;&gt;2 - 1&lt;/span&gt;" style="text;html=1;strokeColor=none;fillColor=none;align=center;verticalAlign=middle;whiteSpace=wrap;rounded=0;" parent="1" vertex="1">
          <mxGeometry x="1060" y="-220" width="51" height="14" as="geometry" />
        </mxCell>
        <mxCell id="_4IBZ-Op1HETno_acvwW-502" value="&lt;span style=&quot;font-size: 13px;&quot;&gt;SDP / 6&lt;/span&gt;" style="text;html=1;strokeColor=none;fillColor=none;align=center;verticalAlign=middle;whiteSpace=wrap;rounded=0;" parent="1" vertex="1">
          <mxGeometry x="1140" y="-220" width="51" height="14" as="geometry" />
        </mxCell>
        <mxCell id="_4IBZ-Op1HETno_acvwW-503" value="&lt;span style=&quot;font-size: 13px;&quot;&gt;2 - 2&lt;/span&gt;" style="text;html=1;strokeColor=none;fillColor=none;align=center;verticalAlign=middle;whiteSpace=wrap;rounded=0;" parent="1" vertex="1">
          <mxGeometry x="1060" y="-30" width="51" height="14" as="geometry" />
        </mxCell>
        <mxCell id="_4IBZ-Op1HETno_acvwW-505" value="&lt;span style=&quot;font-size: 13px;&quot;&gt;SDP / 7&lt;/span&gt;" style="text;html=1;strokeColor=none;fillColor=none;align=center;verticalAlign=middle;whiteSpace=wrap;rounded=0;" parent="1" vertex="1">
          <mxGeometry x="1120" y="-30" width="51" height="14" as="geometry" />
        </mxCell>
        <mxCell id="_4IBZ-Op1HETno_acvwW-506" value="&lt;span style=&quot;font-size: 13px;&quot;&gt;2 - 17&lt;/span&gt;" style="text;html=1;strokeColor=none;fillColor=none;align=center;verticalAlign=middle;whiteSpace=wrap;rounded=0;" parent="1" vertex="1">
          <mxGeometry x="1370" y="-30" width="51" height="14" as="geometry" />
        </mxCell>
        <mxCell id="_4IBZ-Op1HETno_acvwW-507" value="&lt;span style=&quot;font-size: 13px;&quot;&gt;SDP / 12&lt;/span&gt;" style="text;html=1;strokeColor=none;fillColor=none;align=center;verticalAlign=middle;whiteSpace=wrap;rounded=0;" parent="1" vertex="1">
          <mxGeometry x="1470" y="-30" width="70" height="20" as="geometry" />
        </mxCell>
        <mxCell id="_4IBZ-Op1HETno_acvwW-508" value="&lt;span style=&quot;font-size: 13px;&quot;&gt;2 - 3&lt;/span&gt;" style="text;html=1;strokeColor=none;fillColor=none;align=center;verticalAlign=middle;whiteSpace=wrap;rounded=0;" parent="1" vertex="1">
          <mxGeometry x="1050" y="170" width="51" height="14" as="geometry" />
        </mxCell>
        <mxCell id="_4IBZ-Op1HETno_acvwW-509" value="&lt;span style=&quot;font-size: 13px;&quot;&gt;SDP / 7&lt;/span&gt;" style="text;html=1;strokeColor=none;fillColor=none;align=center;verticalAlign=middle;whiteSpace=wrap;rounded=0;" parent="1" vertex="1">
          <mxGeometry x="1130" y="170" width="51" height="14" as="geometry" />
        </mxCell>
        <mxCell id="_4IBZ-Op1HETno_acvwW-510" value="&lt;span style=&quot;font-size: 13px;&quot;&gt;2 - 4&lt;/span&gt;" style="text;html=1;strokeColor=none;fillColor=none;align=center;verticalAlign=middle;whiteSpace=wrap;rounded=0;" parent="1" vertex="1">
          <mxGeometry x="1060" y="367" width="51" height="14" as="geometry" />
        </mxCell>
        <mxCell id="_4IBZ-Op1HETno_acvwW-511" value="&lt;span style=&quot;font-size: 13px;&quot;&gt;SDP / 8&lt;/span&gt;" style="text;html=1;strokeColor=none;fillColor=none;align=center;verticalAlign=middle;whiteSpace=wrap;rounded=0;" parent="1" vertex="1">
          <mxGeometry x="1120" y="367" width="51" height="14" as="geometry" />
        </mxCell>
        <mxCell id="_4IBZ-Op1HETno_acvwW-512" value="&lt;span style=&quot;font-size: 13px;&quot;&gt;2 - 5&lt;/span&gt;" style="text;html=1;strokeColor=none;fillColor=none;align=center;verticalAlign=middle;whiteSpace=wrap;rounded=0;" parent="1" vertex="1">
          <mxGeometry x="1050" y="610" width="51" height="14" as="geometry" />
        </mxCell>
        <mxCell id="_4IBZ-Op1HETno_acvwW-513" value="&lt;span style=&quot;font-size: 13px;&quot;&gt;SDP / 8&lt;/span&gt;" style="text;html=1;strokeColor=none;fillColor=none;align=center;verticalAlign=middle;whiteSpace=wrap;rounded=0;" parent="1" vertex="1">
          <mxGeometry x="1130" y="610" width="51" height="14" as="geometry" />
        </mxCell>
        <mxCell id="_4IBZ-Op1HETno_acvwW-514" value="&lt;span style=&quot;font-size: 13px;&quot;&gt;2 - 18&lt;/span&gt;" style="text;html=1;strokeColor=none;fillColor=none;align=center;verticalAlign=middle;whiteSpace=wrap;rounded=0;" parent="1" vertex="1">
          <mxGeometry x="1730" y="-30" width="51" height="14" as="geometry" />
        </mxCell>
        <mxCell id="_4IBZ-Op1HETno_acvwW-515" value="&lt;span style=&quot;font-size: 13px;&quot;&gt;SDP / 13&lt;/span&gt;" style="text;html=1;strokeColor=none;fillColor=none;align=center;verticalAlign=middle;whiteSpace=wrap;rounded=0;" parent="1" vertex="1">
          <mxGeometry x="1829.5" y="-30" width="60.5" height="20" as="geometry" />
        </mxCell>
        <mxCell id="_4IBZ-Op1HETno_acvwW-516" value="&lt;span style=&quot;font-size: 13px;&quot;&gt;2 - 6&lt;/span&gt;" style="text;html=1;strokeColor=none;fillColor=none;align=center;verticalAlign=middle;whiteSpace=wrap;rounded=0;" parent="1" vertex="1">
          <mxGeometry x="1050" y="787" width="51" height="14" as="geometry" />
        </mxCell>
        <mxCell id="_4IBZ-Op1HETno_acvwW-517" value="&lt;span style=&quot;font-size: 13px;&quot;&gt;SDP / 9&lt;/span&gt;" style="text;html=1;strokeColor=none;fillColor=none;align=center;verticalAlign=middle;whiteSpace=wrap;rounded=0;" parent="1" vertex="1">
          <mxGeometry x="1150" y="787" width="51" height="14" as="geometry" />
        </mxCell>
        <mxCell id="_4IBZ-Op1HETno_acvwW-522" value="&lt;span style=&quot;font-size: 13px;&quot;&gt;2 - 14&lt;/span&gt;" style="text;html=1;strokeColor=none;fillColor=none;align=center;verticalAlign=middle;whiteSpace=wrap;rounded=0;" parent="1" vertex="1">
          <mxGeometry x="1794.5" y="390" width="51" height="14" as="geometry" />
        </mxCell>
        <mxCell id="_4IBZ-Op1HETno_acvwW-523" value="&lt;span style=&quot;font-size: 13px;&quot;&gt;SDP / 6&lt;/span&gt;" style="text;html=1;strokeColor=none;fillColor=none;align=center;verticalAlign=middle;whiteSpace=wrap;rounded=0;" parent="1" vertex="1">
          <mxGeometry x="1868" y="390" width="51" height="14" as="geometry" />
        </mxCell>
        <mxCell id="_4IBZ-Op1HETno_acvwW-524" value="&lt;span style=&quot;font-size: 13px;&quot;&gt;2 - 15&lt;/span&gt;" style="text;html=1;strokeColor=none;fillColor=none;align=center;verticalAlign=middle;whiteSpace=wrap;rounded=0;" parent="1" vertex="1">
          <mxGeometry x="2150" y="376" width="51" height="14" as="geometry" />
        </mxCell>
        <mxCell id="_4IBZ-Op1HETno_acvwW-525" value="&lt;span style=&quot;font-size: 13px;&quot;&gt;SDP / 9&lt;/span&gt;" style="text;html=1;strokeColor=none;fillColor=none;align=center;verticalAlign=middle;whiteSpace=wrap;rounded=0;" parent="1" vertex="1">
          <mxGeometry x="2240" y="376" width="51" height="14" as="geometry" />
        </mxCell>
        <mxCell id="_4IBZ-Op1HETno_acvwW-526" value="&lt;span style=&quot;font-size: 13px;&quot;&gt;2 - 16&lt;/span&gt;" style="text;html=1;strokeColor=none;fillColor=none;align=center;verticalAlign=middle;whiteSpace=wrap;rounded=0;" parent="1" vertex="1">
          <mxGeometry x="2150" y="560" width="51" height="14" as="geometry" />
        </mxCell>
        <mxCell id="_4IBZ-Op1HETno_acvwW-527" value="&lt;span style=&quot;font-size: 13px;&quot;&gt;SDP / 13&lt;/span&gt;" style="text;html=1;strokeColor=none;fillColor=none;align=center;verticalAlign=middle;whiteSpace=wrap;rounded=0;" parent="1" vertex="1">
          <mxGeometry x="2230" y="560" width="60" height="14" as="geometry" />
        </mxCell>
        <mxCell id="_4IBZ-Op1HETno_acvwW-533" value="&lt;span style=&quot;font-size: 13px;&quot;&gt;2 - 7&amp;nbsp;&lt;/span&gt;" style="text;html=1;strokeColor=none;fillColor=none;align=center;verticalAlign=middle;whiteSpace=wrap;rounded=0;" parent="1" vertex="1">
          <mxGeometry x="1040" y="1012" width="51" height="14" as="geometry" />
        </mxCell>
        <mxCell id="_4IBZ-Op1HETno_acvwW-535" value="&lt;span style=&quot;font-size: 13px;&quot;&gt;SDP / 13&lt;/span&gt;" style="text;html=1;strokeColor=none;fillColor=none;align=center;verticalAlign=middle;whiteSpace=wrap;rounded=0;" parent="1" vertex="1">
          <mxGeometry x="1140" y="1012" width="60" height="14" as="geometry" />
        </mxCell>
        <mxCell id="_4IBZ-Op1HETno_acvwW-536" value="&lt;span style=&quot;font-size: 13px;&quot;&gt;2 - 8&lt;/span&gt;" style="text;html=1;strokeColor=none;fillColor=none;align=center;verticalAlign=middle;whiteSpace=wrap;rounded=0;" parent="1" vertex="1">
          <mxGeometry x="1040" y="1240" width="51" height="14" as="geometry" />
        </mxCell>
        <mxCell id="_4IBZ-Op1HETno_acvwW-537" value="&lt;span style=&quot;font-size: 13px;&quot;&gt;SDP / 13&lt;/span&gt;" style="text;html=1;strokeColor=none;fillColor=none;align=center;verticalAlign=middle;whiteSpace=wrap;rounded=0;" parent="1" vertex="1">
          <mxGeometry x="1140" y="1240" width="60" height="14" as="geometry" />
        </mxCell>
        <mxCell id="_4IBZ-Op1HETno_acvwW-538" value="&lt;span style=&quot;font-size: 13px;&quot;&gt;SDP / 7&lt;/span&gt;" style="text;html=1;strokeColor=none;fillColor=none;align=center;verticalAlign=middle;whiteSpace=wrap;rounded=0;" parent="1" vertex="1">
          <mxGeometry x="1140" y="1473" width="51" height="14" as="geometry" />
        </mxCell>
        <mxCell id="_4IBZ-Op1HETno_acvwW-539" value="&lt;span style=&quot;font-size: 13px;&quot;&gt;2 - 19&lt;/span&gt;" style="text;html=1;strokeColor=none;fillColor=none;align=center;verticalAlign=middle;whiteSpace=wrap;rounded=0;" parent="1" vertex="1">
          <mxGeometry x="1060" y="1473" width="51" height="14" as="geometry" />
        </mxCell>
        <mxCell id="_4IBZ-Op1HETno_acvwW-541" value="&lt;span style=&quot;font-size: 13px;&quot;&gt;2 - 20&lt;/span&gt;" style="text;html=1;strokeColor=none;fillColor=none;align=center;verticalAlign=middle;whiteSpace=wrap;rounded=0;" parent="1" vertex="1">
          <mxGeometry x="1060" y="1650" width="51" height="14" as="geometry" />
        </mxCell>
        <mxCell id="_4IBZ-Op1HETno_acvwW-542" value="&lt;span style=&quot;font-size: 13px;&quot;&gt;SDP / 8&lt;/span&gt;" style="text;html=1;strokeColor=none;fillColor=none;align=center;verticalAlign=middle;whiteSpace=wrap;rounded=0;" parent="1" vertex="1">
          <mxGeometry x="1130" y="1650" width="51" height="14" as="geometry" />
        </mxCell>
        <mxCell id="_4IBZ-Op1HETno_acvwW-543" value="&lt;span style=&quot;font-size: 13px;&quot;&gt;2 - 21&lt;/span&gt;" style="text;html=1;strokeColor=none;fillColor=none;align=center;verticalAlign=middle;whiteSpace=wrap;rounded=0;" parent="1" vertex="1">
          <mxGeometry x="1060" y="1899.5" width="51" height="14" as="geometry" />
        </mxCell>
        <mxCell id="_4IBZ-Op1HETno_acvwW-544" value="&lt;span style=&quot;font-size: 13px;&quot;&gt;SDP / 8&lt;/span&gt;" style="text;html=1;strokeColor=none;fillColor=none;align=center;verticalAlign=middle;whiteSpace=wrap;rounded=0;" parent="1" vertex="1">
          <mxGeometry x="1130" y="1900" width="51" height="14" as="geometry" />
        </mxCell>
        <mxCell id="_4IBZ-Op1HETno_acvwW-545" value="&lt;span style=&quot;font-size: 13px;&quot;&gt;2 - 22&lt;/span&gt;" style="text;html=1;strokeColor=none;fillColor=none;align=center;verticalAlign=middle;whiteSpace=wrap;rounded=0;" parent="1" vertex="1">
          <mxGeometry x="1040" y="2080" width="51" height="14" as="geometry" />
        </mxCell>
        <mxCell id="_4IBZ-Op1HETno_acvwW-546" value="&lt;span style=&quot;font-size: 13px;&quot;&gt;SDP / 10&lt;/span&gt;" style="text;html=1;strokeColor=none;fillColor=none;align=center;verticalAlign=middle;whiteSpace=wrap;rounded=0;" parent="1" vertex="1">
          <mxGeometry x="1140" y="2080" width="60" height="14" as="geometry" />
        </mxCell>
        <mxCell id="_4IBZ-Op1HETno_acvwW-547" value="&lt;span style=&quot;font-size: 13px;&quot;&gt;SDP / 13&lt;/span&gt;" style="text;html=1;strokeColor=none;fillColor=none;align=center;verticalAlign=middle;whiteSpace=wrap;rounded=0;" parent="1" vertex="1">
          <mxGeometry x="1140" y="2280" width="60" height="14" as="geometry" />
        </mxCell>
        <mxCell id="_4IBZ-Op1HETno_acvwW-548" value="&lt;span style=&quot;font-size: 13px;&quot;&gt;2 - 23&lt;/span&gt;" style="text;html=1;strokeColor=none;fillColor=none;align=center;verticalAlign=middle;whiteSpace=wrap;rounded=0;" parent="1" vertex="1">
          <mxGeometry x="1050" y="2280" width="51" height="14" as="geometry" />
        </mxCell>
        <mxCell id="_4IBZ-Op1HETno_acvwW-549" value="&lt;span style=&quot;font-size: 13px;&quot;&gt;2 -24&lt;/span&gt;" style="text;html=1;strokeColor=none;fillColor=none;align=center;verticalAlign=middle;whiteSpace=wrap;rounded=0;" parent="1" vertex="1">
          <mxGeometry x="1050" y="2490" width="51" height="14" as="geometry" />
        </mxCell>
        <mxCell id="_4IBZ-Op1HETno_acvwW-550" value="&lt;span style=&quot;font-size: 13px;&quot;&gt;SDP / 13&lt;/span&gt;" style="text;html=1;strokeColor=none;fillColor=none;align=center;verticalAlign=middle;whiteSpace=wrap;rounded=0;" parent="1" vertex="1">
          <mxGeometry x="1140" y="2490" width="60" height="14" as="geometry" />
        </mxCell>
        <mxCell id="_4IBZ-Op1HETno_acvwW-551" value="&lt;span style=&quot;font-size: 13px;&quot;&gt;2 - 38&lt;/span&gt;" style="text;html=1;strokeColor=none;fillColor=none;align=center;verticalAlign=middle;whiteSpace=wrap;rounded=0;" parent="1" vertex="1">
          <mxGeometry x="2880" y="1430" width="51" height="14" as="geometry" />
        </mxCell>
        <mxCell id="_4IBZ-Op1HETno_acvwW-552" value="&lt;span style=&quot;font-size: 13px;&quot;&gt;SDP / 11&lt;/span&gt;" style="text;html=1;strokeColor=none;fillColor=none;align=center;verticalAlign=middle;whiteSpace=wrap;rounded=0;" parent="1" vertex="1">
          <mxGeometry x="2940" y="1430" width="60" height="14" as="geometry" />
        </mxCell>
        <mxCell id="_4IBZ-Op1HETno_acvwW-553" value="&lt;span style=&quot;font-size: 13px;&quot;&gt;2 - 57&lt;/span&gt;" style="text;html=1;strokeColor=none;fillColor=none;align=center;verticalAlign=middle;whiteSpace=wrap;rounded=0;" parent="1" vertex="1">
          <mxGeometry x="3320" y="1460" width="51" height="14" as="geometry" />
        </mxCell>
        <mxCell id="_4IBZ-Op1HETno_acvwW-554" value="&lt;span style=&quot;font-size: 13px;&quot;&gt;SDP / 11&lt;/span&gt;" style="text;html=1;strokeColor=none;fillColor=none;align=center;verticalAlign=middle;whiteSpace=wrap;rounded=0;" parent="1" vertex="1">
          <mxGeometry x="3430" y="1459" width="60" height="14" as="geometry" />
        </mxCell>
        <mxCell id="_4IBZ-Op1HETno_acvwW-555" value="&lt;span style=&quot;font-size: 13px;&quot;&gt;2 - 39&lt;/span&gt;" style="text;html=1;strokeColor=none;fillColor=none;align=center;verticalAlign=middle;whiteSpace=wrap;rounded=0;" parent="1" vertex="1">
          <mxGeometry x="2880" y="1701" width="51" height="14" as="geometry" />
        </mxCell>
        <mxCell id="_4IBZ-Op1HETno_acvwW-556" value="&lt;span style=&quot;font-size: 13px;&quot;&gt;SDP / 6&lt;/span&gt;" style="text;html=1;strokeColor=none;fillColor=none;align=center;verticalAlign=middle;whiteSpace=wrap;rounded=0;" parent="1" vertex="1">
          <mxGeometry x="2940" y="1698" width="51" height="14" as="geometry" />
        </mxCell>
        <mxCell id="_4IBZ-Op1HETno_acvwW-557" value="&lt;span style=&quot;font-size: 13px;&quot;&gt;2 - 40&lt;/span&gt;" style="text;html=1;strokeColor=none;fillColor=none;align=center;verticalAlign=middle;whiteSpace=wrap;rounded=0;" parent="1" vertex="1">
          <mxGeometry x="2870" y="1966" width="51" height="14" as="geometry" />
        </mxCell>
        <mxCell id="_4IBZ-Op1HETno_acvwW-559" value="&lt;span style=&quot;font-size: 13px;&quot;&gt;SDP / 8&lt;/span&gt;" style="text;html=1;strokeColor=none;fillColor=none;align=center;verticalAlign=middle;whiteSpace=wrap;rounded=0;" parent="1" vertex="1">
          <mxGeometry x="2950" y="1966" width="51" height="14" as="geometry" />
        </mxCell>
        <mxCell id="_4IBZ-Op1HETno_acvwW-561" value="&lt;span style=&quot;font-size: 13px;&quot;&gt;2 - 50&lt;/span&gt;" style="text;html=1;strokeColor=none;fillColor=none;align=center;verticalAlign=middle;whiteSpace=wrap;rounded=0;" parent="1" vertex="1">
          <mxGeometry x="3840" y="1736" width="51" height="14" as="geometry" />
        </mxCell>
        <mxCell id="_4IBZ-Op1HETno_acvwW-562" value="&lt;span style=&quot;font-size: 13px;&quot;&gt;2 - 55&lt;/span&gt;" style="text;html=1;strokeColor=none;fillColor=none;align=center;verticalAlign=middle;whiteSpace=wrap;rounded=0;" parent="1" vertex="1">
          <mxGeometry x="4200" y="1722" width="51" height="14" as="geometry" />
        </mxCell>
        <mxCell id="_4IBZ-Op1HETno_acvwW-563" value="&lt;span style=&quot;font-size: 13px;&quot;&gt;SDP / 8&lt;/span&gt;" style="text;html=1;strokeColor=none;fillColor=none;align=center;verticalAlign=middle;whiteSpace=wrap;rounded=0;" parent="1" vertex="1">
          <mxGeometry x="3920" y="1736" width="51" height="14" as="geometry" />
        </mxCell>
        <mxCell id="_4IBZ-Op1HETno_acvwW-564" value="&lt;span style=&quot;font-size: 13px;&quot;&gt;SDP / 10&lt;/span&gt;" style="text;html=1;strokeColor=none;fillColor=none;align=center;verticalAlign=middle;whiteSpace=wrap;rounded=0;" parent="1" vertex="1">
          <mxGeometry x="4290" y="1722" width="70" height="14" as="geometry" />
        </mxCell>
        <mxCell id="_4IBZ-Op1HETno_acvwW-567" value="&lt;span style=&quot;font-size: 13px;&quot;&gt;2 - 56&lt;/span&gt;" style="text;html=1;strokeColor=none;fillColor=none;align=center;verticalAlign=middle;whiteSpace=wrap;rounded=0;" parent="1" vertex="1">
          <mxGeometry x="4200" y="1913.5" width="51" height="14" as="geometry" />
        </mxCell>
        <mxCell id="_4IBZ-Op1HETno_acvwW-568" value="&lt;span style=&quot;font-size: 13px;&quot;&gt;SDP / 13&lt;/span&gt;" style="text;html=1;strokeColor=none;fillColor=none;align=center;verticalAlign=middle;whiteSpace=wrap;rounded=0;" parent="1" vertex="1">
          <mxGeometry x="4281" y="1911.5" width="69" height="14" as="geometry" />
        </mxCell>
        <mxCell id="_4IBZ-Op1HETno_acvwW-586" value="&lt;span style=&quot;font-size: 13px;&quot;&gt;2 -31&lt;/span&gt;" style="text;html=1;strokeColor=none;fillColor=none;align=center;verticalAlign=middle;whiteSpace=wrap;rounded=0;" parent="1" vertex="1">
          <mxGeometry x="2069" y="1670" width="51" height="14" as="geometry" />
        </mxCell>
        <mxCell id="_4IBZ-Op1HETno_acvwW-587" value="&lt;span style=&quot;font-size: 13px;&quot;&gt;SDP / 6&lt;/span&gt;" style="text;html=1;strokeColor=none;fillColor=none;align=center;verticalAlign=middle;whiteSpace=wrap;rounded=0;" parent="1" vertex="1">
          <mxGeometry x="2150" y="1670" width="51" height="14" as="geometry" />
        </mxCell>
        <mxCell id="_4IBZ-Op1HETno_acvwW-608" value="&lt;span style=&quot;font-size: 13px;&quot;&gt;2 - 36&lt;/span&gt;" style="text;html=1;strokeColor=none;fillColor=none;align=center;verticalAlign=middle;whiteSpace=wrap;rounded=0;" parent="1" vertex="1">
          <mxGeometry x="2420" y="1656" width="51" height="14" as="geometry" />
        </mxCell>
        <mxCell id="_4IBZ-Op1HETno_acvwW-609" value="&lt;span style=&quot;font-size: 13px;&quot;&gt;2 - 37&lt;/span&gt;" style="text;html=1;strokeColor=none;fillColor=none;align=center;verticalAlign=middle;whiteSpace=wrap;rounded=0;" parent="1" vertex="1">
          <mxGeometry x="2430" y="1840" width="51" height="14" as="geometry" />
        </mxCell>
        <mxCell id="_4IBZ-Op1HETno_acvwW-610" value="&lt;span style=&quot;font-size: 13px;&quot;&gt;SDP / 10&lt;/span&gt;" style="text;html=1;strokeColor=none;fillColor=none;align=center;verticalAlign=middle;whiteSpace=wrap;rounded=0;" parent="1" vertex="1">
          <mxGeometry x="2520" y="1656" width="60" height="14" as="geometry" />
        </mxCell>
        <mxCell id="_4IBZ-Op1HETno_acvwW-611" value="&lt;span style=&quot;font-size: 13px;&quot;&gt;SDP / 13&lt;/span&gt;" style="text;html=1;strokeColor=none;fillColor=none;align=center;verticalAlign=middle;whiteSpace=wrap;rounded=0;" parent="1" vertex="1">
          <mxGeometry x="2520" y="1840" width="60" height="14" as="geometry" />
        </mxCell>
        <mxCell id="_4IBZ-Op1HETno_acvwW-613" value="&lt;span style=&quot;font-size: 13px;&quot;&gt;2 - 41&lt;/span&gt;" style="text;html=1;strokeColor=none;fillColor=none;align=center;verticalAlign=middle;whiteSpace=wrap;rounded=0;" parent="1" vertex="1">
          <mxGeometry x="2870" y="2160" width="51" height="14" as="geometry" />
        </mxCell>
        <mxCell id="_4IBZ-Op1HETno_acvwW-614" value="&lt;span style=&quot;font-size: 13px;&quot;&gt;SDP / 10&lt;/span&gt;" style="text;html=1;strokeColor=none;fillColor=none;align=center;verticalAlign=middle;whiteSpace=wrap;rounded=0;" parent="1" vertex="1">
          <mxGeometry x="2960" y="2160" width="60" height="14" as="geometry" />
        </mxCell>
        <mxCell id="_4IBZ-Op1HETno_acvwW-615" value="&lt;span style=&quot;font-size: 13px;&quot;&gt;2 - 42&lt;/span&gt;" style="text;html=1;strokeColor=none;fillColor=none;align=center;verticalAlign=middle;whiteSpace=wrap;rounded=0;" parent="1" vertex="1">
          <mxGeometry x="2870" y="2370" width="51" height="14" as="geometry" />
        </mxCell>
        <mxCell id="_4IBZ-Op1HETno_acvwW-616" value="&lt;span style=&quot;font-size: 13px;&quot;&gt;SDP / 13&lt;/span&gt;" style="text;html=1;strokeColor=none;fillColor=none;align=center;verticalAlign=middle;whiteSpace=wrap;rounded=0;" parent="1" vertex="1">
          <mxGeometry x="2950" y="2370" width="60" height="14" as="geometry" />
        </mxCell>
        <mxCell id="_4IBZ-Op1HETno_acvwW-617" value="&lt;span style=&quot;font-size: 13px;&quot;&gt;2 -&amp;nbsp; 43&lt;/span&gt;" style="text;html=1;strokeColor=none;fillColor=none;align=center;verticalAlign=middle;whiteSpace=wrap;rounded=0;" parent="1" vertex="1">
          <mxGeometry x="2870" y="2580" width="51" height="14" as="geometry" />
        </mxCell>
        <mxCell id="_4IBZ-Op1HETno_acvwW-618" value="&lt;span style=&quot;font-size: 13px;&quot;&gt;SDP / 13&lt;/span&gt;" style="text;html=1;strokeColor=none;fillColor=none;align=center;verticalAlign=middle;whiteSpace=wrap;rounded=0;" parent="1" vertex="1">
          <mxGeometry x="2950" y="2580" width="60" height="14" as="geometry" />
        </mxCell>
        <mxCell id="M3nlvZfUeVR15v4jXuiJ-2" value="Does Information qualify for the AIP?" style="text;html=1;strokeColor=none;fillColor=none;align=center;verticalAlign=middle;whiteSpace=wrap;rounded=0;" parent="1" vertex="1">
          <mxGeometry x="1040" y="10" width="160" height="40" as="geometry" />
        </mxCell>
        <mxCell id="M3nlvZfUeVR15v4jXuiJ-4" value="&lt;font style=&quot;font-size: 10px;&quot;&gt;&lt;br&gt;&lt;span style=&quot;color: rgb(0, 0, 0); font-family: Helvetica; font-style: normal; font-variant-ligatures: normal; font-variant-caps: normal; font-weight: 400; letter-spacing: normal; orphans: 2; text-align: center; text-indent: 0px; text-transform: none; widows: 2; word-spacing: 0px; -webkit-text-stroke-width: 0px; background-color: rgb(255, 255, 255); text-decoration-thickness: initial; text-decoration-style: initial; text-decoration-color: initial; float: none; display: inline !important;&quot;&gt;Does Information cause an AIP permanet change?&lt;/span&gt;&lt;br&gt;&lt;/font&gt;" style="text;html=1;strokeColor=none;fillColor=none;align=center;verticalAlign=middle;whiteSpace=wrap;rounded=0;" parent="1" vertex="1">
          <mxGeometry x="1055" y="190" width="125" height="40" as="geometry" />
        </mxCell>
        <mxCell id="M3nlvZfUeVR15v4jXuiJ-6" value="&lt;span style=&quot;font-size: 10px;&quot;&gt;Should Information be notified using AIRAC?&lt;/span&gt;" style="text;html=1;strokeColor=none;fillColor=none;align=center;verticalAlign=middle;whiteSpace=wrap;rounded=0;" parent="1" vertex="1">
          <mxGeometry x="1050" y="420" width="130" height="30" as="geometry" />
        </mxCell>
        <mxCell id="M3nlvZfUeVR15v4jXuiJ-8" value="&lt;span style=&quot;font-size: 10px;&quot;&gt;Can information be notified in time using AIRAC?&lt;/span&gt;" style="text;html=1;strokeColor=none;fillColor=none;align=center;verticalAlign=middle;whiteSpace=wrap;rounded=0;" parent="1" vertex="1">
          <mxGeometry x="1055" y="635.5" width="130" height="19" as="geometry" />
        </mxCell>
        <mxCell id="M3nlvZfUeVR15v4jXuiJ-10" value="&lt;span style=&quot;font-size: 10px;&quot;&gt;Temporary change longer than 3 months?&lt;/span&gt;" style="text;html=1;strokeColor=none;fillColor=none;align=center;verticalAlign=middle;whiteSpace=wrap;rounded=0;" parent="1" vertex="1">
          <mxGeometry x="1060" y="1495" width="120" height="45" as="geometry" />
        </mxCell>
        <mxCell id="M3nlvZfUeVR15v4jXuiJ-11" value="&lt;span style=&quot;font-size: 10px;&quot;&gt;Should information be notified using AIRAC?&lt;/span&gt;" style="text;html=1;strokeColor=none;fillColor=none;align=center;verticalAlign=middle;whiteSpace=wrap;rounded=0;" parent="1" vertex="1">
          <mxGeometry x="1057.5" y="1690" width="120" height="45" as="geometry" />
        </mxCell>
        <mxCell id="M3nlvZfUeVR15v4jXuiJ-14" value="&lt;span style=&quot;font-size: 10px;&quot;&gt;Can informatioon be notified in time using AIRAC?&lt;/span&gt;" style="text;html=1;strokeColor=none;fillColor=none;align=center;verticalAlign=middle;whiteSpace=wrap;rounded=0;" parent="1" vertex="1">
          <mxGeometry x="1057.5" y="1921" width="120" height="45" as="geometry" />
        </mxCell>
        <mxCell id="M3nlvZfUeVR15v4jXuiJ-18" value="&lt;font style=&quot;font-size: 9px;&quot;&gt;Do time and/or resource constraints require the issue of NOTAM?&lt;/font&gt;" style="text;html=1;strokeColor=none;fillColor=none;align=center;verticalAlign=middle;whiteSpace=wrap;rounded=0;" parent="1" vertex="1">
          <mxGeometry x="1791.75" y="425" width="136" height="20" as="geometry" />
        </mxCell>
        <mxCell id="M3nlvZfUeVR15v4jXuiJ-26" value="&#xa;&lt;span style=&quot;color: rgb(0, 0, 0); font-family: Helvetica; font-size: 12px; font-style: normal; font-variant-ligatures: normal; font-variant-caps: normal; font-weight: 400; letter-spacing: normal; orphans: 2; text-align: center; text-indent: 0px; text-transform: none; widows: 2; word-spacing: 0px; -webkit-text-stroke-width: 0px; background-color: rgb(255, 255, 255); text-decoration-thickness: initial; text-decoration-style: initial; text-decoration-color: initial; float: none; display: inline !important;&quot;&gt;Does time and/or resource constraints require the issue of NOTAM&lt;/span&gt;&#xa;&#xa;" style="text;html=1;strokeColor=none;fillColor=none;align=center;verticalAlign=middle;whiteSpace=wrap;rounded=0;" parent="1" vertex="1">
          <mxGeometry x="2059" y="1719" width="159" height="8" as="geometry" />
        </mxCell>
        <mxCell id="DZtiqlgdvekkQqqCtOq4-10" value="Extensive text/graphics" style="text;html=1;strokeColor=none;fillColor=none;align=center;verticalAlign=middle;whiteSpace=wrap;rounded=0;" vertex="1" parent="1">
          <mxGeometry x="2860" y="1496.5" width="150" height="27" as="geometry" />
        </mxCell>
        <mxCell id="DZtiqlgdvekkQqqCtOq4-11" value="Should information be notified using AIRAC?" style="text;html=1;strokeColor=none;fillColor=none;align=center;verticalAlign=middle;whiteSpace=wrap;rounded=0;" vertex="1" parent="1">
          <mxGeometry x="2870" y="1762" width="125" height="38" as="geometry" />
        </mxCell>
        <mxCell id="DZtiqlgdvekkQqqCtOq4-12" value="Can information be notified in time using AIRAC?" style="text;html=1;strokeColor=none;fillColor=none;align=center;verticalAlign=middle;whiteSpace=wrap;rounded=0;" vertex="1" parent="1">
          <mxGeometry x="2890" y="2005" width="100" height="30" as="geometry" />
        </mxCell>
        <mxCell id="DZtiqlgdvekkQqqCtOq4-16" value="Do time and/or resource constraints require the issue of NOTAM?" style="text;html=1;strokeColor=none;fillColor=none;align=center;verticalAlign=middle;whiteSpace=wrap;rounded=0;" vertex="1" parent="1">
          <mxGeometry x="3831" y="1775" width="150" height="30" as="geometry" />
        </mxCell>
      </root>
    </mxGraphModel>
  </diagram>
</mxfile>
